<svg width="28" height="19" viewBox="0 0 28 19" fill="none" xmlns="http://www.w3.org/2000/svg">
<path d="M18.9127 18.8282C18.4597 18.8282 18.1577 18.6772 17.8556 18.3751C17.2516 17.7711 17.2516 16.865 17.8556 16.2609L25.4063 8.7103C26.0103 8.10625 26.9164 8.10625 27.5205 8.7103C28.1245 9.31435 28.1245 10.2204 27.5205 10.8245L19.9698 18.3751C19.6678 18.6772 19.3658 18.8282 18.9127 18.8282Z" fill="white"/>
<path d="M26.4634 11.2775C26.0103 11.2775 25.7083 11.1265 25.4063 10.8245L17.8556 3.27382C17.2516 2.66977 17.2516 1.76369 17.8556 1.15964C18.4597 0.555591 19.3658 0.555591 19.9698 1.15964L27.5205 8.71029C28.1245 9.31434 28.1245 10.2204 27.5205 10.8245C27.2184 11.1265 26.9164 11.2775 26.4634 11.2775Z" fill="white"/>
<path d="M26.4627 11.2775H2.30066C1.39458 11.2775 0.790527 10.6735 0.790527 9.76739C0.790527 8.86131 1.39458 8.25726 2.30066 8.25726H26.4627C27.3688 8.25726 27.9729 8.86131 27.9729 9.76739C27.9729 10.6735 27.3688 11.2775 26.4627 11.2775Z" fill="white"/>
</svg>
