<svg width="38" height="38" viewBox="0 0 38 38" fill="none" xmlns="http://www.w3.org/2000/svg">
<g clip-path="url(#clip0_12_8285)">
<path d="M18.5973 0.669922C14.9191 0.669922 11.3235 1.76063 8.26519 3.80413C5.20688 5.84762 2.82323 8.75212 1.41564 12.1503C0.00805794 15.5485 -0.36023 19.2878 0.35735 22.8953C1.07493 26.5029 2.84615 29.8166 5.44702 32.4175C8.0479 35.0183 11.3616 36.7896 14.9691 37.5071C18.5767 38.2247 22.3159 37.8564 25.7142 36.4488C29.1124 35.0413 32.0169 32.6576 34.0604 29.5993C36.1038 26.541 37.1946 22.9454 37.1946 19.2672C37.1946 14.3349 35.2352 9.6046 31.7475 6.11694C28.2599 2.62927 23.5296 0.669922 18.5973 0.669922V0.669922ZM29.1667 14.7806L17.4969 28.0157C17.3086 28.2278 17.0802 28.4007 16.8249 28.5244C16.5696 28.6481 16.2924 28.7201 16.0092 28.7363H15.8697C15.3411 28.7396 14.8302 28.5462 14.4361 28.1939L8.19056 22.6535C7.76104 22.2722 7.50055 21.736 7.4664 21.1627C7.43225 20.5894 7.62723 20.026 8.00846 19.5965C8.38969 19.167 8.92593 18.9065 9.49921 18.8724C10.0725 18.8382 10.6359 19.0332 11.0654 19.4144L15.7147 23.5136L25.951 11.8903C26.3312 11.4597 26.8668 11.1978 27.4401 11.1622C28.0134 11.1266 28.5773 11.3202 29.0079 11.7004C29.4384 12.0806 29.7003 12.6163 29.7359 13.1896C29.7715 13.7629 29.5779 14.3268 29.1977 14.7574L29.1667 14.7806Z" fill="#ECCF4D"/>
</g>
<defs>
<clipPath id="clip0_12_8285">
<rect width="37.1946" height="37.1946" fill="white" transform="translate(0 0.669922)"/>
</clipPath>
</defs>
</svg>
