<svg xmlns="http://www.w3.org/2000/svg">
    <symbol id="agre" width="295" height="73" viewBox="0 0 295 73" fill="none" xmlns="http://www.w3.org/2000/svg">
        <mask id="path-1-outside-1_2033_24" maskUnits="userSpaceOnUse" x="-3" y="-2" width="300" height="77" fill="black">
            <rect fill="white" x="-3" y="-2" width="300" height="77"/>
            <path d="M0.593226 73L32.3479 0.35868H56.4233L88.1779 73H62.8572L39.4044 11.9813H48.9516L25.4988 73H0.593226ZM19.48 60.3397L25.7064 42.6982H59.1214L65.3478 60.3397H19.48ZM94.8826 73V0.35868H150.194V19.3492H113.666L118.958 14.0568V73H94.8826ZM158.322 73V0.35868H193.294C200.074 0.35868 205.92 1.4656 210.831 3.67943C215.813 5.89326 219.652 9.07564 222.35 13.2266C225.048 17.3083 226.397 22.1511 226.397 27.7548C226.397 33.3586 225.048 38.2013 222.35 42.2831C219.652 46.3648 215.813 49.5472 210.831 51.8302C205.92 54.0441 200.074 55.151 193.294 55.151H171.916L182.813 44.6699V73H158.322ZM182.813 47.368L171.916 36.2642H191.737C195.127 36.2642 197.618 35.5032 199.209 33.9812C200.869 32.4592 201.699 30.3838 201.699 27.7548C201.699 25.1259 200.869 23.0504 199.209 21.5284C197.618 20.0064 195.127 19.2454 191.737 19.2454H171.916L182.813 8.14168V47.368ZM256.236 27.3397H288.614V44.9812H256.236V27.3397ZM257.897 54.5284H294.217V73H233.821V0.35868H292.868V18.8303H257.897V54.5284Z"/>
        </mask>
        <path d="M0.593226 73L-1.23933 72.1989L-2.4638 75H0.593226V73ZM32.3479 0.35868V-1.64132H31.0394L30.5153 -0.442409L32.3479 0.35868ZM56.4233 0.35868L58.2558 -0.442409L57.7317 -1.64132H56.4233V0.35868ZM88.1779 73V75H91.2349L90.0105 72.1989L88.1779 73ZM62.8572 73L60.9904 73.7175L61.4833 75H62.8572V73ZM39.4044 11.9813V9.9813H36.4931L37.5376 12.6988L39.4044 11.9813ZM48.9516 11.9813L50.8184 12.6988L51.8629 9.9813H48.9516V11.9813ZM25.4988 73V75H26.8728L27.3657 73.7175L25.4988 73ZM19.48 60.3397L17.594 59.674L16.6532 62.3397H19.48V60.3397ZM25.7064 42.6982V40.6982H24.2913L23.8204 42.0326L25.7064 42.6982ZM59.1214 42.6982L61.0074 42.0326L60.5364 40.6982H59.1214V42.6982ZM65.3478 60.3397V62.3397H68.1746L67.2338 59.674L65.3478 60.3397ZM2.42578 73.8011L34.1804 1.15977L30.5153 -0.442409L-1.23933 72.1989L2.42578 73.8011ZM32.3479 2.35868H56.4233V-1.64132H32.3479V2.35868ZM54.5907 1.15977L86.3453 73.8011L90.0105 72.1989L58.2558 -0.442409L54.5907 1.15977ZM88.1779 71H62.8572V75H88.1779V71ZM64.7241 72.2825L41.2713 11.2638L37.5376 12.6988L60.9904 73.7175L64.7241 72.2825ZM39.4044 13.9813H48.9516V9.9813H39.4044V13.9813ZM47.0847 11.2638L23.632 72.2825L27.3657 73.7175L50.8184 12.6988L47.0847 11.2638ZM25.4988 71H0.593226V75H25.4988V71ZM21.3659 61.0053L27.5923 43.3638L23.8204 42.0326L17.594 59.674L21.3659 61.0053ZM25.7064 44.6982H59.1214V40.6982H25.7064V44.6982ZM57.2354 43.3638L63.4618 61.0053L67.2338 59.674L61.0074 42.0326L57.2354 43.3638ZM65.3478 58.3397H19.48V62.3397H65.3478V58.3397ZM94.8826 73H92.8826V75H94.8826V73ZM94.8826 0.35868V-1.64132H92.8826V0.35868H94.8826ZM150.194 0.35868H152.194V-1.64132H150.194V0.35868ZM150.194 19.3492V21.3492H152.194V19.3492H150.194ZM113.666 19.3492L112.251 17.935L108.837 21.3492H113.666V19.3492ZM118.958 14.0568H120.958V9.22833L117.544 12.6425L118.958 14.0568ZM118.958 73V75H120.958V73H118.958ZM96.8826 73V0.35868H92.8826V73H96.8826ZM94.8826 2.35868H150.194V-1.64132H94.8826V2.35868ZM148.194 0.35868V19.3492H152.194V0.35868H148.194ZM150.194 17.3492H113.666V21.3492H150.194V17.3492ZM115.08 20.7634L120.372 15.471L117.544 12.6425L112.251 17.935L115.08 20.7634ZM116.958 14.0568V73H120.958V14.0568H116.958ZM118.958 71H94.8826V75H118.958V71ZM158.322 73H156.322V75H158.322V73ZM158.322 0.35868V-1.64132H156.322V0.35868H158.322ZM210.831 3.67943L210.01 5.50281L210.019 5.50705L210.831 3.67943ZM222.35 13.2266L220.673 14.3165L220.678 14.323L220.682 14.3294L222.35 13.2266ZM222.35 42.2831L220.682 41.1802L220.682 41.1802L222.35 42.2831ZM210.831 51.8302L211.653 53.6536L211.665 53.6484L210.831 51.8302ZM171.916 55.151L170.53 53.7096L166.952 57.151H171.916V55.151ZM182.813 44.6699H184.813V39.971L181.426 43.2285L182.813 44.6699ZM182.813 73V75H184.813V73H182.813ZM182.813 47.368L181.385 48.7688L184.813 52.2616V47.368H182.813ZM171.916 36.2642V34.2642H167.152L170.489 37.6651L171.916 36.2642ZM199.209 33.9812L197.857 32.5069L197.842 32.5213L197.826 32.536L199.209 33.9812ZM199.209 21.5284L197.826 22.9737L197.842 22.9884L197.857 23.0027L199.209 21.5284ZM171.916 19.2454L170.489 17.8446L167.152 21.2454H171.916V19.2454ZM182.813 8.14168H184.813V3.2481L181.385 6.74087L182.813 8.14168ZM160.322 73V0.35868H156.322V73H160.322ZM158.322 2.35868H193.294V-1.64132H158.322V2.35868ZM193.294 2.35868C199.861 2.35868 205.414 3.43136 210.01 5.50279L211.653 1.85606C206.425 -0.500172 200.286 -1.64132 193.294 -1.64132V2.35868ZM210.019 5.50705C214.684 7.58026 218.207 10.5224 220.673 14.3165L224.027 12.1366C221.097 7.62892 216.941 4.20625 211.644 1.8518L210.019 5.50705ZM220.682 14.3294C223.134 18.0383 224.397 22.4847 224.397 27.7548H228.397C228.397 21.8175 226.963 16.5783 224.019 12.1237L220.682 14.3294ZM224.397 27.7548C224.397 33.025 223.134 37.4713 220.682 41.1802L224.019 43.386C226.963 38.9314 228.397 33.6922 228.397 27.7548H224.397ZM220.682 41.1802C218.214 44.9139 214.681 47.8656 209.998 50.0121L211.665 53.6484C216.944 51.2289 221.091 47.8158 224.019 43.386L220.682 41.1802ZM210.01 50.0069C205.414 52.0783 199.861 53.151 193.294 53.151V57.151C200.286 57.151 206.425 56.0098 211.653 53.6536L210.01 50.0069ZM193.294 53.151H171.916V57.151H193.294V53.151ZM173.303 56.5924L184.199 46.1113L181.426 43.2285L170.53 53.7096L173.303 56.5924ZM180.813 44.6699V73H184.813V44.6699H180.813ZM182.813 71H158.322V75H182.813V71ZM184.24 45.9672L173.344 34.8634L170.489 37.6651L181.385 48.7688L184.24 45.9672ZM171.916 38.2642H191.737V34.2642H171.916V38.2642ZM191.737 38.2642C195.372 38.2642 198.47 37.4554 200.591 35.4265L197.826 32.536C196.765 33.5511 194.882 34.2642 191.737 34.2642V38.2642ZM200.56 35.4555C202.704 33.4905 203.699 30.8418 203.699 27.7548H199.699C199.699 29.9257 199.035 31.4279 197.857 32.5069L200.56 35.4555ZM203.699 27.7548C203.699 24.6679 202.704 22.0191 200.56 20.0541L197.857 23.0027C199.035 24.0817 199.699 25.5839 199.699 27.7548H203.699ZM200.591 20.0832C198.47 18.0543 195.372 17.2454 191.737 17.2454V21.2454C194.882 21.2454 196.765 21.9585 197.826 22.9737L200.591 20.0832ZM191.737 17.2454H171.916V21.2454H191.737V17.2454ZM173.344 20.6462L184.24 9.54249L181.385 6.74087L170.489 17.8446L173.344 20.6462ZM180.813 8.14168V47.368H184.813V8.14168H180.813ZM256.236 27.3397V25.3397H254.236V27.3397H256.236ZM288.614 27.3397H290.614V25.3397H288.614V27.3397ZM288.614 44.9812V46.9812H290.614V44.9812H288.614ZM256.236 44.9812H254.236V46.9812H256.236V44.9812ZM257.897 54.5284H255.897V56.5284H257.897V54.5284ZM294.217 54.5284H296.217V52.5284H294.217V54.5284ZM294.217 73V75H296.217V73H294.217ZM233.821 73H231.821V75H233.821V73ZM233.821 0.35868V-1.64132H231.821V0.35868H233.821ZM292.868 0.35868H294.868V-1.64132H292.868V0.35868ZM292.868 18.8303V20.8303H294.868V18.8303H292.868ZM257.897 18.8303V16.8303H255.897V18.8303H257.897ZM256.236 29.3397H288.614V25.3397H256.236V29.3397ZM286.614 27.3397V44.9812H290.614V27.3397H286.614ZM288.614 42.9812H256.236V46.9812H288.614V42.9812ZM258.236 44.9812V27.3397H254.236V44.9812H258.236ZM257.897 56.5284H294.217V52.5284H257.897V56.5284ZM292.217 54.5284V73H296.217V54.5284H292.217ZM294.217 71H233.821V75H294.217V71ZM235.821 73V0.35868H231.821V73H235.821ZM233.821 2.35868H292.868V-1.64132H233.821V2.35868ZM290.868 0.35868V18.8303H294.868V0.35868H290.868ZM292.868 16.8303H257.897V20.8303H292.868V16.8303ZM255.897 18.8303V54.5284H259.897V18.8303H255.897Z" fill="white" mask="url(#path-1-outside-1_2033_24)"/>
    </symbol>

    <symbol id="gator" width="358" height="77" viewBox="0 0 358 77" fill="none" xmlns="http://www.w3.org/2000/svg">
        <mask id="path-1-outside-1_2033_25" maskUnits="userSpaceOnUse" x="-2" y="-2" width="362" height="81" fill="black">
        <rect fill="white" x="-2" y="-2" width="362" height="81"/>
        <path d="M0.614564 75V2.35868H55.9257V21.3492H19.3975L24.69 16.0568V75H0.614564ZM43.4397 75L75.1943 2.35868H99.2697L131.024 75H105.704L82.2509 13.9813H91.7981L68.3453 75H43.4397ZM62.3264 62.3397L68.5528 44.6982H101.968L108.194 62.3397H62.3264ZM150.581 75V16.0568L155.873 21.3492H129.307V2.35868H195.93V21.3492H169.364L174.656 16.0568V75H150.581ZM239.936 76.6604C234.056 76.6604 228.59 75.7264 223.54 73.8585C218.559 71.9906 214.235 69.3616 210.568 65.9717C206.902 62.5126 204.031 58.4655 201.955 53.8302C199.949 49.195 198.946 44.1447 198.946 38.6793C198.946 33.1448 199.949 28.0945 201.955 23.5284C204.031 18.8932 206.902 14.8807 210.568 11.4907C214.235 8.03162 218.559 5.36811 223.54 3.50019C228.59 1.63227 234.056 0.698309 239.936 0.698309C245.886 0.698309 251.351 1.63227 256.332 3.50019C261.313 5.36811 265.637 8.03162 269.304 11.4907C272.971 14.8807 275.807 18.8932 277.813 23.5284C279.889 28.0945 280.927 33.1448 280.927 38.6793C280.927 44.1447 279.889 49.195 277.813 53.8302C275.807 58.4655 272.971 62.5126 269.304 65.9717C265.637 69.3616 261.313 71.9906 256.332 73.8585C251.351 75.7264 245.886 76.6604 239.936 76.6604ZM239.936 56.8397C242.219 56.8397 244.329 56.4246 246.266 55.5944C248.273 54.7642 250.002 53.5881 251.455 52.0661C252.977 50.4749 254.153 48.5724 254.983 46.3586C255.813 44.0756 256.228 41.5158 256.228 38.6793C256.228 35.8429 255.813 33.3177 254.983 31.1039C254.153 28.8209 252.977 26.9184 251.455 25.3964C250.002 23.8052 248.273 22.5945 246.266 21.7643C244.329 20.9341 242.219 20.519 239.936 20.519C237.653 20.519 235.508 20.9341 233.502 21.7643C231.565 22.5945 229.835 23.8052 228.313 25.3964C226.861 26.9184 225.719 28.8209 224.889 31.1039C224.059 33.3177 223.644 35.8429 223.644 38.6793C223.644 41.5158 224.059 44.0756 224.889 46.3586C225.719 48.5724 226.861 50.4749 228.313 52.0661C229.835 53.5881 231.565 54.7642 233.502 55.5944C235.508 56.4246 237.653 56.8397 239.936 56.8397ZM289.741 75V2.35868H324.712C331.492 2.35868 337.338 3.4656 342.25 5.67943C347.231 7.89326 351.071 11.0756 353.769 15.2266C356.467 19.3083 357.816 24.1511 357.816 29.7548C357.816 35.3586 356.467 40.2013 353.769 44.2831C351.071 48.3648 347.231 51.5472 342.25 53.8302C337.338 56.0441 331.492 57.151 324.712 57.151H303.335L314.231 46.6699V75H289.741ZM314.231 49.368L303.335 38.2642H323.156C326.546 38.2642 329.036 37.5032 330.627 35.9812C332.288 34.4592 333.118 32.3838 333.118 29.7548C333.118 27.1259 332.288 25.0504 330.627 23.5284C329.036 22.0064 326.546 21.2454 323.156 21.2454H303.335L314.231 10.1417V49.368Z"/>
        </mask>
        <path d="M0.614564 75V2.35868H55.9257V21.3492H19.3975L24.69 16.0568V75H0.614564ZM43.4397 75L75.1943 2.35868H99.2697L131.024 75H105.704L82.2509 13.9813H91.7981L68.3453 75H43.4397ZM62.3264 62.3397L68.5528 44.6982H101.968L108.194 62.3397H62.3264ZM150.581 75V16.0568L155.873 21.3492H129.307V2.35868H195.93V21.3492H169.364L174.656 16.0568V75H150.581ZM239.936 76.6604C234.056 76.6604 228.59 75.7264 223.54 73.8585C218.559 71.9906 214.235 69.3616 210.568 65.9717C206.902 62.5126 204.031 58.4655 201.955 53.8302C199.949 49.195 198.946 44.1447 198.946 38.6793C198.946 33.1448 199.949 28.0945 201.955 23.5284C204.031 18.8932 206.902 14.8807 210.568 11.4907C214.235 8.03162 218.559 5.36811 223.54 3.50019C228.59 1.63227 234.056 0.698309 239.936 0.698309C245.886 0.698309 251.351 1.63227 256.332 3.50019C261.313 5.36811 265.637 8.03162 269.304 11.4907C272.971 14.8807 275.807 18.8932 277.813 23.5284C279.889 28.0945 280.927 33.1448 280.927 38.6793C280.927 44.1447 279.889 49.195 277.813 53.8302C275.807 58.4655 272.971 62.5126 269.304 65.9717C265.637 69.3616 261.313 71.9906 256.332 73.8585C251.351 75.7264 245.886 76.6604 239.936 76.6604ZM239.936 56.8397C242.219 56.8397 244.329 56.4246 246.266 55.5944C248.273 54.7642 250.002 53.5881 251.455 52.0661C252.977 50.4749 254.153 48.5724 254.983 46.3586C255.813 44.0756 256.228 41.5158 256.228 38.6793C256.228 35.8429 255.813 33.3177 254.983 31.1039C254.153 28.8209 252.977 26.9184 251.455 25.3964C250.002 23.8052 248.273 22.5945 246.266 21.7643C244.329 20.9341 242.219 20.519 239.936 20.519C237.653 20.519 235.508 20.9341 233.502 21.7643C231.565 22.5945 229.835 23.8052 228.313 25.3964C226.861 26.9184 225.719 28.8209 224.889 31.1039C224.059 33.3177 223.644 35.8429 223.644 38.6793C223.644 41.5158 224.059 44.0756 224.889 46.3586C225.719 48.5724 226.861 50.4749 228.313 52.0661C229.835 53.5881 231.565 54.7642 233.502 55.5944C235.508 56.4246 237.653 56.8397 239.936 56.8397ZM289.741 75V2.35868H324.712C331.492 2.35868 337.338 3.4656 342.25 5.67943C347.231 7.89326 351.071 11.0756 353.769 15.2266C356.467 19.3083 357.816 24.1511 357.816 29.7548C357.816 35.3586 356.467 40.2013 353.769 44.2831C351.071 48.3648 347.231 51.5472 342.25 53.8302C337.338 56.0441 331.492 57.151 324.712 57.151H303.335L314.231 46.6699V75H289.741ZM314.231 49.368L303.335 38.2642H323.156C326.546 38.2642 329.036 37.5032 330.627 35.9812C332.288 34.4592 333.118 32.3838 333.118 29.7548C333.118 27.1259 332.288 25.0504 330.627 23.5284C329.036 22.0064 326.546 21.2454 323.156 21.2454H303.335L314.231 10.1417V49.368Z" fill="white"/>
        <path d="M0.614564 75H-1.38544V77H0.614564V75ZM0.614564 2.35868V0.35868H-1.38544V2.35868H0.614564ZM55.9257 2.35868H57.9257V0.35868H55.9257V2.35868ZM55.9257 21.3492V23.3492H57.9257V21.3492H55.9257ZM19.3975 21.3492L17.9833 19.935L14.5691 23.3492H19.3975V21.3492ZM24.69 16.0568H26.69V11.2283L23.2758 14.6425L24.69 16.0568ZM24.69 75V77H26.69V75H24.69ZM2.61456 75V2.35868H-1.38544V75H2.61456ZM0.614564 4.35868H55.9257V0.35868H0.614564V4.35868ZM53.9257 2.35868V21.3492H57.9257V2.35868H53.9257ZM55.9257 19.3492H19.3975V23.3492H55.9257V19.3492ZM20.8117 22.7634L26.1042 17.471L23.2758 14.6425L17.9833 19.935L20.8117 22.7634ZM22.69 16.0568V75H26.69V16.0568H22.69ZM24.69 73H0.614564V77H24.69V73ZM43.4397 75L41.6071 74.1989L40.3827 77H43.4397V75ZM75.1943 2.35868V0.35868H73.8859L73.3618 1.55759L75.1943 2.35868ZM99.2697 2.35868L101.102 1.55759L100.578 0.35868H99.2697V2.35868ZM131.024 75V77H134.081L132.857 74.1989L131.024 75ZM105.704 75L103.837 75.7175L104.33 77H105.704V75ZM82.2509 13.9813V11.9813H79.3396L80.3841 14.6988L82.2509 13.9813ZM91.7981 13.9813L93.6649 14.6988L94.7094 11.9813H91.7981V13.9813ZM68.3453 75V77H69.7192L70.2122 75.7175L68.3453 75ZM62.3264 62.3397L60.4405 61.674L59.4996 64.3397H62.3264V62.3397ZM68.5528 44.6982V42.6982H67.1378L66.6669 44.0326L68.5528 44.6982ZM101.968 44.6982L103.854 44.0326L103.383 42.6982H101.968V44.6982ZM108.194 62.3397V64.3397H111.021L110.08 61.674L108.194 62.3397ZM45.2723 75.8011L77.0269 3.15977L73.3618 1.55759L41.6071 74.1989L45.2723 75.8011ZM75.1943 4.35868H99.2697V0.35868H75.1943V4.35868ZM97.4372 3.15977L129.192 75.8011L132.857 74.1989L101.102 1.55759L97.4372 3.15977ZM131.024 73H105.704V77H131.024V73ZM107.571 74.2825L84.1178 13.2638L80.3841 14.6988L103.837 75.7175L107.571 74.2825ZM82.2509 15.9813H91.7981V11.9813H82.2509V15.9813ZM89.9312 13.2638L66.4784 74.2825L70.2122 75.7175L93.6649 14.6988L89.9312 13.2638ZM68.3453 73H43.4397V77H68.3453V73ZM64.2124 63.0053L70.4388 45.3638L66.6669 44.0326L60.4405 61.674L64.2124 63.0053ZM68.5528 46.6982H101.968V42.6982H68.5528V46.6982ZM100.082 45.3638L106.308 63.0053L110.08 61.674L103.854 44.0326L100.082 45.3638ZM108.194 60.3397H62.3264V64.3397H108.194V60.3397ZM150.581 75H148.581V77H150.581V75ZM150.581 16.0568L151.995 14.6425L148.581 11.2283V16.0568H150.581ZM155.873 21.3492V23.3492H160.702L157.287 19.935L155.873 21.3492ZM129.307 21.3492H127.307V23.3492H129.307V21.3492ZM129.307 2.35868V0.35868H127.307V2.35868H129.307ZM195.93 2.35868H197.93V0.35868H195.93V2.35868ZM195.93 21.3492V23.3492H197.93V21.3492H195.93ZM169.364 21.3492L167.95 19.935L164.535 23.3492H169.364V21.3492ZM174.656 16.0568H176.656V11.2283L173.242 14.6425L174.656 16.0568ZM174.656 75V77H176.656V75H174.656ZM152.581 75V16.0568H148.581V75H152.581ZM149.167 17.471L154.459 22.7634L157.287 19.935L151.995 14.6425L149.167 17.471ZM155.873 19.3492H129.307V23.3492H155.873V19.3492ZM131.307 21.3492V2.35868H127.307V21.3492H131.307ZM129.307 4.35868H195.93V0.35868H129.307V4.35868ZM193.93 2.35868V21.3492H197.93V2.35868H193.93ZM195.93 19.3492H169.364V23.3492H195.93V19.3492ZM170.778 22.7634L176.07 17.471L173.242 14.6425L167.95 19.935L170.778 22.7634ZM172.656 16.0568V75H176.656V16.0568H172.656ZM174.656 73H150.581V77H174.656V73ZM223.54 73.8585L222.838 75.7312L222.846 75.7343L223.54 73.8585ZM210.568 65.9717L209.196 67.4265L209.203 67.4334L209.211 67.4403L210.568 65.9717ZM201.955 53.8302L200.12 54.6247L200.125 54.6362L200.13 54.6476L201.955 53.8302ZM201.955 23.5284L200.13 22.7111L200.124 22.7239L201.955 23.5284ZM210.568 11.4907L211.926 12.9593L211.933 12.9524L211.941 12.9455L210.568 11.4907ZM223.54 3.50019L222.846 1.62436L222.838 1.62753L223.54 3.50019ZM256.332 3.50019L255.63 5.37285L255.63 5.37285L256.332 3.50019ZM269.304 11.4907L267.931 12.9455L267.939 12.9524L267.946 12.9593L269.304 11.4907ZM277.813 23.5284L275.978 24.3229L275.985 24.3395L275.993 24.356L277.813 23.5284ZM277.813 53.8302L275.988 53.0129L275.983 53.0243L275.978 53.0358L277.813 53.8302ZM269.304 65.9717L270.662 67.4403L270.669 67.4334L270.676 67.4265L269.304 65.9717ZM256.332 73.8585L257.035 75.7312L257.035 75.7312L256.332 73.8585ZM246.266 55.5944L245.502 53.7464L245.49 53.7512L245.478 53.7561L246.266 55.5944ZM251.455 52.0661L250.01 50.6837L250.008 50.6851L251.455 52.0661ZM254.983 46.3586L256.856 47.0608L256.859 47.0514L256.863 47.0421L254.983 46.3586ZM254.983 31.1039L253.104 31.7874L253.107 31.7968L253.111 31.8061L254.983 31.1039ZM251.455 25.3964L249.978 26.7449L250.009 26.7784L250.041 26.8106L251.455 25.3964ZM246.266 21.7643L245.478 23.6026L245.49 23.6075L245.502 23.6123L246.266 21.7643ZM233.502 21.7643L232.737 19.9163L232.726 19.9211L232.714 19.926L233.502 21.7643ZM228.313 25.3964L226.868 24.0139L226.867 24.0154L228.313 25.3964ZM224.889 31.1039L226.762 31.8061L226.765 31.7968L226.769 31.7874L224.889 31.1039ZM224.889 46.3586L223.009 47.0421L223.013 47.0514L223.016 47.0608L224.889 46.3586ZM228.313 52.0661L226.837 53.4146L226.867 53.4482L226.899 53.4803L228.313 52.0661ZM233.502 55.5944L232.714 57.4327L232.726 57.4376L232.737 57.4424L233.502 55.5944ZM239.936 74.6604C234.271 74.6604 229.042 73.7612 224.234 71.9827L222.846 75.7343C228.138 77.6916 233.841 78.6604 239.936 78.6604V74.6604ZM224.242 71.9858C219.488 70.2029 215.39 67.7059 211.926 64.5032L209.211 67.4403C213.08 71.0174 217.63 73.7783 222.838 75.7312L224.242 71.9858ZM211.941 64.5169C208.467 61.2398 205.749 57.4098 203.78 53.0129L200.13 54.6476C202.312 59.5211 205.336 63.7854 209.196 67.4265L211.941 64.5169ZM203.79 53.0358C201.901 48.6714 200.946 43.8941 200.946 38.6793H196.946C196.946 44.3953 197.996 49.7187 200.12 54.6247L203.79 53.0358ZM200.946 38.6793C200.946 33.3912 201.903 28.6189 203.786 24.333L200.124 22.7239C197.995 27.57 196.946 32.8983 196.946 38.6793H200.946ZM203.78 24.3458C205.747 19.9527 208.461 16.1627 211.926 12.9593L209.211 10.0222C205.342 13.5986 202.314 17.8338 200.13 22.7111L203.78 24.3458ZM211.941 12.9455C215.403 9.67885 219.496 7.15266 224.242 5.37285L222.838 1.62753C217.622 3.58355 213.066 6.38439 209.196 10.0359L211.941 12.9455ZM224.234 5.376C229.042 3.59746 234.271 2.69831 239.936 2.69831V-1.30169C233.841 -1.30169 228.138 -0.332921 222.846 1.62438L224.234 5.376ZM239.936 2.69831C245.674 2.69831 250.898 3.59851 255.63 5.37285L257.035 1.62753C251.804 -0.33397 246.097 -1.30169 239.936 -1.30169V2.69831ZM255.63 5.37285C260.376 7.15266 264.469 9.67885 267.931 12.9455L270.676 10.0359C266.806 6.38439 262.251 3.58355 257.035 1.62753L255.63 5.37285ZM267.946 12.9593C271.406 16.158 274.081 19.9402 275.978 24.3229L279.649 22.734C277.533 17.8463 274.535 13.6033 270.662 10.0222L267.946 12.9593ZM275.993 24.356C277.938 28.6363 278.927 33.4005 278.927 38.6793H282.927C282.927 32.889 281.839 27.5526 279.634 22.7008L275.993 24.356ZM278.927 38.6793C278.927 43.8848 277.94 48.654 275.988 53.0129L279.639 54.6476C281.838 49.7361 282.927 44.4047 282.927 38.6793H278.927ZM275.978 53.0358C274.079 57.4222 271.4 61.2446 267.931 64.5169L270.676 67.4265C274.541 63.7806 277.535 59.5087 279.649 54.6247L275.978 53.0358ZM267.946 64.5032C264.482 67.7059 260.385 70.2029 255.63 71.9858L257.035 75.7312C262.242 73.7783 266.793 71.0174 270.662 67.4403L267.946 64.5032ZM255.63 71.9858C250.898 73.7602 245.674 74.6604 239.936 74.6604V78.6604C246.097 78.6604 251.804 77.6927 257.035 75.7312L255.63 71.9858ZM239.936 58.8397C242.467 58.8397 244.848 58.3782 247.054 57.4327L245.478 53.7561C243.81 54.471 241.971 54.8397 239.936 54.8397V58.8397ZM247.031 57.4424C249.286 56.5092 251.25 55.177 252.902 53.447L250.008 50.6851C248.754 51.9992 247.259 53.0192 245.502 53.7464L247.031 57.4424ZM252.9 53.4485C254.623 51.6478 255.938 49.509 256.856 47.0608L253.111 45.6563C252.368 47.6358 251.331 49.302 250.01 50.6837L252.9 53.4485ZM256.863 47.0421C257.785 44.5066 258.228 41.7106 258.228 38.6793H254.228C254.228 41.321 253.842 43.6445 253.104 45.6751L256.863 47.0421ZM258.228 38.6793C258.228 35.6497 257.785 32.8799 256.856 30.4016L253.111 31.8061C253.842 33.7555 254.228 36.0361 254.228 38.6793H258.228ZM256.863 30.4204C255.946 27.8982 254.623 25.7359 252.869 23.9821L250.041 26.8106C251.331 28.1008 252.36 29.7436 253.104 31.7874L256.863 30.4204ZM252.932 24.0478C251.28 22.2382 249.306 20.8578 247.031 19.9163L245.502 23.6123C247.239 24.3312 248.725 25.3722 249.978 26.7449L252.932 24.0478ZM247.054 19.926C244.848 18.9805 242.467 18.519 239.936 18.519V22.519C241.971 22.519 243.81 22.8877 245.478 23.6026L247.054 19.926ZM239.936 18.519C237.404 18.519 234.999 18.9806 232.737 19.9163L234.267 23.6123C236.018 22.8876 237.902 22.519 239.936 22.519V18.519ZM232.714 19.926C230.519 20.867 228.568 22.2369 226.868 24.0139L229.759 26.7788C231.103 25.3734 232.612 24.3219 234.29 23.6026L232.714 19.926ZM226.867 24.0154C225.196 25.766 223.92 27.9174 223.009 30.4204L226.769 31.7874C227.519 29.7244 228.526 28.0707 229.76 26.7773L226.867 24.0154ZM223.016 30.4016C222.087 32.8799 221.644 35.6497 221.644 38.6793H225.644C225.644 36.0361 226.031 33.7555 226.762 31.8061L223.016 30.4016ZM221.644 38.6793C221.644 41.7106 222.087 44.5066 223.009 47.0421L226.769 45.6751C226.03 43.6445 225.644 41.321 225.644 38.6793H221.644ZM223.016 47.0608C223.927 49.49 225.196 51.6177 226.837 53.4146L229.79 50.7176C228.526 49.3322 227.511 47.6548 226.762 45.6563L223.016 47.0608ZM226.899 53.4803C228.597 55.1783 230.538 56.5001 232.714 57.4327L234.29 53.7561C232.592 53.0283 231.074 51.9979 229.728 50.6519L226.899 53.4803ZM232.737 57.4424C234.999 58.3781 237.404 58.8397 239.936 58.8397V54.8397C237.902 54.8397 236.018 54.4711 234.267 53.7464L232.737 57.4424ZM289.741 75H287.741V77H289.741V75ZM289.741 2.35868V0.35868H287.741V2.35868H289.741ZM342.25 5.67943L341.428 7.50281L341.438 7.50705L342.25 5.67943ZM353.769 15.2266L352.092 16.3165L352.096 16.323L352.1 16.3294L353.769 15.2266ZM353.769 44.2831L352.1 43.1802L352.1 43.1802L353.769 44.2831ZM342.25 53.8302L343.072 55.6536L343.083 55.6484L342.25 53.8302ZM303.335 57.151L301.949 55.7096L298.371 59.151H303.335V57.151ZM314.231 46.6699H316.231V41.971L312.845 45.2285L314.231 46.6699ZM314.231 75V77H316.231V75H314.231ZM314.231 49.368L312.804 50.7688L316.231 54.2616V49.368H314.231ZM303.335 38.2642V36.2642H298.57L301.908 39.6651L303.335 38.2642ZM330.627 35.9812L329.276 34.5069L329.26 34.5213L329.245 34.536L330.627 35.9812ZM330.627 23.5284L329.245 24.9737L329.26 24.9884L329.276 25.0027L330.627 23.5284ZM303.335 21.2454L301.908 19.8446L298.57 23.2454H303.335V21.2454ZM314.231 10.1417H316.231V5.2481L312.804 8.74087L314.231 10.1417ZM291.741 75V2.35868H287.741V75H291.741ZM289.741 4.35868H324.712V0.35868H289.741V4.35868ZM324.712 4.35868C331.28 4.35868 336.832 5.43136 341.428 7.50279L343.072 3.85606C337.844 1.49983 331.705 0.35868 324.712 0.35868V4.35868ZM341.438 7.50705C346.103 9.58026 349.626 12.5224 352.092 16.3165L355.446 14.1366C352.516 9.62892 348.36 6.20625 343.062 3.8518L341.438 7.50705ZM352.1 16.3294C354.552 20.0383 355.816 24.4847 355.816 29.7548H359.816C359.816 23.8175 358.382 18.5783 355.437 14.1237L352.1 16.3294ZM355.816 29.7548C355.816 35.025 354.552 39.4713 352.1 43.1802L355.437 45.386C358.382 40.9314 359.816 35.6922 359.816 29.7548H355.816ZM352.1 43.1802C349.632 46.9139 346.1 49.8656 341.417 52.0121L343.083 55.6484C348.362 53.2289 352.509 49.8158 355.437 45.386L352.1 43.1802ZM341.428 52.0069C336.832 54.0783 331.28 55.151 324.712 55.151V59.151C331.705 59.151 337.844 58.0098 343.072 55.6536L341.428 52.0069ZM324.712 55.151H303.335V59.151H324.712V55.151ZM304.722 58.5924L315.618 48.1113L312.845 45.2285L301.949 55.7096L304.722 58.5924ZM312.231 46.6699V75H316.231V46.6699H312.231ZM314.231 73H289.741V77H314.231V73ZM315.659 47.9672L304.763 36.8634L301.908 39.6651L312.804 50.7688L315.659 47.9672ZM303.335 40.2642H323.156V36.2642H303.335V40.2642ZM323.156 40.2642C326.791 40.2642 329.889 39.4554 332.01 37.4265L329.245 34.536C328.184 35.5511 326.301 36.2642 323.156 36.2642V40.2642ZM331.979 37.4555C334.123 35.4905 335.118 32.8418 335.118 29.7548H331.118C331.118 31.9257 330.453 33.4279 329.276 34.5069L331.979 37.4555ZM335.118 29.7548C335.118 26.6679 334.123 24.0191 331.979 22.0541L329.276 25.0027C330.453 26.0817 331.118 27.5839 331.118 29.7548H335.118ZM332.01 22.0832C329.889 20.0543 326.791 19.2454 323.156 19.2454V23.2454C326.301 23.2454 328.184 23.9585 329.245 24.9737L332.01 22.0832ZM323.156 19.2454H303.335V23.2454H323.156V19.2454ZM304.763 22.6462L315.659 11.5425L312.804 8.74087L301.908 19.8446L304.763 22.6462ZM312.231 10.1417V49.368H316.231V10.1417H312.231Z" fill="white" mask="url(#path-1-outside-1_2033_25)"/>
    </symbol>

    <symbol id="crypto" width="451" height="77" viewBox="0 0 451 77" fill="none" xmlns="http://www.w3.org/2000/svg">
        <mask id="path-1-outside-1_2033_39" maskUnits="userSpaceOnUse" x="-2" y="-1.88721" width="455" height="81" fill="black">
            <rect fill="white" x="-2" y="-1.88721" width="455" height="81"/>
            <path d="M40.7101 76.7732C34.8988 76.7732 29.5026 75.8738 24.5215 74.0751C19.6096 72.2071 15.3203 69.5782 11.6536 66.1883C8.05614 62.7984 5.25426 58.7858 3.24798 54.1506C1.24169 49.5154 0.238552 44.3959 0.238552 38.7921C0.238552 33.1884 1.24169 28.0689 3.24798 23.4337C5.25426 18.7985 8.05614 14.7859 11.6536 11.396C15.3203 8.00605 19.6096 5.41172 24.5215 3.61298C29.5026 1.74506 34.8988 0.811102 40.7101 0.811102C47.8359 0.811102 54.1315 2.05638 59.5969 4.54694C65.1315 7.0375 69.6975 10.635 73.295 15.3394L57.8327 29.1412C55.6881 26.4431 53.3013 24.3676 50.6724 22.9148C48.1126 21.3928 45.207 20.6318 41.9554 20.6318C39.3957 20.6318 37.0781 21.0469 35.0026 21.8771C32.9271 22.7073 31.1284 23.918 29.6064 25.5092C28.1536 27.1003 27.0121 29.0374 26.1819 31.3205C25.3517 33.5343 24.9366 36.0248 24.9366 38.7921C24.9366 41.5594 25.3517 44.0846 26.1819 46.3676C27.0121 48.5814 28.1536 50.4839 29.6064 52.0751C31.1284 53.6663 32.9271 54.877 35.0026 55.7072C37.0781 56.5374 39.3957 56.9525 41.9554 56.9525C45.207 56.9525 48.1126 56.226 50.6724 54.7732C53.3013 53.2512 55.6881 51.1412 57.8327 48.4431L73.295 62.2449C69.6975 66.8801 65.1315 70.4776 59.5969 73.0373C54.1315 75.5279 47.8359 76.7732 40.7101 76.7732ZM80.3661 75.1128V2.47147H115.338C122.118 2.47147 127.963 3.57839 132.875 5.79222C137.857 8.00605 141.696 11.1884 144.394 15.3394C147.092 19.4211 148.441 24.2639 148.441 29.8676C148.441 35.4714 147.092 40.3141 144.394 44.3959C141.696 48.4085 137.857 51.4871 132.875 53.6317C127.963 55.7764 122.118 56.8487 115.338 56.8487H93.9604L104.857 46.7827V75.1128H80.3661ZM123.847 75.1128L105.998 48.6506H131.941L149.998 75.1128H123.847ZM104.857 49.4808L93.9604 38.377H113.781C117.171 38.377 119.662 37.616 121.253 36.094C122.913 34.572 123.743 32.4966 123.743 29.8676C123.743 27.2387 122.913 25.1632 121.253 23.6412C119.662 22.1192 117.171 21.3582 113.781 21.3582H93.9604L104.857 10.2545V49.4808ZM175.355 75.1128V43.2544L180.959 57.8864L147.959 2.47147H173.799L196.11 40.3487H181.063L203.582 2.47147H227.242L194.449 57.8864L199.846 43.2544V75.1128H175.355ZM230.351 75.1128V2.47147H265.323C272.102 2.47147 277.948 3.57839 282.86 5.79222C287.841 8.00605 291.681 11.1884 294.379 15.3394C297.077 19.4211 298.426 24.2639 298.426 29.8676C298.426 35.4714 297.077 40.3141 294.379 44.3959C291.681 48.4776 287.841 51.66 282.86 53.943C277.948 56.1569 272.102 57.2638 265.323 57.2638H243.945L254.841 46.7827V75.1128H230.351ZM254.841 49.4808L243.945 38.377H263.766C267.156 38.377 269.646 37.616 271.238 36.094C272.898 34.572 273.728 32.4966 273.728 29.8676C273.728 27.2387 272.898 25.1632 271.238 23.6412C269.646 22.1192 267.156 21.3582 263.766 21.3582H243.945L254.841 10.2545V49.4808ZM320.61 75.1128V21.462H299.337V2.47147H366.374V21.462H345.101V75.1128H320.61ZM409.807 76.7732C403.926 76.7732 398.461 75.8392 393.41 73.9713C388.429 72.1034 384.105 69.4744 380.439 66.0845C376.772 62.6254 373.901 58.5782 371.826 53.943C369.819 49.3078 368.816 44.2575 368.816 38.7921C368.816 33.2576 369.819 28.2073 371.826 23.6412C373.901 19.006 376.772 14.9935 380.439 11.6035C384.105 8.14441 388.429 5.4809 393.41 3.61298C398.461 1.74506 403.926 0.811102 409.807 0.811102C415.756 0.811102 421.222 1.74506 426.203 3.61298C431.184 5.4809 435.508 8.14441 439.174 11.6035C442.841 14.9935 445.678 19.006 447.684 23.6412C449.759 28.2073 450.797 33.2576 450.797 38.7921C450.797 44.2575 449.759 49.3078 447.684 53.943C445.678 58.5782 442.841 62.6254 439.174 66.0845C435.508 69.4744 431.184 72.1034 426.203 73.9713C421.222 75.8392 415.756 76.7732 409.807 76.7732ZM409.807 56.9525C412.09 56.9525 414.2 56.5374 416.137 55.7072C418.143 54.877 419.873 53.7009 421.325 52.1789C422.847 50.5877 424.024 48.6852 424.854 46.4714C425.684 44.1883 426.099 41.6286 426.099 38.7921C426.099 35.9557 425.684 33.4305 424.854 31.2167C424.024 28.9337 422.847 27.0312 421.325 25.5092C419.873 23.918 418.143 22.7073 416.137 21.8771C414.2 21.0469 412.09 20.6318 409.807 20.6318C407.524 20.6318 405.379 21.0469 403.373 21.8771C401.436 22.7073 399.706 23.918 398.184 25.5092C396.731 27.0312 395.59 28.9337 394.76 31.2167C393.929 33.4305 393.514 35.9557 393.514 38.7921C393.514 41.6286 393.929 44.1883 394.76 46.4714C395.59 48.6852 396.731 50.5877 398.184 52.1789C399.706 53.7009 401.436 54.877 403.373 55.7072C405.379 56.5374 407.524 56.9525 409.807 56.9525Z"/>
        </mask>
        <path d="M40.7101 76.7732C34.8988 76.7732 29.5026 75.8738 24.5215 74.0751C19.6096 72.2071 15.3203 69.5782 11.6536 66.1883C8.05614 62.7984 5.25426 58.7858 3.24798 54.1506C1.24169 49.5154 0.238552 44.3959 0.238552 38.7921C0.238552 33.1884 1.24169 28.0689 3.24798 23.4337C5.25426 18.7985 8.05614 14.7859 11.6536 11.396C15.3203 8.00605 19.6096 5.41172 24.5215 3.61298C29.5026 1.74506 34.8988 0.811102 40.7101 0.811102C47.8359 0.811102 54.1315 2.05638 59.5969 4.54694C65.1315 7.0375 69.6975 10.635 73.295 15.3394L57.8327 29.1412C55.6881 26.4431 53.3013 24.3676 50.6724 22.9148C48.1126 21.3928 45.207 20.6318 41.9554 20.6318C39.3957 20.6318 37.0781 21.0469 35.0026 21.8771C32.9271 22.7073 31.1284 23.918 29.6064 25.5092C28.1536 27.1003 27.0121 29.0374 26.1819 31.3205C25.3517 33.5343 24.9366 36.0248 24.9366 38.7921C24.9366 41.5594 25.3517 44.0846 26.1819 46.3676C27.0121 48.5814 28.1536 50.4839 29.6064 52.0751C31.1284 53.6663 32.9271 54.877 35.0026 55.7072C37.0781 56.5374 39.3957 56.9525 41.9554 56.9525C45.207 56.9525 48.1126 56.226 50.6724 54.7732C53.3013 53.2512 55.6881 51.1412 57.8327 48.4431L73.295 62.2449C69.6975 66.8801 65.1315 70.4776 59.5969 73.0373C54.1315 75.5279 47.8359 76.7732 40.7101 76.7732ZM80.3661 75.1128V2.47147H115.338C122.118 2.47147 127.963 3.57839 132.875 5.79222C137.857 8.00605 141.696 11.1884 144.394 15.3394C147.092 19.4211 148.441 24.2639 148.441 29.8676C148.441 35.4714 147.092 40.3141 144.394 44.3959C141.696 48.4085 137.857 51.4871 132.875 53.6317C127.963 55.7764 122.118 56.8487 115.338 56.8487H93.9604L104.857 46.7827V75.1128H80.3661ZM123.847 75.1128L105.998 48.6506H131.941L149.998 75.1128H123.847ZM104.857 49.4808L93.9604 38.377H113.781C117.171 38.377 119.662 37.616 121.253 36.094C122.913 34.572 123.743 32.4966 123.743 29.8676C123.743 27.2387 122.913 25.1632 121.253 23.6412C119.662 22.1192 117.171 21.3582 113.781 21.3582H93.9604L104.857 10.2545V49.4808ZM175.355 75.1128V43.2544L180.959 57.8864L147.959 2.47147H173.799L196.11 40.3487H181.063L203.582 2.47147H227.242L194.449 57.8864L199.846 43.2544V75.1128H175.355ZM230.351 75.1128V2.47147H265.323C272.102 2.47147 277.948 3.57839 282.86 5.79222C287.841 8.00605 291.681 11.1884 294.379 15.3394C297.077 19.4211 298.426 24.2639 298.426 29.8676C298.426 35.4714 297.077 40.3141 294.379 44.3959C291.681 48.4776 287.841 51.66 282.86 53.943C277.948 56.1569 272.102 57.2638 265.323 57.2638H243.945L254.841 46.7827V75.1128H230.351ZM254.841 49.4808L243.945 38.377H263.766C267.156 38.377 269.646 37.616 271.238 36.094C272.898 34.572 273.728 32.4966 273.728 29.8676C273.728 27.2387 272.898 25.1632 271.238 23.6412C269.646 22.1192 267.156 21.3582 263.766 21.3582H243.945L254.841 10.2545V49.4808ZM320.61 75.1128V21.462H299.337V2.47147H366.374V21.462H345.101V75.1128H320.61ZM409.807 76.7732C403.926 76.7732 398.461 75.8392 393.41 73.9713C388.429 72.1034 384.105 69.4744 380.439 66.0845C376.772 62.6254 373.901 58.5782 371.826 53.943C369.819 49.3078 368.816 44.2575 368.816 38.7921C368.816 33.2576 369.819 28.2073 371.826 23.6412C373.901 19.006 376.772 14.9935 380.439 11.6035C384.105 8.14441 388.429 5.4809 393.41 3.61298C398.461 1.74506 403.926 0.811102 409.807 0.811102C415.756 0.811102 421.222 1.74506 426.203 3.61298C431.184 5.4809 435.508 8.14441 439.174 11.6035C442.841 14.9935 445.678 19.006 447.684 23.6412C449.759 28.2073 450.797 33.2576 450.797 38.7921C450.797 44.2575 449.759 49.3078 447.684 53.943C445.678 58.5782 442.841 62.6254 439.174 66.0845C435.508 69.4744 431.184 72.1034 426.203 73.9713C421.222 75.8392 415.756 76.7732 409.807 76.7732ZM409.807 56.9525C412.09 56.9525 414.2 56.5374 416.137 55.7072C418.143 54.877 419.873 53.7009 421.325 52.1789C422.847 50.5877 424.024 48.6852 424.854 46.4714C425.684 44.1883 426.099 41.6286 426.099 38.7921C426.099 35.9557 425.684 33.4305 424.854 31.2167C424.024 28.9337 422.847 27.0312 421.325 25.5092C419.873 23.918 418.143 22.7073 416.137 21.8771C414.2 21.0469 412.09 20.6318 409.807 20.6318C407.524 20.6318 405.379 21.0469 403.373 21.8771C401.436 22.7073 399.706 23.918 398.184 25.5092C396.731 27.0312 395.59 28.9337 394.76 31.2167C393.929 33.4305 393.514 35.9557 393.514 38.7921C393.514 41.6286 393.929 44.1883 394.76 46.4714C395.59 48.6852 396.731 50.5877 398.184 52.1789C399.706 53.7009 401.436 54.877 403.373 55.7072C405.379 56.5374 407.524 56.9525 409.807 56.9525Z" fill="white"/>
        <path d="M24.5215 74.0751L23.8106 75.9445L23.8264 75.9504L23.8422 75.9562L24.5215 74.0751ZM11.6536 66.1883L10.282 67.6439L10.2889 67.6504L10.2959 67.6568L11.6536 66.1883ZM3.24798 54.1506L1.41253 54.945L1.41253 54.945L3.24798 54.1506ZM3.24798 23.4337L1.41253 22.6392L1.41253 22.6392L3.24798 23.4337ZM11.6536 11.396L10.2959 9.92744L10.2889 9.93389L10.282 9.9404L11.6536 11.396ZM24.5215 3.61298L25.2092 5.49102L25.2165 5.48836L25.2238 5.48564L24.5215 3.61298ZM59.5969 4.54694L58.7675 6.36691L58.7762 6.37079L59.5969 4.54694ZM73.295 15.3394L74.6268 16.8314L76.0097 15.597L74.8837 14.1245L73.295 15.3394ZM57.8327 29.1412L56.2671 30.3857L57.5848 32.0434L59.1646 30.6333L57.8327 29.1412ZM50.6724 22.9148L49.6502 24.6339L49.6774 24.65L49.705 24.6653L50.6724 22.9148ZM35.0026 21.8771L35.7454 23.734L35.7454 23.734L35.0026 21.8771ZM29.6064 25.5092L28.1611 24.1267L28.1451 24.1435L28.1294 24.1606L29.6064 25.5092ZM26.1819 31.3205L28.0545 32.0227L28.058 32.0133L28.0615 32.0039L26.1819 31.3205ZM26.1819 46.3676L24.3023 47.0511L24.3057 47.0605L24.3092 47.0698L26.1819 46.3676ZM29.6064 52.0751L28.1294 53.4237L28.1451 53.4408L28.1611 53.4576L29.6064 52.0751ZM35.0026 55.7072L34.2598 57.5641L34.2598 57.5641L35.0026 55.7072ZM50.6724 54.7732L51.6596 56.5126L51.667 56.5084L51.6745 56.5041L50.6724 54.7732ZM57.8327 48.4431L59.1646 46.951L57.5848 45.5408L56.2671 47.1986L57.8327 48.4431ZM73.295 62.2449L74.8749 63.4712L76.0197 61.9962L74.6268 60.7528L73.295 62.2449ZM59.5969 73.0373L60.4262 74.8573L60.4364 74.8526L59.5969 73.0373ZM40.7101 74.7732C35.1079 74.7732 29.9439 73.9067 25.2008 72.194L23.8422 75.9562C29.0614 77.8409 34.6897 78.7732 40.7101 78.7732V74.7732ZM25.2324 72.2057C20.547 70.4239 16.4803 67.9269 13.0113 64.7197L10.2959 67.6568C14.1603 71.2295 18.6721 73.9904 23.8106 75.9445L25.2324 72.2057ZM13.0252 64.7327C9.63009 61.5335 6.98408 57.7473 5.08342 53.3561L1.41253 54.945C3.52445 59.8243 6.4822 64.0633 10.282 67.6439L13.0252 64.7327ZM5.08342 53.3561C3.19702 48.9979 2.23855 44.1526 2.23855 38.7921H-1.76145C-1.76145 44.6391 -0.713629 50.0329 1.41253 54.945L5.08342 53.3561ZM2.23855 38.7921C2.23855 33.4316 3.19702 28.5864 5.08342 24.2281L1.41253 22.6392C-0.713629 27.5514 -1.76145 32.9451 -1.76145 38.7921H2.23855ZM5.08342 24.2281C6.98408 19.837 9.63009 16.0508 13.0252 12.8516L10.282 9.9404C6.4822 13.521 3.52445 17.76 1.41253 22.6392L5.08342 24.2281ZM13.0113 12.8645C16.4747 9.6625 20.5335 7.20326 25.2092 5.49102L23.8338 1.73495C18.6857 3.62017 14.1658 6.3496 10.2959 9.92744L13.0113 12.8645ZM25.2238 5.48564C29.9605 3.70938 35.1165 2.8111 40.7101 2.8111V-1.1889C34.6812 -1.1889 29.0448 -0.219254 23.8193 1.74032L25.2238 5.48564ZM40.7101 2.8111C47.6024 2.8111 53.6065 4.01503 58.7675 6.36689L60.4262 2.727C54.6565 0.0977338 48.0694 -1.1889 40.7101 -1.1889V2.8111ZM58.7762 6.37079C64.016 8.72872 68.3154 12.1201 71.7062 16.5543L74.8837 14.1245C71.0795 9.14981 66.2469 5.34628 60.4176 2.7231L58.7762 6.37079ZM71.9631 13.8473L56.5009 27.6492L59.1646 30.6333L74.6268 16.8314L71.9631 13.8473ZM59.3984 27.8967C57.1136 25.0224 54.531 22.7622 51.6398 21.1643L49.705 24.6653C52.0716 25.9731 54.2625 27.8639 56.2671 30.3857L59.3984 27.8967ZM51.6945 21.1957C48.7975 19.4732 45.5327 18.6318 41.9554 18.6318V22.6318C44.8813 22.6318 47.4278 23.3124 49.6502 24.6339L51.6945 21.1957ZM41.9554 18.6318C39.1778 18.6318 36.6033 19.0828 34.2598 20.0201L35.7454 23.734C37.5529 23.011 39.6135 22.6318 41.9554 22.6318V18.6318ZM34.2598 20.0201C31.9231 20.9548 29.8838 22.3258 28.1611 24.1267L31.0517 26.8916C32.3731 25.5102 33.9312 24.4597 35.7454 23.734L34.2598 20.0201ZM28.1294 24.1606C26.4791 25.9681 25.2105 28.1393 24.3023 30.637L28.0615 32.0039C28.8136 29.9356 29.8281 28.2326 31.0834 26.8577L28.1294 24.1606ZM24.3092 30.6182C23.3818 33.0913 22.9366 35.8251 22.9366 38.7921H26.9366C26.9366 36.2246 27.3216 33.9773 28.0545 32.0227L24.3092 30.6182ZM22.9366 38.7921C22.9366 41.7605 23.3822 44.5208 24.3023 47.0511L28.0615 45.6841C27.3212 43.6484 26.9366 41.3584 26.9366 38.7921H22.9366ZM24.3092 47.0698C25.2202 49.499 26.4887 51.6267 28.1294 53.4237L31.0834 50.7266C29.8184 49.3412 28.804 47.6638 28.0545 45.6653L24.3092 47.0698ZM28.1611 53.4576C29.8838 55.2585 31.9231 56.6295 34.2598 57.5641L35.7454 53.8502C33.9312 53.1245 32.3731 52.0741 31.0517 50.6927L28.1611 53.4576ZM34.2598 57.5641C36.6033 58.5015 39.1778 58.9525 41.9554 58.9525V54.9525C39.6135 54.9525 37.5529 54.5732 35.7454 53.8502L34.2598 57.5641ZM41.9554 58.9525C45.5159 58.9525 48.7681 58.1537 51.6596 56.5126L49.6852 53.0339C47.4571 54.2984 44.898 54.9525 41.9554 54.9525V58.9525ZM51.6745 56.5041C54.5472 54.8409 57.1188 52.5554 59.3984 49.6875L56.2671 47.1986C54.2574 49.7269 52.0554 51.6615 49.6703 53.0424L51.6745 56.5041ZM56.5009 49.9351L71.9631 63.737L74.6268 60.7528L59.1646 46.951L56.5009 49.9351ZM71.715 61.0187C68.3215 65.3911 64.0133 68.7912 58.7573 71.2221L60.4364 74.8526C66.2496 72.164 71.0735 68.3692 74.8749 63.4712L71.715 61.0187ZM58.7675 71.2174C53.6065 73.5692 47.6024 74.7732 40.7101 74.7732V78.7732C48.0694 78.7732 54.6565 77.4865 60.4262 74.8573L58.7675 71.2174ZM80.3661 75.1128H78.3661V77.1128H80.3661V75.1128ZM80.3661 2.47147V0.471473H78.3661V2.47147H80.3661ZM132.875 5.79222L132.054 7.61561L132.063 7.61984L132.875 5.79222ZM144.394 15.3394L142.717 16.4293L142.722 16.4358L142.726 16.4422L144.394 15.3394ZM144.394 44.3959L146.054 45.5119L146.058 45.5053L146.063 45.4988L144.394 44.3959ZM132.875 53.6317L132.085 51.7947L132.075 51.7988L132.875 53.6317ZM93.9604 56.8487L92.6033 55.3796L88.8481 58.8487H93.9604V56.8487ZM104.857 46.7827H106.857V42.2123L103.499 45.3136L104.857 46.7827ZM104.857 75.1128V77.1128H106.857V75.1128H104.857ZM123.847 75.1128L122.189 76.2312L122.784 77.1128H123.847V75.1128ZM105.998 48.6506V46.6506H102.237L104.34 49.769L105.998 48.6506ZM131.941 48.6506L133.594 47.5233L132.998 46.6506H131.941V48.6506ZM149.998 75.1128V77.1128H153.784L151.65 73.9855L149.998 75.1128ZM104.857 49.4808L103.429 50.8816L106.857 54.3744V49.4808H104.857ZM93.9604 38.377V36.377H89.1957L92.5329 39.7779L93.9604 38.377ZM121.253 36.094L119.901 34.6197L119.886 34.6341L119.87 34.6487L121.253 36.094ZM121.253 23.6412L119.87 25.0865L119.886 25.1012L119.901 25.1155L121.253 23.6412ZM93.9604 21.3582L92.5329 19.9574L89.1957 23.3582H93.9604V21.3582ZM104.857 10.2545H106.857V5.36089L103.429 8.85367L104.857 10.2545ZM82.3661 75.1128V2.47147H78.3661V75.1128H82.3661ZM80.3661 4.47147H115.338V0.471473H80.3661V4.47147ZM115.338 4.47147C121.905 4.47147 127.458 5.54416 132.054 7.61558L133.697 3.96886C128.469 1.61262 122.33 0.471473 115.338 0.471473V4.47147ZM132.063 7.61984C136.728 9.69306 140.251 12.6352 142.717 16.4293L146.071 14.2494C143.141 9.74171 138.985 6.31904 133.688 3.9646L132.063 7.61984ZM142.726 16.4422C145.177 20.1511 146.441 24.5974 146.441 29.8676H150.441C150.441 23.9303 149.007 18.6911 146.063 14.2365L142.726 16.4422ZM146.441 29.8676C146.441 35.1378 145.177 39.5841 142.726 43.293L146.063 45.4988C149.007 41.0442 150.441 35.805 150.441 29.8676H146.441ZM142.735 43.2799C140.276 46.9359 136.757 49.7829 132.085 51.7947L133.666 55.4687C138.956 53.1912 143.116 49.881 146.054 45.5119L142.735 43.2799ZM132.075 51.7988C127.473 53.8082 121.913 54.8487 115.338 54.8487V58.8487C122.323 58.8487 128.454 57.7445 133.676 55.4646L132.075 51.7988ZM115.338 54.8487H93.9604V58.8487H115.338V54.8487ZM95.3176 58.3178L106.214 48.2518L103.499 45.3136L92.6033 55.3796L95.3176 58.3178ZM102.857 46.7827V75.1128H106.857V46.7827H102.857ZM104.857 73.1128H80.3661V77.1128H104.857V73.1128ZM125.505 73.9944L107.656 47.5322L104.34 49.769L122.189 76.2312L125.505 73.9944ZM105.998 50.6506H131.941V46.6506H105.998V50.6506ZM130.289 49.7779L148.346 76.2401L151.65 73.9855L133.594 47.5233L130.289 49.7779ZM149.998 73.1128H123.847V77.1128H149.998V73.1128ZM106.284 48.08L95.3879 36.9762L92.5329 39.7779L103.429 50.8816L106.284 48.08ZM93.9604 40.377H113.781V36.377H93.9604V40.377ZM113.781 40.377C117.416 40.377 120.514 39.5682 122.635 37.5393L119.87 34.6487C118.809 35.6639 116.926 36.377 113.781 36.377V40.377ZM122.604 37.5683C124.748 35.6033 125.743 32.9546 125.743 29.8676H121.743C121.743 32.0385 121.078 33.5407 119.901 34.6197L122.604 37.5683ZM125.743 29.8676C125.743 26.7807 124.748 24.1319 122.604 22.1669L119.901 25.1155C121.078 26.1945 121.743 27.6967 121.743 29.8676H125.743ZM122.635 22.1959C120.514 20.1671 117.416 19.3582 113.781 19.3582V23.3582C116.926 23.3582 118.809 24.0713 119.87 25.0865L122.635 22.1959ZM113.781 19.3582H93.9604V23.3582H113.781V19.3582ZM95.3879 22.759L106.284 11.6553L103.429 8.85367L92.5329 19.9574L95.3879 22.759ZM102.857 10.2545V49.4808H106.857V10.2545H102.857ZM175.355 75.1128H173.355V77.1128H175.355V75.1128ZM175.355 43.2544L177.223 42.5391L173.355 43.2544H175.355ZM180.959 57.8864L179.241 58.9097L182.827 57.1711L180.959 57.8864ZM147.959 2.47147V0.471473H144.44L146.241 3.49478L147.959 2.47147ZM173.799 2.47147L175.522 1.4564L174.942 0.471473H173.799V2.47147ZM196.11 40.3487V42.3487H199.609L197.833 39.3337L196.11 40.3487ZM181.063 40.3487L179.344 39.3267L177.547 42.3487H181.063V40.3487ZM203.582 2.47147V0.471473H202.444L201.862 1.44942L203.582 2.47147ZM227.242 2.47147L228.963 3.49002L230.749 0.471473H227.242V2.47147ZM194.449 57.8864L192.573 57.1944L196.171 58.905L194.449 57.8864ZM199.846 43.2544H201.846L197.969 42.5624L199.846 43.2544ZM199.846 75.1128V77.1128H201.846V75.1128H199.846ZM177.355 75.1128V43.2544H173.355V75.1128H177.355ZM173.487 43.9697L179.091 58.6017L182.827 57.1711L177.223 42.5391L173.487 43.9697ZM182.677 56.8631L149.677 1.44817L146.241 3.49478L179.241 58.9097L182.677 56.8631ZM147.959 4.47147H173.799V0.471473H147.959V4.47147ZM172.075 3.48654L194.387 41.3638L197.833 39.3337L175.522 1.4564L172.075 3.48654ZM196.11 38.3487H181.063V42.3487H196.11V38.3487ZM182.782 41.3708L205.301 3.49353L201.862 1.44942L179.344 39.3267L182.782 41.3708ZM203.582 4.47147H227.242V0.471473H203.582V4.47147ZM225.521 1.45293L192.728 56.8679L196.171 58.905L228.963 3.49002L225.521 1.45293ZM196.326 58.5785L201.722 43.9464L197.969 42.5624L192.573 57.1944L196.326 58.5785ZM197.846 43.2544V75.1128H201.846V43.2544H197.846ZM199.846 73.1128H175.355V77.1128H199.846V73.1128ZM230.351 75.1128H228.351V77.1128H230.351V75.1128ZM230.351 2.47147V0.471473H228.351V2.47147H230.351ZM282.86 5.79222L282.038 7.61561L282.048 7.61984L282.86 5.79222ZM294.379 15.3394L292.702 16.4293L292.706 16.4358L292.711 16.4422L294.379 15.3394ZM294.379 44.3959L292.711 43.293L292.711 43.293L294.379 44.3959ZM282.86 53.943L283.682 55.7664L283.694 55.7612L282.86 53.943ZM243.945 57.2638L242.559 55.8224L238.981 59.2638H243.945V57.2638ZM254.841 46.7827H256.841V42.0838L253.455 45.3413L254.841 46.7827ZM254.841 75.1128V77.1128H256.841V75.1128H254.841ZM254.841 49.4808L253.414 50.8816L256.841 54.3744V49.4808H254.841ZM243.945 38.377V36.377H239.181L242.518 39.7779L243.945 38.377ZM271.238 36.094L269.886 34.6197L269.871 34.6341L269.855 34.6487L271.238 36.094ZM271.238 23.6412L269.855 25.0865L269.871 25.1012L269.886 25.1155L271.238 23.6412ZM243.945 21.3582L242.518 19.9574L239.181 23.3582H243.945V21.3582ZM254.841 10.2545H256.841V5.36089L253.414 8.85367L254.841 10.2545ZM232.351 75.1128V2.47147H228.351V75.1128H232.351ZM230.351 4.47147H265.323V0.471473H230.351V4.47147ZM265.323 4.47147C271.89 4.47147 277.443 5.54416 282.038 7.61558L283.682 3.96886C278.454 1.61262 272.315 0.471473 265.323 0.471473V4.47147ZM282.048 7.61984C286.713 9.69306 290.236 12.6352 292.702 16.4293L296.056 14.2494C293.126 9.74171 288.97 6.31904 283.673 3.9646L282.048 7.61984ZM292.711 16.4422C295.162 20.1511 296.426 24.5974 296.426 29.8676H300.426C300.426 23.9303 298.992 18.6911 296.048 14.2365L292.711 16.4422ZM296.426 29.8676C296.426 35.1378 295.162 39.5841 292.711 43.293L296.048 45.4988C298.992 41.0442 300.426 35.805 300.426 29.8676H296.426ZM292.711 43.293C290.243 47.0267 286.71 49.9784 282.027 52.1249L283.694 55.7612C288.973 53.3416 293.119 49.9286 296.048 45.4988L292.711 43.293ZM282.038 52.1197C277.443 54.1911 271.89 55.2638 265.323 55.2638V59.2638C272.315 59.2638 278.454 58.1226 283.682 55.7664L282.038 52.1197ZM265.323 55.2638H243.945V59.2638H265.323V55.2638ZM245.332 58.7052L256.228 48.2241L253.455 45.3413L242.559 55.8224L245.332 58.7052ZM252.841 46.7827V75.1128H256.841V46.7827H252.841ZM254.841 73.1128H230.351V77.1128H254.841V73.1128ZM256.269 48.08L245.373 36.9762L242.518 39.7779L253.414 50.8816L256.269 48.08ZM243.945 40.377H263.766V36.377H243.945V40.377ZM263.766 40.377C267.401 40.377 270.499 39.5682 272.62 37.5393L269.855 34.6487C268.794 35.6639 266.911 36.377 263.766 36.377V40.377ZM272.589 37.5683C274.733 35.6033 275.728 32.9546 275.728 29.8676H271.728C271.728 32.0385 271.063 33.5407 269.886 34.6197L272.589 37.5683ZM275.728 29.8676C275.728 26.7807 274.733 24.1319 272.589 22.1669L269.886 25.1155C271.063 26.1945 271.728 27.6967 271.728 29.8676H275.728ZM272.62 22.1959C270.499 20.1671 267.401 19.3582 263.766 19.3582V23.3582C266.911 23.3582 268.794 24.0713 269.855 25.0865L272.62 22.1959ZM263.766 19.3582H243.945V23.3582H263.766V19.3582ZM245.373 22.759L256.269 11.6553L253.414 8.85367L242.518 19.9574L245.373 22.759ZM252.841 10.2545V49.4808H256.841V10.2545H252.841ZM320.61 75.1128H318.61V77.1128H320.61V75.1128ZM320.61 21.462H322.61V19.462H320.61V21.462ZM299.337 21.462H297.337V23.462H299.337V21.462ZM299.337 2.47147V0.471473H297.337V2.47147H299.337ZM366.374 2.47147H368.374V0.471473H366.374V2.47147ZM366.374 21.462V23.462H368.374V21.462H366.374ZM345.101 21.462V19.462H343.101V21.462H345.101ZM345.101 75.1128V77.1128H347.101V75.1128H345.101ZM322.61 75.1128V21.462H318.61V75.1128H322.61ZM320.61 19.462H299.337V23.462H320.61V19.462ZM301.337 21.462V2.47147H297.337V21.462H301.337ZM299.337 4.47147H366.374V0.471473H299.337V4.47147ZM364.374 2.47147V21.462H368.374V2.47147H364.374ZM366.374 19.462H345.101V23.462H366.374V19.462ZM343.101 21.462V75.1128H347.101V21.462H343.101ZM345.101 73.1128H320.61V77.1128H345.101V73.1128ZM393.41 73.9713L392.708 75.844L392.717 75.8471L393.41 73.9713ZM380.439 66.0845L379.066 67.5393L379.074 67.5462L379.081 67.5531L380.439 66.0845ZM371.826 53.943L369.99 54.7375L369.995 54.749L370 54.7604L371.826 53.943ZM371.826 23.6412L370 22.8239L369.995 22.8367L371.826 23.6412ZM380.439 11.6035L381.797 13.0721L381.804 13.0652L381.811 13.0583L380.439 11.6035ZM393.41 3.61298L392.717 1.73716L392.708 1.74032L393.41 3.61298ZM426.203 3.61298L425.501 5.48564L425.501 5.48564L426.203 3.61298ZM439.174 11.6035L437.802 13.0583L437.809 13.0652L437.817 13.0721L439.174 11.6035ZM447.684 23.6412L445.848 24.4357L445.856 24.4523L445.863 24.4688L447.684 23.6412ZM447.684 53.943L445.859 53.1257L445.853 53.1371L445.848 53.1486L447.684 53.943ZM439.174 66.0845L440.532 67.5531L440.54 67.5462L440.547 67.5393L439.174 66.0845ZM426.203 73.9713L425.501 72.0986L425.501 72.0986L426.203 73.9713ZM416.137 55.7072L415.372 53.8592L415.361 53.8639L415.349 53.8689L416.137 55.7072ZM421.325 52.1789L419.88 50.7964L419.879 50.7979L421.325 52.1789ZM424.854 46.4714L426.726 47.1736L426.73 47.1642L426.733 47.1548L424.854 46.4714ZM424.854 31.2167L422.974 31.9002L422.978 31.9096L422.981 31.9189L424.854 31.2167ZM421.325 25.5092L419.849 26.8577L419.879 26.8912L419.911 26.9234L421.325 25.5092ZM416.137 21.8771L415.349 23.7154L415.361 23.7203L415.372 23.7251L416.137 21.8771ZM403.373 21.8771L402.608 20.0291L402.596 20.0339L402.585 20.0388L403.373 21.8771ZM398.184 25.5092L396.739 24.1267L396.737 24.1282L398.184 25.5092ZM394.76 31.2167L396.632 31.9189L396.636 31.9096L396.639 31.9002L394.76 31.2167ZM394.76 46.4714L392.88 47.1548L392.883 47.1642L392.887 47.1736L394.76 46.4714ZM398.184 52.1789L396.707 53.5274L396.738 53.561L396.77 53.5931L398.184 52.1789ZM403.373 55.7072L402.585 57.5455L402.596 57.5504L402.608 57.5552L403.373 55.7072ZM409.807 74.7732C404.141 74.7732 398.913 73.874 394.104 72.0955L392.717 75.8471C398.009 77.8044 403.711 78.7732 409.807 78.7732V74.7732ZM394.113 72.0986C389.358 70.3157 385.261 67.8187 381.797 64.616L379.081 67.5531C382.95 71.1301 387.501 73.8911 392.708 75.8439L394.113 72.0986ZM381.811 64.6297C378.338 61.3526 375.62 57.5225 373.651 53.1257L370 54.7604C372.182 59.6339 375.207 63.8982 379.066 67.5393L381.811 64.6297ZM373.661 53.1486C371.772 48.7842 370.816 44.0069 370.816 38.7921H366.816C366.816 44.5081 367.867 49.8315 369.99 54.7375L373.661 53.1486ZM370.816 38.7921C370.816 33.504 371.773 28.7317 373.657 24.4458L369.995 22.8367C367.865 27.6828 366.816 33.0111 366.816 38.7921H370.816ZM373.651 24.4586C375.618 20.0655 378.332 16.2755 381.797 13.0721L379.081 10.135C375.213 13.7114 372.184 17.9466 370 22.8239L373.651 24.4586ZM381.811 13.0583C385.274 9.79164 389.367 7.26545 394.113 5.48564L392.708 1.74032C387.492 3.69635 382.937 6.49718 379.066 10.1487L381.811 13.0583ZM394.104 5.48879C398.913 3.71025 404.141 2.8111 409.807 2.8111V-1.1889C403.711 -1.1889 398.009 -0.220128 392.717 1.73718L394.104 5.48879ZM409.807 2.8111C415.545 2.8111 420.769 3.7113 425.501 5.48564L426.905 1.74032C421.674 -0.221178 415.968 -1.1889 409.807 -1.1889V2.8111ZM425.501 5.48564C430.247 7.26545 434.339 9.79164 437.802 13.0583L440.547 10.1487C436.676 6.49718 432.121 3.69635 426.905 1.74032L425.501 5.48564ZM437.817 13.0721C441.277 16.2708 443.951 20.053 445.848 24.4357L449.519 22.8468C447.404 17.9591 444.406 13.7161 440.532 10.135L437.817 13.0721ZM445.863 24.4688C447.809 28.7491 448.797 33.5133 448.797 38.7921H452.797C452.797 33.0018 451.71 27.6654 449.505 22.8136L445.863 24.4688ZM448.797 38.7921C448.797 43.9976 447.81 48.7667 445.859 53.1257L449.509 54.7604C451.708 49.8489 452.797 44.5175 452.797 38.7921H448.797ZM445.848 53.1486C443.95 57.535 441.271 61.3574 437.802 64.6297L440.547 67.5393C444.412 63.8934 447.405 59.6215 449.519 54.7375L445.848 53.1486ZM437.817 64.616C434.353 67.8187 430.255 70.3157 425.501 72.0986L426.905 75.8439C432.113 73.8911 436.663 71.1301 440.532 67.5531L437.817 64.616ZM425.501 72.0986C420.769 73.873 415.545 74.7732 409.807 74.7732V78.7732C415.968 78.7732 421.674 77.8054 426.905 75.8439L425.501 72.0986ZM409.807 58.9525C412.338 58.9525 414.718 58.491 416.925 57.5455L415.349 53.8689C413.681 54.5838 411.842 54.9525 409.807 54.9525V58.9525ZM416.902 57.5552C419.157 56.622 421.121 55.2898 422.772 53.5598L419.879 50.7979C418.624 52.112 417.129 53.132 415.372 53.8592L416.902 57.5552ZM422.771 53.5613C424.493 51.7606 425.808 49.6218 426.726 47.1736L422.981 45.7691C422.239 47.7486 421.202 49.4148 419.88 50.7964L422.771 53.5613ZM426.733 47.1548C427.655 44.6194 428.099 41.8234 428.099 38.7921H424.099C424.099 41.4338 423.713 43.7573 422.974 45.7879L426.733 47.1548ZM428.099 38.7921C428.099 35.7625 427.656 32.9927 426.726 30.5144L422.981 31.9189C423.712 33.8683 424.099 36.1489 424.099 38.7921H428.099ZM426.733 30.5332C425.816 28.011 424.493 25.8487 422.74 24.0949L419.911 26.9234C421.202 28.2136 422.231 29.8564 422.974 31.9002L426.733 30.5332ZM422.802 24.1606C421.15 22.351 419.177 20.9706 416.902 20.0291L415.372 23.7251C417.109 24.444 418.595 25.485 419.849 26.8577L422.802 24.1606ZM416.925 20.0388C414.718 19.0933 412.338 18.6318 409.807 18.6318V22.6318C411.842 22.6318 413.681 23.0005 415.349 23.7154L416.925 20.0388ZM409.807 18.6318C407.275 18.6318 404.869 19.0934 402.608 20.0291L404.137 23.7251C405.889 23.0004 407.772 22.6318 409.807 22.6318V18.6318ZM402.585 20.0388C400.389 20.9798 398.438 22.3497 396.739 24.1267L399.629 26.8916C400.974 25.4862 402.482 24.4347 404.161 23.7154L402.585 20.0388ZM396.737 24.1282C395.066 25.8788 393.79 28.0302 392.88 30.5332L396.639 31.9002C397.389 29.8372 398.396 28.1835 399.631 26.8901L396.737 24.1282ZM392.887 30.5144C391.958 32.9927 391.514 35.7625 391.514 38.7921H395.514C395.514 36.1489 395.901 33.8683 396.632 31.9189L392.887 30.5144ZM391.514 38.7921C391.514 41.8234 391.958 44.6194 392.88 47.1548L396.639 45.7879C395.901 43.7573 395.514 41.4338 395.514 38.7921H391.514ZM392.887 47.1736C393.798 49.6028 395.066 51.7305 396.707 53.5274L399.661 50.8304C398.396 49.4449 397.382 47.7676 396.632 45.7691L392.887 47.1736ZM396.77 53.5931C398.468 55.2911 400.409 56.6129 402.585 57.5455L404.161 53.8689C402.462 53.1411 400.944 52.1107 399.598 50.7647L396.77 53.5931ZM402.608 57.5552C404.869 58.4909 407.275 58.9525 409.807 58.9525V54.9525C407.772 54.9525 405.889 54.5839 404.137 53.8591L402.608 57.5552Z" fill="white" mask="url(#path-1-outside-1_2033_39)"/>
    </symbol>
        

    <symbol id="guides" width="468" height="110" viewBox="0 0 468 110" fill="none" xmlns="http://www.w3.org/2000/svg">
        <mask id="path-1-outside-1_2033_38" maskUnits="userSpaceOnUse" x="-2" y="-1.88721" width="472" height="114" fill="black">
            <rect fill="white" x="-2" y="-1.88721" width="472" height="114"/>
            <path d="M0.586335 95.1128V22.4715H55.8975V41.462H19.3693L24.6617 36.1696V95.1128H0.586335ZM43.4115 95.1128L75.1661 22.4715H99.2415L130.996 95.1128H105.675L82.2227 34.0941H91.7698L68.3171 95.1128H43.4115ZM62.2982 82.4524L68.5246 64.811H101.94L108.166 82.4524H62.2982ZM137.701 95.1128V22.4715H161.776V60.245L186.786 22.4715H209.823V95.1128H185.748V57.4431L160.842 95.1128H137.701ZM173.71 18.3205C165.478 18.3205 159.632 16.7985 156.173 13.7545C152.783 10.6413 151.088 6.21365 151.088 0.47153H167.38C167.38 2.75454 167.83 4.44951 168.729 5.55642C169.698 6.59416 171.358 7.11302 173.71 7.11302C176.132 7.11302 177.827 6.59416 178.795 5.55642C179.764 4.44951 180.248 2.75454 180.248 0.47153H196.54C196.54 6.21365 194.776 10.6413 191.248 13.7545C187.789 16.7985 181.943 18.3205 173.71 18.3205ZM270.566 84.7355V41.462H253.858L253.651 46.6507C253.512 50.4557 253.27 54.0186 252.924 57.3393C252.578 60.6601 252.094 63.7041 251.471 66.4714C250.918 69.2386 250.191 71.6946 249.292 73.8393C248.393 75.9147 247.286 77.6443 245.971 79.0279L220.132 76.1223C222.415 76.1223 224.283 75.3613 225.736 73.8393C227.258 72.2481 228.468 70.0688 229.368 67.3015C230.267 64.4651 230.924 61.1443 231.339 57.3393C231.824 53.4651 232.169 49.2104 232.377 44.5752L233.207 22.4715H294.641V84.7355H270.566ZM218.056 109.33V76.1223H304.188V109.33H281.773V95.1128H240.471V109.33H218.056ZM349.356 96.7732C343.476 96.7732 338.01 95.8392 332.96 93.9713C327.979 92.1034 323.655 89.4744 319.988 86.0845C316.322 82.6254 313.451 78.5782 311.375 73.943C309.369 69.3078 308.366 64.2575 308.366 58.7921C308.366 53.2576 309.369 48.2073 311.375 43.6412C313.451 39.006 316.322 34.9935 319.988 31.6035C323.655 28.1444 327.979 25.4809 332.96 23.613C338.01 21.7451 343.476 20.8111 349.356 20.8111C355.306 20.8111 360.771 21.7451 365.752 23.613C370.734 25.4809 375.057 28.1444 378.724 31.6035C382.391 34.9935 385.227 39.006 387.234 43.6412C389.309 48.2073 390.347 53.2576 390.347 58.7921C390.347 64.2575 389.309 69.3078 387.234 73.943C385.227 78.5782 382.391 82.6254 378.724 86.0845C375.057 89.4744 370.734 92.1034 365.752 93.9713C360.771 95.8392 355.306 96.7732 349.356 96.7732ZM349.356 76.9525C351.639 76.9525 353.749 76.5374 355.686 75.7072C357.693 74.877 359.422 73.7009 360.875 72.1789C362.397 70.5877 363.573 68.6852 364.403 66.4714C365.234 64.1883 365.649 61.6286 365.649 58.7921C365.649 55.9557 365.234 53.4305 364.403 51.2167C363.573 48.9337 362.397 47.0312 360.875 45.5092C359.422 43.918 357.693 42.7073 355.686 41.8771C353.749 41.0469 351.639 40.6318 349.356 40.6318C347.073 40.6318 344.929 41.0469 342.922 41.8771C340.985 42.7073 339.256 43.918 337.734 45.5092C336.281 47.0312 335.139 48.9337 334.309 51.2167C333.479 53.4305 333.064 55.9557 333.064 58.7921C333.064 61.6286 333.479 64.1883 334.309 66.4714C335.139 68.6852 336.281 70.5877 337.734 72.1789C339.256 73.7009 340.985 74.877 342.922 75.7072C344.929 76.5374 347.073 76.9525 349.356 76.9525ZM399.161 95.1128V22.4715H436.001C444.994 22.4715 451.947 24.1318 456.859 27.4526C461.84 30.7733 464.331 35.4431 464.331 41.462C464.331 47.3425 462.048 52.0123 457.482 55.4714C452.916 58.8613 446.758 60.5563 439.01 60.5563L441.085 54.9525C449.318 54.9525 455.787 56.5783 460.491 59.8299C465.195 63.0814 467.548 67.8204 467.548 74.0468C467.548 80.4808 464.988 85.6002 459.868 89.4053C454.749 93.2103 447.45 95.1128 437.972 95.1128H399.161ZM423.236 77.9902H436.831C438.837 77.9902 440.324 77.5059 441.293 76.5374C442.331 75.4996 442.85 74.0468 442.85 72.1789C442.85 70.311 442.331 68.9273 441.293 68.028C440.324 67.0594 438.837 66.5751 436.831 66.5751H423.236V77.9902ZM423.236 50.3865H433.614C435.689 50.3865 437.211 49.9368 438.18 49.0374C439.148 48.1381 439.633 46.8236 439.633 45.0941C439.633 43.2953 439.148 41.9463 438.18 41.0469C437.211 40.0783 435.689 39.5941 433.614 39.5941H423.236V50.3865Z"/>
        </mask>
        <path d="M0.586335 95.1128H-1.41367V97.1128H0.586335V95.1128ZM0.586335 22.4715V20.4715H-1.41367V22.4715H0.586335ZM55.8975 22.4715H57.8975V20.4715H55.8975V22.4715ZM55.8975 41.462V43.462H57.8975V41.462H55.8975ZM19.3693 41.462L17.9551 40.0478L14.5409 43.462H19.3693V41.462ZM24.6617 36.1696H26.6617V31.3411L23.2475 34.7553L24.6617 36.1696ZM24.6617 95.1128V97.1128H26.6617V95.1128H24.6617ZM2.58633 95.1128V22.4715H-1.41367V95.1128H2.58633ZM0.586335 24.4715H55.8975V20.4715H0.586335V24.4715ZM53.8975 22.4715V41.462H57.8975V22.4715H53.8975ZM55.8975 39.462H19.3693V43.462H55.8975V39.462ZM20.7835 42.8762L26.076 37.5838L23.2475 34.7553L17.9551 40.0478L20.7835 42.8762ZM22.6617 36.1696V95.1128H26.6617V36.1696H22.6617ZM24.6617 93.1128H0.586335V97.1128H24.6617V93.1128ZM43.4115 95.1128L41.5789 94.3117L40.3544 97.1128H43.4115V95.1128ZM75.1661 22.4715V20.4715H73.8576L73.3335 21.6704L75.1661 22.4715ZM99.2415 22.4715L101.074 21.6704L100.55 20.4715H99.2415V22.4715ZM130.996 95.1128V97.1128H134.053L132.829 94.3117L130.996 95.1128ZM105.675 95.1128L103.809 95.8303L104.302 97.1128H105.675V95.1128ZM82.2227 34.0941V32.0941H79.3113L80.3558 34.8116L82.2227 34.0941ZM91.7698 34.0941L93.6367 34.8116L94.6812 32.0941H91.7698V34.0941ZM68.3171 95.1128V97.1128H69.691L70.1839 95.8303L68.3171 95.1128ZM62.2982 82.4524L60.4122 81.7868L59.4714 84.4524H62.2982V82.4524ZM68.5246 64.811V62.811H67.1096L66.6386 64.1453L68.5246 64.811ZM101.94 64.811L103.826 64.1453L103.355 62.811H101.94V64.811ZM108.166 82.4524V84.4524H110.993L110.052 81.7868L108.166 82.4524ZM45.244 95.9139L76.9987 23.2726L73.3335 21.6704L41.5789 94.3117L45.244 95.9139ZM75.1661 24.4715H99.2415V20.4715H75.1661V24.4715ZM97.409 23.2726L129.164 95.9139L132.829 94.3117L101.074 21.6704L97.409 23.2726ZM130.996 93.1128H105.675V97.1128H130.996V93.1128ZM107.542 94.3953L84.0895 33.3766L80.3558 34.8116L103.809 95.8303L107.542 94.3953ZM82.2227 36.0941H91.7698V32.0941H82.2227V36.0941ZM89.903 33.3766L66.4502 94.3953L70.1839 95.8303L93.6367 34.8116L89.903 33.3766ZM68.3171 93.1128H43.4115V97.1128H68.3171V93.1128ZM64.1842 83.1181L70.4106 65.4766L66.6386 64.1453L60.4122 81.7868L64.1842 83.1181ZM68.5246 66.811H101.94V62.811H68.5246V66.811ZM100.054 65.4766L106.28 83.1181L110.052 81.7868L103.826 64.1453L100.054 65.4766ZM108.166 80.4524H62.2982V84.4524H108.166V80.4524ZM137.701 95.1128H135.701V97.1128H137.701V95.1128ZM137.701 22.4715V20.4715H135.701V22.4715H137.701ZM161.776 22.4715H163.776V20.4715H161.776V22.4715ZM161.776 60.245H159.776V66.8885L163.444 61.3491L161.776 60.245ZM186.786 22.4715V20.4715H185.711L185.118 21.3674L186.786 22.4715ZM209.823 22.4715H211.823V20.4715H209.823V22.4715ZM209.823 95.1128V97.1128H211.823V95.1128H209.823ZM185.748 95.1128H183.748V97.1128H185.748V95.1128ZM185.748 57.4431H187.748V50.7917L184.08 56.3401L185.748 57.4431ZM160.842 95.1128V97.1128H161.918L162.511 96.2158L160.842 95.1128ZM156.173 13.7545L154.82 15.2276L154.835 15.2419L154.851 15.2559L156.173 13.7545ZM151.088 0.47153V-1.52847H149.088V0.47153H151.088ZM167.38 0.47153H169.38V-1.52847H167.38V0.47153ZM168.729 5.55642L167.177 6.81761L167.22 6.87088L167.267 6.92106L168.729 5.55642ZM178.795 5.55642L180.257 6.92106L180.279 6.89759L180.3 6.87343L178.795 5.55642ZM180.248 0.47153V-1.52847H178.248V0.47153H180.248ZM196.54 0.47153H198.54V-1.52847H196.54V0.47153ZM191.248 13.7545L192.569 15.2559L192.571 15.2542L191.248 13.7545ZM139.701 95.1128V22.4715H135.701V95.1128H139.701ZM137.701 24.4715H161.776V20.4715H137.701V24.4715ZM159.776 22.4715V60.245H163.776V22.4715H159.776ZM163.444 61.3491L188.453 23.5756L185.118 21.3674L160.109 59.1409L163.444 61.3491ZM186.786 24.4715H209.823V20.4715H186.786V24.4715ZM207.823 22.4715V95.1128H211.823V22.4715H207.823ZM209.823 93.1128H185.748V97.1128H209.823V93.1128ZM187.748 95.1128V57.4431H183.748V95.1128H187.748ZM184.08 56.3401L159.174 94.0098L162.511 96.2158L187.416 58.5461L184.08 56.3401ZM160.842 93.1128H137.701V97.1128H160.842V93.1128ZM173.71 16.3205C165.62 16.3205 160.393 14.8044 157.494 12.2531L154.851 15.2559C158.87 18.7927 165.336 20.3205 173.71 20.3205V16.3205ZM157.525 12.2815C154.646 9.63702 153.088 5.80224 153.088 0.47153H149.088C149.088 6.62507 150.919 11.6456 154.82 15.2276L157.525 12.2815ZM151.088 2.47153H167.38V-1.52847H151.088V2.47153ZM165.38 0.47153C165.38 2.95593 165.859 5.19538 167.177 6.81761L170.281 4.29524C169.801 3.70363 169.38 2.55316 169.38 0.47153H165.38ZM167.267 6.92106C168.8 8.56317 171.153 9.11302 173.71 9.11302V5.11302C171.563 5.11302 170.596 4.62514 170.191 4.19179L167.267 6.92106ZM173.71 9.11302C176.316 9.11302 178.716 8.57234 180.257 6.92106L177.333 4.19179C176.937 4.61597 175.947 5.11302 173.71 5.11302V9.11302ZM180.3 6.87343C181.723 5.24698 182.248 2.98324 182.248 0.47153H178.248C178.248 2.52584 177.804 3.65203 177.29 4.23942L180.3 6.87343ZM180.248 2.47153H196.54V-1.52847H180.248V2.47153ZM194.54 0.47153C194.54 5.77719 192.929 9.6036 189.925 12.2548L192.571 15.2542C196.623 11.679 198.54 6.65012 198.54 0.47153H194.54ZM189.927 12.2531C187.027 14.8044 181.801 16.3205 173.71 16.3205V20.3205C182.085 20.3205 188.55 18.7927 192.569 15.2559L189.927 12.2531ZM270.566 84.7355H268.566V86.7355H270.566V84.7355ZM270.566 41.462H272.566V39.462H270.566V41.462ZM253.858 41.462V39.462H251.936L251.86 41.3821L253.858 41.462ZM253.651 46.6507L251.652 46.5707L251.652 46.578L253.651 46.6507ZM251.471 66.4714L249.52 66.0323L249.515 66.0557L249.51 66.0791L251.471 66.4714ZM249.292 73.8393L251.127 74.6345L251.132 74.6236L251.136 74.6127L249.292 73.8393ZM245.971 79.0279L245.748 81.0154L246.736 81.1266L247.421 80.4054L245.971 79.0279ZM220.132 76.1223V74.1223L219.908 78.1097L220.132 76.1223ZM225.736 73.8393L224.29 72.4568L224.289 72.4583L225.736 73.8393ZM229.368 67.3015L231.27 67.9197L231.272 67.9129L231.274 67.906L229.368 67.3015ZM231.339 57.3393L229.355 57.0912L229.353 57.1068L229.351 57.1224L231.339 57.3393ZM232.377 44.5752L234.375 44.6647L234.375 44.6575L234.376 44.6503L232.377 44.5752ZM233.207 22.4715V20.4715H231.281L231.209 22.3964L233.207 22.4715ZM294.641 22.4715H296.641V20.4715H294.641V22.4715ZM294.641 84.7355V86.7355H296.641V84.7355H294.641ZM218.056 109.33H216.056V111.33H218.056V109.33ZM218.056 76.1223V74.1223H216.056V76.1223H218.056ZM304.188 76.1223H306.188V74.1223H304.188V76.1223ZM304.188 109.33V111.33H306.188V109.33H304.188ZM281.773 109.33H279.773V111.33H281.773V109.33ZM281.773 95.1128H283.773V93.1128H281.773V95.1128ZM240.471 95.1128V93.1128H238.471V95.1128H240.471ZM240.471 109.33V111.33H242.471V109.33H240.471ZM272.566 84.7355V41.462H268.566V84.7355H272.566ZM270.566 39.462H253.858V43.462H270.566V39.462ZM251.86 41.3821L251.652 46.5707L255.649 46.7306L255.856 41.5419L251.86 41.3821ZM251.652 46.578C251.515 50.3442 251.276 53.8618 250.935 57.1321L254.913 57.5465C255.265 54.1754 255.509 50.5672 255.649 46.7233L251.652 46.578ZM250.935 57.1321C250.596 60.3881 250.123 63.3535 249.52 66.0323L253.423 66.9104C254.065 64.0547 254.561 60.932 254.913 57.5465L250.935 57.1321ZM249.51 66.0791C248.977 68.7424 248.286 71.0668 247.448 73.0658L251.136 74.6127C252.097 72.3225 252.858 69.7349 253.432 66.8636L249.51 66.0791ZM247.457 73.044C246.634 74.9433 245.647 76.465 244.521 77.6504L247.421 80.4054C248.924 78.8235 250.151 76.8862 251.127 74.6345L247.457 73.044ZM246.195 77.0405L220.355 74.1348L219.908 78.1097L245.748 81.0154L246.195 77.0405ZM220.132 78.1223C222.91 78.1223 225.318 77.1734 227.182 75.2202L224.289 72.4583C223.248 73.5491 221.92 74.1223 220.132 74.1223V78.1223ZM227.181 75.2217C228.966 73.3552 230.306 70.885 231.27 67.9197L227.465 66.6834C226.63 69.2527 225.549 71.141 224.29 72.4568L227.181 75.2217ZM231.274 67.906C232.223 64.9135 232.902 61.4575 233.327 57.5562L229.351 57.1224C228.946 60.8311 228.311 64.0166 227.461 66.6971L231.274 67.906ZM233.324 57.5874C233.816 53.6518 234.165 49.3434 234.375 44.6647L230.379 44.4857C230.173 49.0774 229.831 53.2784 229.355 57.0912L233.324 57.5874ZM234.376 44.6503L235.206 22.5465L231.209 22.3964L230.378 44.5001L234.376 44.6503ZM233.207 24.4715H294.641V20.4715H233.207V24.4715ZM292.641 22.4715V84.7355H296.641V22.4715H292.641ZM294.641 82.7355H270.566V86.7355H294.641V82.7355ZM220.056 109.33V76.1223H216.056V109.33H220.056ZM218.056 78.1223H304.188V74.1223H218.056V78.1223ZM302.188 76.1223V109.33H306.188V76.1223H302.188ZM304.188 107.33H281.773V111.33H304.188V107.33ZM283.773 109.33V95.1128H279.773V109.33H283.773ZM281.773 93.1128H240.471V97.1128H281.773V93.1128ZM238.471 95.1128V109.33H242.471V95.1128H238.471ZM240.471 107.33H218.056V111.33H240.471V107.33ZM332.96 93.9713L332.258 95.844L332.266 95.8471L332.96 93.9713ZM319.988 86.0845L318.616 87.5393L318.623 87.5462L318.631 87.5531L319.988 86.0845ZM311.375 73.943L309.54 74.7375L309.545 74.749L309.55 74.7604L311.375 73.943ZM311.375 43.6412L309.55 42.8239L309.544 42.8367L311.375 43.6412ZM319.988 31.6035L321.346 33.0721L321.354 33.0652L321.361 33.0583L319.988 31.6035ZM332.96 23.613L332.266 21.7372L332.258 21.7403L332.96 23.613ZM365.752 23.613L365.05 25.4856L365.05 25.4856L365.752 23.613ZM378.724 31.6035L377.352 33.0583L377.359 33.0652L377.366 33.0721L378.724 31.6035ZM387.234 43.6412L385.398 44.4357L385.405 44.4523L385.413 44.4688L387.234 43.6412ZM387.234 73.943L385.408 73.1257L385.403 73.1371L385.398 73.1486L387.234 73.943ZM378.724 86.0845L380.082 87.5531L380.089 87.5462L380.097 87.5393L378.724 86.0845ZM365.752 93.9713L366.455 95.8439L366.455 95.8439L365.752 93.9713ZM355.686 75.7072L354.922 73.8592L354.91 73.8639L354.899 73.8689L355.686 75.7072ZM360.875 72.1789L359.43 70.7964L359.428 70.7979L360.875 72.1789ZM364.403 66.4714L366.276 67.1736L366.28 67.1642L366.283 67.1548L364.403 66.4714ZM364.403 51.2167L362.524 51.9002L362.527 51.9096L362.531 51.9189L364.403 51.2167ZM360.875 45.5092L359.398 46.8577L359.429 46.8912L359.461 46.9234L360.875 45.5092ZM355.686 41.8771L354.899 43.7154L354.91 43.7203L354.922 43.7251L355.686 41.8771ZM342.922 41.8771L342.158 40.0291L342.146 40.0339L342.134 40.0388L342.922 41.8771ZM337.734 45.5092L336.288 44.1267L336.287 44.1282L337.734 45.5092ZM334.309 51.2167L336.182 51.9189L336.185 51.9096L336.189 51.9002L334.309 51.2167ZM334.309 66.4714L332.43 67.1548L332.433 67.1642L332.436 67.1736L334.309 66.4714ZM337.734 72.1789L336.257 73.5274L336.287 73.561L336.319 73.5931L337.734 72.1789ZM342.922 75.7072L342.134 77.5455L342.146 77.5504L342.158 77.5552L342.922 75.7072ZM349.356 94.7732C343.691 94.7732 338.462 93.874 333.654 92.0955L332.266 95.8471C337.558 97.8044 343.261 98.7732 349.356 98.7732V94.7732ZM333.662 92.0986C328.908 90.3157 324.81 87.8187 321.346 84.616L318.631 87.5531C322.5 91.1301 327.05 93.8911 332.258 95.8439L333.662 92.0986ZM321.361 84.6297C317.887 81.3526 315.169 77.5225 313.201 73.1257L309.55 74.7604C311.732 79.6339 314.756 83.8982 318.616 87.5393L321.361 84.6297ZM313.211 73.1486C311.322 68.7842 310.366 64.0069 310.366 58.7921H306.366C306.366 64.5081 307.416 69.8315 309.54 74.7375L313.211 73.1486ZM310.366 58.7921C310.366 53.504 311.323 48.7317 313.206 44.4458L309.544 42.8367C307.415 47.6828 306.366 53.0111 306.366 58.7921H310.366ZM313.201 44.4586C315.168 40.0655 317.881 36.2755 321.346 33.0721L318.631 30.135C314.762 33.7114 311.734 37.9466 309.55 42.8239L313.201 44.4586ZM321.361 33.0583C324.824 29.7916 328.916 27.2655 333.662 25.4856L332.258 21.7403C327.042 23.6963 322.487 26.4972 318.616 30.1487L321.361 33.0583ZM333.654 25.4888C338.462 23.7103 343.691 22.8111 349.356 22.8111V18.8111C343.261 18.8111 337.558 19.7799 332.266 21.7372L333.654 25.4888ZM349.356 22.8111C355.094 22.8111 360.319 23.7113 365.05 25.4856L366.455 21.7403C361.224 19.7788 355.518 18.8111 349.356 18.8111V22.8111ZM365.05 25.4856C369.796 27.2655 373.889 29.7916 377.352 33.0583L380.097 30.1487C376.226 26.4972 371.671 23.6963 366.455 21.7403L365.05 25.4856ZM377.366 33.0721C380.826 36.2708 383.501 40.053 385.398 44.4357L389.069 42.8468C386.953 37.9591 383.955 33.7161 380.082 30.135L377.366 33.0721ZM385.413 44.4688C387.358 48.7491 388.347 53.5133 388.347 58.7921H392.347C392.347 53.0018 391.26 47.6654 389.054 42.8136L385.413 44.4688ZM388.347 58.7921C388.347 63.9976 387.36 68.7667 385.408 73.1257L389.059 74.7604C391.258 69.8489 392.347 64.5175 392.347 58.7921H388.347ZM385.398 73.1486C383.499 77.535 380.82 81.3574 377.352 84.6297L380.097 87.5393C383.961 83.8934 386.955 79.6215 389.069 74.7375L385.398 73.1486ZM377.366 84.616C373.902 87.8187 369.805 90.3157 365.05 92.0986L366.455 95.8439C371.662 93.8911 376.213 91.1301 380.082 87.5531L377.366 84.616ZM365.05 92.0986C360.319 93.873 355.094 94.7732 349.356 94.7732V98.7732C355.518 98.7732 361.224 97.8054 366.455 95.8439L365.05 92.0986ZM349.356 78.9525C351.887 78.9525 354.268 78.491 356.474 77.5455L354.899 73.8689C353.231 74.5838 351.391 74.9525 349.356 74.9525V78.9525ZM356.451 77.5552C358.706 76.622 360.67 75.2898 362.322 73.5598L359.428 70.7979C358.174 72.112 356.679 73.132 354.922 73.8592L356.451 77.5552ZM362.32 73.5613C364.043 71.7606 365.358 69.6218 366.276 67.1736L362.531 65.7691C361.788 67.7486 360.751 69.4148 359.43 70.7964L362.32 73.5613ZM366.283 67.1548C367.205 64.6194 367.649 61.8234 367.649 58.7921H363.649C363.649 61.4338 363.262 63.7573 362.524 65.7879L366.283 67.1548ZM367.649 58.7921C367.649 55.7625 367.205 52.9927 366.276 50.5144L362.531 51.9189C363.262 53.8683 363.649 56.1489 363.649 58.7921H367.649ZM366.283 50.5332C365.366 48.011 364.043 45.8487 362.289 44.0949L359.461 46.9234C360.751 48.2136 361.781 49.8564 362.524 51.9002L366.283 50.5332ZM362.352 44.1606C360.7 42.351 358.726 40.9706 356.451 40.0291L354.922 43.7251C356.659 44.444 358.145 45.485 359.398 46.8577L362.352 44.1606ZM356.474 40.0388C354.268 39.0933 351.887 38.6318 349.356 38.6318V42.6318C351.391 42.6318 353.231 43.0005 354.899 43.7154L356.474 40.0388ZM349.356 38.6318C346.825 38.6318 344.419 39.0934 342.158 40.0291L343.687 43.7251C345.438 43.0004 347.322 42.6318 349.356 42.6318V38.6318ZM342.134 40.0388C339.939 40.9798 337.988 42.3497 336.288 44.1267L339.179 46.8916C340.523 45.4862 342.032 44.4347 343.71 43.7154L342.134 40.0388ZM336.287 44.1282C334.616 45.8788 333.34 48.0302 332.43 50.5332L336.189 51.9002C336.939 49.8372 337.946 48.1835 339.18 46.8901L336.287 44.1282ZM332.436 50.5144C331.507 52.9927 331.064 55.7625 331.064 58.7921H335.064C335.064 56.1489 335.451 53.8683 336.182 51.9189L332.436 50.5144ZM331.064 58.7921C331.064 61.8234 331.508 64.6194 332.43 67.1548L336.189 65.7879C335.45 63.7573 335.064 61.4338 335.064 58.7921H331.064ZM332.436 67.1736C333.347 69.6028 334.616 71.7305 336.257 73.5274L339.211 70.8304C337.946 69.4449 336.931 67.7676 336.182 65.7691L332.436 67.1736ZM336.319 73.5931C338.017 75.2911 339.958 76.6129 342.134 77.5455L343.71 73.8689C342.012 73.1411 340.494 72.1107 339.148 70.7647L336.319 73.5931ZM342.158 77.5552C344.419 78.4909 346.825 78.9525 349.356 78.9525V74.9525C347.322 74.9525 345.438 74.5839 343.687 73.8591L342.158 77.5552ZM399.161 95.1128H397.161V97.1128H399.161V95.1128ZM399.161 22.4715V20.4715H397.161V22.4715H399.161ZM456.859 27.4526L455.739 29.1095L455.75 29.1167L456.859 27.4526ZM457.482 55.4714L458.674 57.0772L458.682 57.0714L458.689 57.0656L457.482 55.4714ZM439.01 60.5563L437.134 59.8617L436.136 62.5563H439.01V60.5563ZM441.085 54.9525V52.9525H439.693L439.21 54.2579L441.085 54.9525ZM460.491 59.8299L461.628 58.1846L461.628 58.1846L460.491 59.8299ZM423.236 77.9902H421.236V79.9902H423.236V77.9902ZM441.293 76.5374L442.707 77.9516L442.707 77.9516L441.293 76.5374ZM441.293 68.028L439.879 69.4422L439.929 69.4926L439.983 69.5393L441.293 68.028ZM423.236 66.5751V64.5751H421.236V66.5751H423.236ZM423.236 50.3865H421.236V52.3865H423.236V50.3865ZM438.18 49.0374L436.819 47.5719L436.819 47.5719L438.18 49.0374ZM438.18 41.0469L436.766 42.4611L436.792 42.4873L436.819 42.5125L438.18 41.0469ZM423.236 39.5941V37.5941H421.236V39.5941H423.236ZM401.161 95.1128V22.4715H397.161V95.1128H401.161ZM399.161 24.4715H436.001V20.4715H399.161V24.4715ZM436.001 24.4715C444.788 24.4715 451.288 26.1004 455.739 29.1095L457.979 25.7957C452.606 22.1633 445.2 20.4715 436.001 20.4715V24.4715ZM455.75 29.1167C460.171 32.0641 462.331 36.1075 462.331 41.462H466.331C466.331 34.7788 463.509 29.4826 457.968 25.7885L455.75 29.1167ZM462.331 41.462C462.331 46.7359 460.325 50.8078 456.274 53.8772L458.689 57.0656C463.77 53.2167 466.331 47.9491 466.331 41.462H462.331ZM456.289 53.8656C452.174 56.9212 446.482 58.5563 439.01 58.5563V62.5563C447.035 62.5563 453.657 60.8014 458.674 57.0772L456.289 53.8656ZM440.885 61.2509L442.961 55.6471L439.21 54.2579L437.134 59.8617L440.885 61.2509ZM441.085 56.9525C449.083 56.9525 455.101 58.5357 459.354 61.4751L461.628 58.1846C456.472 54.6209 449.553 52.9525 441.085 52.9525V56.9525ZM459.354 61.4751C463.464 64.3159 465.548 68.4087 465.548 74.0468H469.548C469.548 67.2321 466.927 61.847 461.628 58.1846L459.354 61.4751ZM465.548 74.0468C465.548 79.8547 463.282 84.3762 458.675 87.8001L461.061 91.0105C466.694 86.8242 469.548 81.1068 469.548 74.0468H465.548ZM458.675 87.8001C454.032 91.2511 447.219 93.1128 437.972 93.1128V97.1128C447.681 97.1128 455.466 95.1694 461.061 91.0105L458.675 87.8001ZM437.972 93.1128H399.161V97.1128H437.972V93.1128ZM423.236 79.9902H436.831V75.9902H423.236V79.9902ZM436.831 79.9902C439.122 79.9902 441.22 79.4392 442.707 77.9516L439.879 75.1232C439.429 75.5727 438.552 75.9902 436.831 75.9902V79.9902ZM442.707 77.9516C444.215 76.4435 444.85 74.4253 444.85 72.1789H440.85C440.85 73.6683 440.446 74.5558 439.879 75.1232L442.707 77.9516ZM444.85 72.1789C444.85 69.9503 444.221 67.9191 442.603 66.5166L439.983 69.5393C440.44 69.9355 440.85 70.6717 440.85 72.1789H444.85ZM442.707 66.6137C441.22 65.1262 439.122 64.5751 436.831 64.5751V68.5751C438.552 68.5751 439.429 68.9927 439.879 69.4422L442.707 66.6137ZM436.831 64.5751H423.236V68.5751H436.831V64.5751ZM421.236 66.5751V77.9902H425.236V66.5751H421.236ZM423.236 52.3865H433.614V48.3865H423.236V52.3865ZM433.614 52.3865C435.918 52.3865 438.04 51.8964 439.541 50.503L436.819 47.5719C436.382 47.9772 435.461 48.3865 433.614 48.3865V52.3865ZM439.541 50.503C441.033 49.1177 441.633 47.1992 441.633 45.0941H437.633C437.633 46.4481 437.264 47.1584 436.819 47.5719L439.541 50.503ZM441.633 45.0941C441.633 42.9475 441.048 40.9807 439.541 39.5813L436.819 42.5125C437.249 42.9118 437.633 43.6432 437.633 45.0941H441.633ZM439.594 39.6327C438.095 38.1341 435.951 37.5941 433.614 37.5941V41.5941C435.428 41.5941 436.327 42.0225 436.766 42.4611L439.594 39.6327ZM433.614 37.5941H423.236V41.5941H433.614V37.5941ZM421.236 39.5941V50.3865H425.236V39.5941H421.236Z" fill="white" mask="url(#path-1-outside-1_2033_38)"/>
    </symbol>
</svg>