<svg width="29" height="28" viewBox="0 0 29 28" fill="none" xmlns="http://www.w3.org/2000/svg">
<path d="M14.684 18.6898C15.908 18.6898 17.0818 18.2036 17.9473 17.3381C18.8127 16.4727 19.2989 15.2988 19.2989 14.0749C19.2989 12.8509 18.8127 11.6771 17.9473 10.8116C17.0818 9.94617 15.908 9.45996 14.684 9.45996C13.4601 9.45996 12.2862 9.94617 11.4208 10.8116C10.5553 11.6771 10.0691 12.8509 10.0691 14.0749C10.0691 15.2988 10.5553 16.4727 11.4208 17.3381C12.2862 18.2036 13.4601 18.6898 14.684 18.6898V18.6898Z" stroke="black" stroke-width="1.7306" stroke-linecap="round" stroke-linejoin="round"/>
<path d="M4.30005 18.6899V9.46006C4.30005 7.93012 4.90782 6.46284 5.98965 5.38101C7.07148 4.29917 8.53876 3.69141 10.0687 3.69141H19.2986C20.8285 3.69141 22.2958 4.29917 23.3776 5.38101C24.4594 6.46284 25.0672 7.93012 25.0672 9.46006V18.6899C25.0672 20.2199 24.4594 21.6871 23.3776 22.769C22.2958 23.8508 20.8285 24.4586 19.2986 24.4586H10.0687C8.53876 24.4586 7.07148 23.8508 5.98965 22.769C4.90782 21.6871 4.30005 20.2199 4.30005 18.6899Z" stroke="black" stroke-width="1.7306"/>
<path d="M21.0295 7.74181L21.042 7.72815" stroke="black" stroke-width="1.7306" stroke-linecap="round" stroke-linejoin="round"/>
</svg>
