<svg width="106" height="105" viewBox="0 0 106 105" fill="none" xmlns="http://www.w3.org/2000/svg">
<path d="M92.1444 86.7267L87.1886 69.9273C85.8707 65.5769 83.1766 61.7716 79.5111 59.0831C75.8457 56.3946 71.4068 54.9681 66.8614 55.0179H64.9295C68.3862 52.6275 71.2019 49.4235 73.1281 45.6882C75.0543 41.9529 76.0321 37.801 75.9751 33.5987C76.2253 27.1803 73.9216 20.9243 69.5684 16.2011C65.2152 11.4779 59.1674 8.6726 52.7499 8.39966C46.3437 8.69424 40.3132 11.5075 35.9713 16.227C31.6293 20.9465 29.3275 27.1902 29.5668 33.5987C29.5182 37.8042 30.5039 41.9571 32.4373 45.6921C34.3707 49.4271 37.1925 52.6296 40.6544 55.0179H38.6805C34.135 54.9681 29.6962 56.3946 26.0307 59.0831C22.3653 61.7716 19.6712 65.5769 18.3532 69.9273L13.3554 86.7267C13.054 87.7769 13.1381 88.9002 13.5925 89.8938C14.0469 90.8874 14.8417 91.6857 15.8333 92.1445C27.5393 97.124 40.0419 99.9687 52.7499 100.544H52.9599C65.5959 99.9368 78.0239 97.0929 89.6665 92.1445C90.6639 91.6926 91.4642 90.8952 91.9197 89.8994C92.3751 88.9037 92.4549 87.7767 92.1444 86.7267ZM52.33 62.0316L48.9281 59.0917H55.7318L52.33 62.0316ZM62.1156 59.0917H66.3154L60.6036 70.0953L55.2698 65.1395L62.1156 59.0917ZM52.7499 12.5995C56.6309 12.6986 60.3897 13.9774 63.5258 16.2658C66.6619 18.5541 69.0267 21.7434 70.3053 25.409C68.3899 25.7666 66.4249 25.7666 64.5095 25.409C61.8548 24.7788 59.4002 23.4938 57.3698 21.6712C56.9858 21.3536 56.5031 21.1799 56.0048 21.1799C55.5065 21.1799 55.0239 21.3536 54.6399 21.6712C51.9531 23.8585 48.7869 25.3792 45.4001 26.1091C42.0133 26.839 38.5019 26.7574 35.1526 25.871C36.3617 22.1157 38.701 18.8255 41.8507 16.45C45.0005 14.0745 48.807 12.7298 52.7499 12.5995ZM33.7667 33.5987C33.7398 32.1928 33.8382 30.7873 34.0607 29.3989C36.3105 29.9804 38.6246 30.2767 40.9484 30.2808C43.4986 30.3766 46.0484 30.0791 48.5081 29.3989C51.1481 28.6146 53.6442 27.4092 55.8998 25.829C58.1558 27.564 60.7651 28.7826 63.5435 29.3989C66.1877 29.9626 68.921 29.9626 71.5652 29.3989C71.785 30.6893 71.8973 31.9957 71.9012 33.3047C72.1526 38.6097 70.2917 43.7981 66.7258 47.7339C63.16 51.6697 58.1799 54.0321 52.8759 54.3039C47.6139 54.0424 42.6644 51.727 39.0912 47.8554C35.518 43.9837 33.6062 38.8648 33.7667 33.5987ZM42.6283 59.2177L49.6841 65.3495L44.8122 70.1793L38.5545 59.0917H42.5443L42.6283 59.2177ZM17.4293 88.0286L22.4271 71.2293C23.2689 68.5153 24.7854 66.0592 26.8346 64.0907C28.8839 62.1222 31.399 60.7057 34.1447 59.9737L42.5443 74.7991C42.7193 75.0697 42.9472 75.3022 43.2142 75.4826C43.4812 75.663 43.7819 75.7877 44.0983 75.8491H44.3923C44.6677 75.8525 44.9407 75.7981 45.1939 75.6897C45.447 75.5812 45.6747 75.4209 45.8622 75.2191L50.566 70.1373L50.776 96.1763C39.3664 95.3593 28.1701 92.6631 17.6393 88.1966C17.6393 88.1966 17.3033 88.1966 17.3873 87.9026L17.4293 88.0286ZM87.9026 88.1966C77.4225 92.5214 66.3233 95.158 55.0179 96.0083L54.7659 70.5573L59.5957 75.0511C59.9923 75.396 60.4981 75.5894 61.0236 75.5971H61.4016C61.7166 75.5474 62.0149 75.4221 62.2709 75.2319C62.5269 75.0417 62.733 74.7924 62.8716 74.5052L70.6413 59.5957C73.5679 60.2065 76.2786 61.5872 78.4934 63.5953C80.7083 65.6034 82.3471 68.1663 83.2408 71.0193L88.1966 87.8186C88.1988 87.9059 88.1707 87.9912 88.1171 88.0601C88.0635 88.129 87.9877 88.1773 87.9026 88.1966Z" fill="white"/>
</svg>
