<svg xmlns="http://www.w3.org/2000/svg">
    <symbol id="check" viewBox="0 0 38 38" fill="none" xmlns="http://www.w3.org/2000/svg">
        <g clip-path="url(#clip0_12_8285)">
            <path d="M18.5973 0.669922C14.9191 0.669922 11.3235 1.76063 8.26519 3.80413C5.20688 5.84762 2.82323 8.75212 1.41564 12.1503C0.00805794 15.5485 -0.36023 19.2878 0.35735 22.8953C1.07493 26.5029 2.84615 29.8166 5.44702 32.4175C8.0479 35.0183 11.3616 36.7896 14.9691 37.5071C18.5767 38.2247 22.3159 37.8564 25.7142 36.4488C29.1124 35.0413 32.0169 32.6576 34.0604 29.5993C36.1038 26.541 37.1946 22.9454 37.1946 19.2672C37.1946 14.3349 35.2352 9.6046 31.7475 6.11694C28.2599 2.62927 23.5296 0.669922 18.5973 0.669922V0.669922ZM29.1667 14.7806L17.4969 28.0157C17.3086 28.2278 17.0802 28.4007 16.8249 28.5244C16.5696 28.6481 16.2924 28.7201 16.0092 28.7363H15.8697C15.3411 28.7396 14.8302 28.5462 14.4361 28.1939L8.19056 22.6535C7.76104 22.2722 7.50055 21.736 7.4664 21.1627C7.43225 20.5894 7.62723 20.026 8.00846 19.5965C8.38969 19.167 8.92593 18.9065 9.49921 18.8724C10.0725 18.8382 10.6359 19.0332 11.0654 19.4144L15.7147 23.5136L25.951 11.8903C26.3312 11.4597 26.8668 11.1978 27.4401 11.1622C28.0134 11.1266 28.5773 11.3202 29.0079 11.7004C29.4384 12.0806 29.7003 12.6163 29.7359 13.1896C29.7715 13.7629 29.5779 14.3268 29.1977 14.7574L29.1667 14.7806Z" fill="#ECCF4D"/>
        </g>
        <defs>
            <clipPath id="clip0_12_8285">
                <rect width="37.1946" height="37.1946" fill="white" transform="translate(0 0.669922)"/>
            </clipPath>
        </defs>
    </symbol>

    <symbol id="burger" viewBox="0 0 37 25" fill="none" xmlns="http://www.w3.org/2000/svg">
        <line y1="1.5" x2="37" y2="1.5" stroke-width="3"/>
        <line y1="11.9541" x2="37" y2="11.9541" stroke-width="3"/>
        <line y1="23.4541" x2="37" y2="23.4541" stroke-width="3"/>
    </symbol>

    <symbol id="arrow-long" viewBox="0 0 28 19" xmlns="http://www.w3.org/2000/svg">
        <path d="M18.9127 18.8282C18.4597 18.8282 18.1577 18.6772 17.8556 18.3751C17.2516 17.7711 17.2516 16.865 17.8556 16.2609L25.4063 8.7103C26.0103 8.10625 26.9164 8.10625 27.5205 8.7103C28.1245 9.31435 28.1245 10.2204 27.5205 10.8245L19.9698 18.3751C19.6678 18.6772 19.3658 18.8282 18.9127 18.8282Z"/>
        <path d="M26.4634 11.2775C26.0103 11.2775 25.7083 11.1265 25.4063 10.8245L17.8556 3.27382C17.2516 2.66977 17.2516 1.76369 17.8556 1.15964C18.4597 0.555591 19.3658 0.555591 19.9698 1.15964L27.5205 8.71029C28.1245 9.31434 28.1245 10.2204 27.5205 10.8245C27.2184 11.1265 26.9164 11.2775 26.4634 11.2775Z"/>
        <path d="M26.4627 11.2775H2.30066C1.39458 11.2775 0.790527 10.6735 0.790527 9.76739C0.790527 8.86131 1.39458 8.25726 2.30066 8.25726H26.4627C27.3688 8.25726 27.9729 8.86131 27.9729 9.76739C27.9729 10.6735 27.3688 11.2775 26.4627 11.2775Z"/>
    </symbol>

    <symbol id="arrow" viewBox="0 0 27 26" fill="none" xmlns="http://www.w3.org/2000/svg">
        <g clip-path="url(#clip0_12_8484)">
            <path d="M11.1764 6.44214L9.66418 7.95439L14.5763 12.8772L9.66418 17.8001L11.1764 19.3123L17.6115 12.8772L11.1764 6.44214Z" fill="black"/>
        </g>
        <defs>
            <clipPath id="clip0_12_8484">
                <rect width="25.7404" height="25.7404" fill="white" transform="translate(0.451416 0.00708008)"/>
            </clipPath>
        </defs>
    </symbol>

    <symbol id="male" viewBox="0 0 106 105" fill="none" xmlns="http://www.w3.org/2000/svg">
        <path d="M92.1444 86.7267L87.1886 69.9273C85.8707 65.5769 83.1766 61.7716 79.5111 59.0831C75.8457 56.3946 71.4068 54.9681 66.8614 55.0179H64.9295C68.3862 52.6275 71.2019 49.4235 73.1281 45.6882C75.0543 41.9529 76.0321 37.801 75.9751 33.5987C76.2253 27.1803 73.9216 20.9243 69.5684 16.2011C65.2152 11.4779 59.1674 8.6726 52.7499 8.39966C46.3437 8.69424 40.3132 11.5075 35.9713 16.227C31.6293 20.9465 29.3275 27.1902 29.5668 33.5987C29.5182 37.8042 30.5039 41.9571 32.4373 45.6921C34.3707 49.4271 37.1925 52.6296 40.6544 55.0179H38.6805C34.135 54.9681 29.6962 56.3946 26.0307 59.0831C22.3653 61.7716 19.6712 65.5769 18.3532 69.9273L13.3554 86.7267C13.054 87.7769 13.1381 88.9002 13.5925 89.8938C14.0469 90.8874 14.8417 91.6857 15.8333 92.1445C27.5393 97.124 40.0419 99.9687 52.7499 100.544H52.9599C65.5959 99.9368 78.0239 97.0929 89.6665 92.1445C90.6639 91.6926 91.4642 90.8952 91.9197 89.8994C92.3751 88.9037 92.4549 87.7767 92.1444 86.7267ZM52.33 62.0316L48.9281 59.0917H55.7318L52.33 62.0316ZM62.1156 59.0917H66.3154L60.6036 70.0953L55.2698 65.1395L62.1156 59.0917ZM52.7499 12.5995C56.6309 12.6986 60.3897 13.9774 63.5258 16.2658C66.6619 18.5541 69.0267 21.7434 70.3053 25.409C68.3899 25.7666 66.4249 25.7666 64.5095 25.409C61.8548 24.7788 59.4002 23.4938 57.3698 21.6712C56.9858 21.3536 56.5031 21.1799 56.0048 21.1799C55.5065 21.1799 55.0239 21.3536 54.6399 21.6712C51.9531 23.8585 48.7869 25.3792 45.4001 26.1091C42.0133 26.839 38.5019 26.7574 35.1526 25.871C36.3617 22.1157 38.701 18.8255 41.8507 16.45C45.0005 14.0745 48.807 12.7298 52.7499 12.5995ZM33.7667 33.5987C33.7398 32.1928 33.8382 30.7873 34.0607 29.3989C36.3105 29.9804 38.6246 30.2767 40.9484 30.2808C43.4986 30.3766 46.0484 30.0791 48.5081 29.3989C51.1481 28.6146 53.6442 27.4092 55.8998 25.829C58.1558 27.564 60.7651 28.7826 63.5435 29.3989C66.1877 29.9626 68.921 29.9626 71.5652 29.3989C71.785 30.6893 71.8973 31.9957 71.9012 33.3047C72.1526 38.6097 70.2917 43.7981 66.7258 47.7339C63.16 51.6697 58.1799 54.0321 52.8759 54.3039C47.6139 54.0424 42.6644 51.727 39.0912 47.8554C35.518 43.9837 33.6062 38.8648 33.7667 33.5987ZM42.6283 59.2177L49.6841 65.3495L44.8122 70.1793L38.5545 59.0917H42.5443L42.6283 59.2177ZM17.4293 88.0286L22.4271 71.2293C23.2689 68.5153 24.7854 66.0592 26.8346 64.0907C28.8839 62.1222 31.399 60.7057 34.1447 59.9737L42.5443 74.7991C42.7193 75.0697 42.9472 75.3022 43.2142 75.4826C43.4812 75.663 43.7819 75.7877 44.0983 75.8491H44.3923C44.6677 75.8525 44.9407 75.7981 45.1939 75.6897C45.447 75.5812 45.6747 75.4209 45.8622 75.2191L50.566 70.1373L50.776 96.1763C39.3664 95.3593 28.1701 92.6631 17.6393 88.1966C17.6393 88.1966 17.3033 88.1966 17.3873 87.9026L17.4293 88.0286ZM87.9026 88.1966C77.4225 92.5214 66.3233 95.158 55.0179 96.0083L54.7659 70.5573L59.5957 75.0511C59.9923 75.396 60.4981 75.5894 61.0236 75.5971H61.4016C61.7166 75.5474 62.0149 75.4221 62.2709 75.2319C62.5269 75.0417 62.733 74.7924 62.8716 74.5052L70.6413 59.5957C73.5679 60.2065 76.2786 61.5872 78.4934 63.5953C80.7083 65.6034 82.3471 68.1663 83.2408 71.0193L88.1966 87.8186C88.1988 87.9059 88.1707 87.9912 88.1171 88.0601C88.0635 88.129 87.9877 88.1773 87.9026 88.1966Z" fill="white"/>
    </symbol>

    <symbol id="fb" viewBox="0 0 29 28" fill="none" xmlns="http://www.w3.org/2000/svg">
        <path d="M20.0607 2.53748H16.5995C15.0695 2.53748 13.6023 3.14524 12.5204 4.22708C11.4386 5.30891 10.8308 6.77619 10.8308 8.30613V11.7673H7.36963V16.3822H10.8308V25.6121H15.4457V16.3822H18.9069L20.0607 11.7673H15.4457V8.30613C15.4457 8.00014 15.5673 7.70669 15.7837 7.49032C16 7.27395 16.2935 7.1524 16.5995 7.1524H20.0607V2.53748Z" stroke="black" stroke-width="1.7306" stroke-linecap="round" stroke-linejoin="round"/>
    </symbol>

    <symbol id="ig" viewBox="0 0 29 28" fill="none" xmlns="http://www.w3.org/2000/svg">
        <path d="M14.684 18.6898C15.908 18.6898 17.0818 18.2036 17.9473 17.3381C18.8127 16.4727 19.2989 15.2988 19.2989 14.0749C19.2989 12.8509 18.8127 11.6771 17.9473 10.8116C17.0818 9.94617 15.908 9.45996 14.684 9.45996C13.4601 9.45996 12.2862 9.94617 11.4208 10.8116C10.5553 11.6771 10.0691 12.8509 10.0691 14.0749C10.0691 15.2988 10.5553 16.4727 11.4208 17.3381C12.2862 18.2036 13.4601 18.6898 14.684 18.6898V18.6898Z" stroke="black" stroke-width="1.7306" stroke-linecap="round" stroke-linejoin="round"/>
        <path d="M4.30005 18.6899V9.46006C4.30005 7.93012 4.90782 6.46284 5.98965 5.38101C7.07148 4.29917 8.53876 3.69141 10.0687 3.69141H19.2986C20.8285 3.69141 22.2958 4.29917 23.3776 5.38101C24.4594 6.46284 25.0672 7.93012 25.0672 9.46006V18.6899C25.0672 20.2199 24.4594 21.6871 23.3776 22.769C22.2958 23.8508 20.8285 24.4586 19.2986 24.4586H10.0687C8.53876 24.4586 7.07148 23.8508 5.98965 22.769C4.90782 21.6871 4.30005 20.2199 4.30005 18.6899Z" stroke="black" stroke-width="1.7306"/>
        <path d="M21.0295 7.74181L21.042 7.72815" stroke="black" stroke-width="1.7306" stroke-linecap="round" stroke-linejoin="round"/>
    </symbol>

    <symbol id="tw" viewBox="0 0 28 28" fill="none" xmlns="http://www.w3.org/2000/svg">
        <path d="M26.7654 3.70313C26.7654 3.70313 24.4372 5.07838 23.1427 5.46834C22.4478 4.66939 21.5244 4.10312 20.4972 3.84611C19.47 3.5891 18.3887 3.65375 17.3995 4.03131C16.4103 4.40888 15.5609 5.08115 14.9662 5.95719C14.3715 6.83324 14.0601 7.87079 14.0743 8.92953V10.0833C12.0468 10.1358 10.0378 9.68616 8.22609 8.77429C6.41443 7.86242 4.8564 6.51666 3.69076 4.85686C3.69076 4.85686 -0.924161 15.2404 9.45942 19.8554C7.08334 21.4682 4.25281 22.277 1.3833 22.1628C11.7669 27.9315 24.4579 22.1628 24.4579 8.89492C24.4579 8.57418 24.4256 8.25345 24.3656 7.93732C25.5424 6.77667 26.7654 3.70313 26.7654 3.70313Z" stroke="black" stroke-width="1.7306" stroke-linecap="round" stroke-linejoin="round"/>
    </symbol>

    <symbol id="yt" viewBox="0 0 28 28" fill="none" xmlns="http://www.w3.org/2000/svg">
        <path d="M16.2085 14.0747L12.1704 16.3821V11.7672L16.2085 14.0747Z" stroke="black" stroke-width="1.7306" stroke-linecap="round" stroke-linejoin="round"/>
        <path d="M2.36304 14.8904V13.2578C2.36304 9.91778 2.36304 8.24717 3.40716 7.17305C4.45244 6.09777 6.09766 6.05162 9.38695 5.95817C10.9445 5.91433 12.5366 5.88318 13.9003 5.88318C15.2629 5.88318 16.8551 5.91433 18.4137 5.95817C21.703 6.05162 23.3482 6.09777 24.3924 7.17305C25.4377 8.24717 25.4377 9.91893 25.4377 13.2578V14.8904C25.4377 18.2316 25.4377 19.901 24.3935 20.9763C23.3482 22.0504 21.7042 22.0977 18.4137 22.19C16.8562 22.235 15.2641 22.2662 13.9003 22.2662C12.3956 22.2616 10.891 22.2363 9.38695 22.19C6.09766 22.0977 4.45244 22.0516 3.40716 20.9763C2.36304 19.901 2.36304 18.2304 2.36304 14.8915V14.8904Z" stroke="black" stroke-width="1.7306"/>
    </symbol>

</svg>