<svg width="451" height="77" viewBox="0 0 451 77" fill="none" xmlns="http://www.w3.org/2000/svg">
<mask id="path-1-outside-1_2033_39" maskUnits="userSpaceOnUse" x="-2" y="-1.88721" width="455" height="81" fill="black">
<rect fill="white" x="-2" y="-1.88721" width="455" height="81"/>
<path d="M40.7101 76.7732C34.8988 76.7732 29.5026 75.8738 24.5215 74.0751C19.6096 72.2071 15.3203 69.5782 11.6536 66.1883C8.05614 62.7984 5.25426 58.7858 3.24798 54.1506C1.24169 49.5154 0.238552 44.3959 0.238552 38.7921C0.238552 33.1884 1.24169 28.0689 3.24798 23.4337C5.25426 18.7985 8.05614 14.7859 11.6536 11.396C15.3203 8.00605 19.6096 5.41172 24.5215 3.61298C29.5026 1.74506 34.8988 0.811102 40.7101 0.811102C47.8359 0.811102 54.1315 2.05638 59.5969 4.54694C65.1315 7.0375 69.6975 10.635 73.295 15.3394L57.8327 29.1412C55.6881 26.4431 53.3013 24.3676 50.6724 22.9148C48.1126 21.3928 45.207 20.6318 41.9554 20.6318C39.3957 20.6318 37.0781 21.0469 35.0026 21.8771C32.9271 22.7073 31.1284 23.918 29.6064 25.5092C28.1536 27.1003 27.0121 29.0374 26.1819 31.3205C25.3517 33.5343 24.9366 36.0248 24.9366 38.7921C24.9366 41.5594 25.3517 44.0846 26.1819 46.3676C27.0121 48.5814 28.1536 50.4839 29.6064 52.0751C31.1284 53.6663 32.9271 54.877 35.0026 55.7072C37.0781 56.5374 39.3957 56.9525 41.9554 56.9525C45.207 56.9525 48.1126 56.226 50.6724 54.7732C53.3013 53.2512 55.6881 51.1412 57.8327 48.4431L73.295 62.2449C69.6975 66.8801 65.1315 70.4776 59.5969 73.0373C54.1315 75.5279 47.8359 76.7732 40.7101 76.7732ZM80.3661 75.1128V2.47147H115.338C122.118 2.47147 127.963 3.57839 132.875 5.79222C137.857 8.00605 141.696 11.1884 144.394 15.3394C147.092 19.4211 148.441 24.2639 148.441 29.8676C148.441 35.4714 147.092 40.3141 144.394 44.3959C141.696 48.4085 137.857 51.4871 132.875 53.6317C127.963 55.7764 122.118 56.8487 115.338 56.8487H93.9604L104.857 46.7827V75.1128H80.3661ZM123.847 75.1128L105.998 48.6506H131.941L149.998 75.1128H123.847ZM104.857 49.4808L93.9604 38.377H113.781C117.171 38.377 119.662 37.616 121.253 36.094C122.913 34.572 123.743 32.4966 123.743 29.8676C123.743 27.2387 122.913 25.1632 121.253 23.6412C119.662 22.1192 117.171 21.3582 113.781 21.3582H93.9604L104.857 10.2545V49.4808ZM175.355 75.1128V43.2544L180.959 57.8864L147.959 2.47147H173.799L196.11 40.3487H181.063L203.582 2.47147H227.242L194.449 57.8864L199.846 43.2544V75.1128H175.355ZM230.351 75.1128V2.47147H265.323C272.102 2.47147 277.948 3.57839 282.86 5.79222C287.841 8.00605 291.681 11.1884 294.379 15.3394C297.077 19.4211 298.426 24.2639 298.426 29.8676C298.426 35.4714 297.077 40.3141 294.379 44.3959C291.681 48.4776 287.841 51.66 282.86 53.943C277.948 56.1569 272.102 57.2638 265.323 57.2638H243.945L254.841 46.7827V75.1128H230.351ZM254.841 49.4808L243.945 38.377H263.766C267.156 38.377 269.646 37.616 271.238 36.094C272.898 34.572 273.728 32.4966 273.728 29.8676C273.728 27.2387 272.898 25.1632 271.238 23.6412C269.646 22.1192 267.156 21.3582 263.766 21.3582H243.945L254.841 10.2545V49.4808ZM320.61 75.1128V21.462H299.337V2.47147H366.374V21.462H345.101V75.1128H320.61ZM409.807 76.7732C403.926 76.7732 398.461 75.8392 393.41 73.9713C388.429 72.1034 384.105 69.4744 380.439 66.0845C376.772 62.6254 373.901 58.5782 371.826 53.943C369.819 49.3078 368.816 44.2575 368.816 38.7921C368.816 33.2576 369.819 28.2073 371.826 23.6412C373.901 19.006 376.772 14.9935 380.439 11.6035C384.105 8.14441 388.429 5.4809 393.41 3.61298C398.461 1.74506 403.926 0.811102 409.807 0.811102C415.756 0.811102 421.222 1.74506 426.203 3.61298C431.184 5.4809 435.508 8.14441 439.174 11.6035C442.841 14.9935 445.678 19.006 447.684 23.6412C449.759 28.2073 450.797 33.2576 450.797 38.7921C450.797 44.2575 449.759 49.3078 447.684 53.943C445.678 58.5782 442.841 62.6254 439.174 66.0845C435.508 69.4744 431.184 72.1034 426.203 73.9713C421.222 75.8392 415.756 76.7732 409.807 76.7732ZM409.807 56.9525C412.09 56.9525 414.2 56.5374 416.137 55.7072C418.143 54.877 419.873 53.7009 421.325 52.1789C422.847 50.5877 424.024 48.6852 424.854 46.4714C425.684 44.1883 426.099 41.6286 426.099 38.7921C426.099 35.9557 425.684 33.4305 424.854 31.2167C424.024 28.9337 422.847 27.0312 421.325 25.5092C419.873 23.918 418.143 22.7073 416.137 21.8771C414.2 21.0469 412.09 20.6318 409.807 20.6318C407.524 20.6318 405.379 21.0469 403.373 21.8771C401.436 22.7073 399.706 23.918 398.184 25.5092C396.731 27.0312 395.59 28.9337 394.76 31.2167C393.929 33.4305 393.514 35.9557 393.514 38.7921C393.514 41.6286 393.929 44.1883 394.76 46.4714C395.59 48.6852 396.731 50.5877 398.184 52.1789C399.706 53.7009 401.436 54.877 403.373 55.7072C405.379 56.5374 407.524 56.9525 409.807 56.9525Z"/>
</mask>
<path d="M40.7101 76.7732C34.8988 76.7732 29.5026 75.8738 24.5215 74.0751C19.6096 72.2071 15.3203 69.5782 11.6536 66.1883C8.05614 62.7984 5.25426 58.7858 3.24798 54.1506C1.24169 49.5154 0.238552 44.3959 0.238552 38.7921C0.238552 33.1884 1.24169 28.0689 3.24798 23.4337C5.25426 18.7985 8.05614 14.7859 11.6536 11.396C15.3203 8.00605 19.6096 5.41172 24.5215 3.61298C29.5026 1.74506 34.8988 0.811102 40.7101 0.811102C47.8359 0.811102 54.1315 2.05638 59.5969 4.54694C65.1315 7.0375 69.6975 10.635 73.295 15.3394L57.8327 29.1412C55.6881 26.4431 53.3013 24.3676 50.6724 22.9148C48.1126 21.3928 45.207 20.6318 41.9554 20.6318C39.3957 20.6318 37.0781 21.0469 35.0026 21.8771C32.9271 22.7073 31.1284 23.918 29.6064 25.5092C28.1536 27.1003 27.0121 29.0374 26.1819 31.3205C25.3517 33.5343 24.9366 36.0248 24.9366 38.7921C24.9366 41.5594 25.3517 44.0846 26.1819 46.3676C27.0121 48.5814 28.1536 50.4839 29.6064 52.0751C31.1284 53.6663 32.9271 54.877 35.0026 55.7072C37.0781 56.5374 39.3957 56.9525 41.9554 56.9525C45.207 56.9525 48.1126 56.226 50.6724 54.7732C53.3013 53.2512 55.6881 51.1412 57.8327 48.4431L73.295 62.2449C69.6975 66.8801 65.1315 70.4776 59.5969 73.0373C54.1315 75.5279 47.8359 76.7732 40.7101 76.7732ZM80.3661 75.1128V2.47147H115.338C122.118 2.47147 127.963 3.57839 132.875 5.79222C137.857 8.00605 141.696 11.1884 144.394 15.3394C147.092 19.4211 148.441 24.2639 148.441 29.8676C148.441 35.4714 147.092 40.3141 144.394 44.3959C141.696 48.4085 137.857 51.4871 132.875 53.6317C127.963 55.7764 122.118 56.8487 115.338 56.8487H93.9604L104.857 46.7827V75.1128H80.3661ZM123.847 75.1128L105.998 48.6506H131.941L149.998 75.1128H123.847ZM104.857 49.4808L93.9604 38.377H113.781C117.171 38.377 119.662 37.616 121.253 36.094C122.913 34.572 123.743 32.4966 123.743 29.8676C123.743 27.2387 122.913 25.1632 121.253 23.6412C119.662 22.1192 117.171 21.3582 113.781 21.3582H93.9604L104.857 10.2545V49.4808ZM175.355 75.1128V43.2544L180.959 57.8864L147.959 2.47147H173.799L196.11 40.3487H181.063L203.582 2.47147H227.242L194.449 57.8864L199.846 43.2544V75.1128H175.355ZM230.351 75.1128V2.47147H265.323C272.102 2.47147 277.948 3.57839 282.86 5.79222C287.841 8.00605 291.681 11.1884 294.379 15.3394C297.077 19.4211 298.426 24.2639 298.426 29.8676C298.426 35.4714 297.077 40.3141 294.379 44.3959C291.681 48.4776 287.841 51.66 282.86 53.943C277.948 56.1569 272.102 57.2638 265.323 57.2638H243.945L254.841 46.7827V75.1128H230.351ZM254.841 49.4808L243.945 38.377H263.766C267.156 38.377 269.646 37.616 271.238 36.094C272.898 34.572 273.728 32.4966 273.728 29.8676C273.728 27.2387 272.898 25.1632 271.238 23.6412C269.646 22.1192 267.156 21.3582 263.766 21.3582H243.945L254.841 10.2545V49.4808ZM320.61 75.1128V21.462H299.337V2.47147H366.374V21.462H345.101V75.1128H320.61ZM409.807 76.7732C403.926 76.7732 398.461 75.8392 393.41 73.9713C388.429 72.1034 384.105 69.4744 380.439 66.0845C376.772 62.6254 373.901 58.5782 371.826 53.943C369.819 49.3078 368.816 44.2575 368.816 38.7921C368.816 33.2576 369.819 28.2073 371.826 23.6412C373.901 19.006 376.772 14.9935 380.439 11.6035C384.105 8.14441 388.429 5.4809 393.41 3.61298C398.461 1.74506 403.926 0.811102 409.807 0.811102C415.756 0.811102 421.222 1.74506 426.203 3.61298C431.184 5.4809 435.508 8.14441 439.174 11.6035C442.841 14.9935 445.678 19.006 447.684 23.6412C449.759 28.2073 450.797 33.2576 450.797 38.7921C450.797 44.2575 449.759 49.3078 447.684 53.943C445.678 58.5782 442.841 62.6254 439.174 66.0845C435.508 69.4744 431.184 72.1034 426.203 73.9713C421.222 75.8392 415.756 76.7732 409.807 76.7732ZM409.807 56.9525C412.09 56.9525 414.2 56.5374 416.137 55.7072C418.143 54.877 419.873 53.7009 421.325 52.1789C422.847 50.5877 424.024 48.6852 424.854 46.4714C425.684 44.1883 426.099 41.6286 426.099 38.7921C426.099 35.9557 425.684 33.4305 424.854 31.2167C424.024 28.9337 422.847 27.0312 421.325 25.5092C419.873 23.918 418.143 22.7073 416.137 21.8771C414.2 21.0469 412.09 20.6318 409.807 20.6318C407.524 20.6318 405.379 21.0469 403.373 21.8771C401.436 22.7073 399.706 23.918 398.184 25.5092C396.731 27.0312 395.59 28.9337 394.76 31.2167C393.929 33.4305 393.514 35.9557 393.514 38.7921C393.514 41.6286 393.929 44.1883 394.76 46.4714C395.59 48.6852 396.731 50.5877 398.184 52.1789C399.706 53.7009 401.436 54.877 403.373 55.7072C405.379 56.5374 407.524 56.9525 409.807 56.9525Z" fill="white"/>
<path d="M24.5215 74.0751L23.8106 75.9445L23.8264 75.9504L23.8422 75.9562L24.5215 74.0751ZM11.6536 66.1883L10.282 67.6439L10.2889 67.6504L10.2959 67.6568L11.6536 66.1883ZM3.24798 54.1506L1.41253 54.945L1.41253 54.945L3.24798 54.1506ZM3.24798 23.4337L1.41253 22.6392L1.41253 22.6392L3.24798 23.4337ZM11.6536 11.396L10.2959 9.92744L10.2889 9.93389L10.282 9.9404L11.6536 11.396ZM24.5215 3.61298L25.2092 5.49102L25.2165 5.48836L25.2238 5.48564L24.5215 3.61298ZM59.5969 4.54694L58.7675 6.36691L58.7762 6.37079L59.5969 4.54694ZM73.295 15.3394L74.6268 16.8314L76.0097 15.597L74.8837 14.1245L73.295 15.3394ZM57.8327 29.1412L56.2671 30.3857L57.5848 32.0434L59.1646 30.6333L57.8327 29.1412ZM50.6724 22.9148L49.6502 24.6339L49.6774 24.65L49.705 24.6653L50.6724 22.9148ZM35.0026 21.8771L35.7454 23.734L35.7454 23.734L35.0026 21.8771ZM29.6064 25.5092L28.1611 24.1267L28.1451 24.1435L28.1294 24.1606L29.6064 25.5092ZM26.1819 31.3205L28.0545 32.0227L28.058 32.0133L28.0615 32.0039L26.1819 31.3205ZM26.1819 46.3676L24.3023 47.0511L24.3057 47.0605L24.3092 47.0698L26.1819 46.3676ZM29.6064 52.0751L28.1294 53.4237L28.1451 53.4408L28.1611 53.4576L29.6064 52.0751ZM35.0026 55.7072L34.2598 57.5641L34.2598 57.5641L35.0026 55.7072ZM50.6724 54.7732L51.6596 56.5126L51.667 56.5084L51.6745 56.5041L50.6724 54.7732ZM57.8327 48.4431L59.1646 46.951L57.5848 45.5408L56.2671 47.1986L57.8327 48.4431ZM73.295 62.2449L74.8749 63.4712L76.0197 61.9962L74.6268 60.7528L73.295 62.2449ZM59.5969 73.0373L60.4262 74.8573L60.4364 74.8526L59.5969 73.0373ZM40.7101 74.7732C35.1079 74.7732 29.9439 73.9067 25.2008 72.194L23.8422 75.9562C29.0614 77.8409 34.6897 78.7732 40.7101 78.7732V74.7732ZM25.2324 72.2057C20.547 70.4239 16.4803 67.9269 13.0113 64.7197L10.2959 67.6568C14.1603 71.2295 18.6721 73.9904 23.8106 75.9445L25.2324 72.2057ZM13.0252 64.7327C9.63009 61.5335 6.98408 57.7473 5.08342 53.3561L1.41253 54.945C3.52445 59.8243 6.4822 64.0633 10.282 67.6439L13.0252 64.7327ZM5.08342 53.3561C3.19702 48.9979 2.23855 44.1526 2.23855 38.7921H-1.76145C-1.76145 44.6391 -0.713629 50.0329 1.41253 54.945L5.08342 53.3561ZM2.23855 38.7921C2.23855 33.4316 3.19702 28.5864 5.08342 24.2281L1.41253 22.6392C-0.713629 27.5514 -1.76145 32.9451 -1.76145 38.7921H2.23855ZM5.08342 24.2281C6.98408 19.837 9.63009 16.0508 13.0252 12.8516L10.282 9.9404C6.4822 13.521 3.52445 17.76 1.41253 22.6392L5.08342 24.2281ZM13.0113 12.8645C16.4747 9.6625 20.5335 7.20326 25.2092 5.49102L23.8338 1.73495C18.6857 3.62017 14.1658 6.3496 10.2959 9.92744L13.0113 12.8645ZM25.2238 5.48564C29.9605 3.70938 35.1165 2.8111 40.7101 2.8111V-1.1889C34.6812 -1.1889 29.0448 -0.219254 23.8193 1.74032L25.2238 5.48564ZM40.7101 2.8111C47.6024 2.8111 53.6065 4.01503 58.7675 6.36689L60.4262 2.727C54.6565 0.0977338 48.0694 -1.1889 40.7101 -1.1889V2.8111ZM58.7762 6.37079C64.016 8.72872 68.3154 12.1201 71.7062 16.5543L74.8837 14.1245C71.0795 9.14981 66.2469 5.34628 60.4176 2.7231L58.7762 6.37079ZM71.9631 13.8473L56.5009 27.6492L59.1646 30.6333L74.6268 16.8314L71.9631 13.8473ZM59.3984 27.8967C57.1136 25.0224 54.531 22.7622 51.6398 21.1643L49.705 24.6653C52.0716 25.9731 54.2625 27.8639 56.2671 30.3857L59.3984 27.8967ZM51.6945 21.1957C48.7975 19.4732 45.5327 18.6318 41.9554 18.6318V22.6318C44.8813 22.6318 47.4278 23.3124 49.6502 24.6339L51.6945 21.1957ZM41.9554 18.6318C39.1778 18.6318 36.6033 19.0828 34.2598 20.0201L35.7454 23.734C37.5529 23.011 39.6135 22.6318 41.9554 22.6318V18.6318ZM34.2598 20.0201C31.9231 20.9548 29.8838 22.3258 28.1611 24.1267L31.0517 26.8916C32.3731 25.5102 33.9312 24.4597 35.7454 23.734L34.2598 20.0201ZM28.1294 24.1606C26.4791 25.9681 25.2105 28.1393 24.3023 30.637L28.0615 32.0039C28.8136 29.9356 29.8281 28.2326 31.0834 26.8577L28.1294 24.1606ZM24.3092 30.6182C23.3818 33.0913 22.9366 35.8251 22.9366 38.7921H26.9366C26.9366 36.2246 27.3216 33.9773 28.0545 32.0227L24.3092 30.6182ZM22.9366 38.7921C22.9366 41.7605 23.3822 44.5208 24.3023 47.0511L28.0615 45.6841C27.3212 43.6484 26.9366 41.3584 26.9366 38.7921H22.9366ZM24.3092 47.0698C25.2202 49.499 26.4887 51.6267 28.1294 53.4237L31.0834 50.7266C29.8184 49.3412 28.804 47.6638 28.0545 45.6653L24.3092 47.0698ZM28.1611 53.4576C29.8838 55.2585 31.9231 56.6295 34.2598 57.5641L35.7454 53.8502C33.9312 53.1245 32.3731 52.0741 31.0517 50.6927L28.1611 53.4576ZM34.2598 57.5641C36.6033 58.5015 39.1778 58.9525 41.9554 58.9525V54.9525C39.6135 54.9525 37.5529 54.5732 35.7454 53.8502L34.2598 57.5641ZM41.9554 58.9525C45.5159 58.9525 48.7681 58.1537 51.6596 56.5126L49.6852 53.0339C47.4571 54.2984 44.898 54.9525 41.9554 54.9525V58.9525ZM51.6745 56.5041C54.5472 54.8409 57.1188 52.5554 59.3984 49.6875L56.2671 47.1986C54.2574 49.7269 52.0554 51.6615 49.6703 53.0424L51.6745 56.5041ZM56.5009 49.9351L71.9631 63.737L74.6268 60.7528L59.1646 46.951L56.5009 49.9351ZM71.715 61.0187C68.3215 65.3911 64.0133 68.7912 58.7573 71.2221L60.4364 74.8526C66.2496 72.164 71.0735 68.3692 74.8749 63.4712L71.715 61.0187ZM58.7675 71.2174C53.6065 73.5692 47.6024 74.7732 40.7101 74.7732V78.7732C48.0694 78.7732 54.6565 77.4865 60.4262 74.8573L58.7675 71.2174ZM80.3661 75.1128H78.3661V77.1128H80.3661V75.1128ZM80.3661 2.47147V0.471473H78.3661V2.47147H80.3661ZM132.875 5.79222L132.054 7.61561L132.063 7.61984L132.875 5.79222ZM144.394 15.3394L142.717 16.4293L142.722 16.4358L142.726 16.4422L144.394 15.3394ZM144.394 44.3959L146.054 45.5119L146.058 45.5053L146.063 45.4988L144.394 44.3959ZM132.875 53.6317L132.085 51.7947L132.075 51.7988L132.875 53.6317ZM93.9604 56.8487L92.6033 55.3796L88.8481 58.8487H93.9604V56.8487ZM104.857 46.7827H106.857V42.2123L103.499 45.3136L104.857 46.7827ZM104.857 75.1128V77.1128H106.857V75.1128H104.857ZM123.847 75.1128L122.189 76.2312L122.784 77.1128H123.847V75.1128ZM105.998 48.6506V46.6506H102.237L104.34 49.769L105.998 48.6506ZM131.941 48.6506L133.594 47.5233L132.998 46.6506H131.941V48.6506ZM149.998 75.1128V77.1128H153.784L151.65 73.9855L149.998 75.1128ZM104.857 49.4808L103.429 50.8816L106.857 54.3744V49.4808H104.857ZM93.9604 38.377V36.377H89.1957L92.5329 39.7779L93.9604 38.377ZM121.253 36.094L119.901 34.6197L119.886 34.6341L119.87 34.6487L121.253 36.094ZM121.253 23.6412L119.87 25.0865L119.886 25.1012L119.901 25.1155L121.253 23.6412ZM93.9604 21.3582L92.5329 19.9574L89.1957 23.3582H93.9604V21.3582ZM104.857 10.2545H106.857V5.36089L103.429 8.85367L104.857 10.2545ZM82.3661 75.1128V2.47147H78.3661V75.1128H82.3661ZM80.3661 4.47147H115.338V0.471473H80.3661V4.47147ZM115.338 4.47147C121.905 4.47147 127.458 5.54416 132.054 7.61558L133.697 3.96886C128.469 1.61262 122.33 0.471473 115.338 0.471473V4.47147ZM132.063 7.61984C136.728 9.69306 140.251 12.6352 142.717 16.4293L146.071 14.2494C143.141 9.74171 138.985 6.31904 133.688 3.9646L132.063 7.61984ZM142.726 16.4422C145.177 20.1511 146.441 24.5974 146.441 29.8676H150.441C150.441 23.9303 149.007 18.6911 146.063 14.2365L142.726 16.4422ZM146.441 29.8676C146.441 35.1378 145.177 39.5841 142.726 43.293L146.063 45.4988C149.007 41.0442 150.441 35.805 150.441 29.8676H146.441ZM142.735 43.2799C140.276 46.9359 136.757 49.7829 132.085 51.7947L133.666 55.4687C138.956 53.1912 143.116 49.881 146.054 45.5119L142.735 43.2799ZM132.075 51.7988C127.473 53.8082 121.913 54.8487 115.338 54.8487V58.8487C122.323 58.8487 128.454 57.7445 133.676 55.4646L132.075 51.7988ZM115.338 54.8487H93.9604V58.8487H115.338V54.8487ZM95.3176 58.3178L106.214 48.2518L103.499 45.3136L92.6033 55.3796L95.3176 58.3178ZM102.857 46.7827V75.1128H106.857V46.7827H102.857ZM104.857 73.1128H80.3661V77.1128H104.857V73.1128ZM125.505 73.9944L107.656 47.5322L104.34 49.769L122.189 76.2312L125.505 73.9944ZM105.998 50.6506H131.941V46.6506H105.998V50.6506ZM130.289 49.7779L148.346 76.2401L151.65 73.9855L133.594 47.5233L130.289 49.7779ZM149.998 73.1128H123.847V77.1128H149.998V73.1128ZM106.284 48.08L95.3879 36.9762L92.5329 39.7779L103.429 50.8816L106.284 48.08ZM93.9604 40.377H113.781V36.377H93.9604V40.377ZM113.781 40.377C117.416 40.377 120.514 39.5682 122.635 37.5393L119.87 34.6487C118.809 35.6639 116.926 36.377 113.781 36.377V40.377ZM122.604 37.5683C124.748 35.6033 125.743 32.9546 125.743 29.8676H121.743C121.743 32.0385 121.078 33.5407 119.901 34.6197L122.604 37.5683ZM125.743 29.8676C125.743 26.7807 124.748 24.1319 122.604 22.1669L119.901 25.1155C121.078 26.1945 121.743 27.6967 121.743 29.8676H125.743ZM122.635 22.1959C120.514 20.1671 117.416 19.3582 113.781 19.3582V23.3582C116.926 23.3582 118.809 24.0713 119.87 25.0865L122.635 22.1959ZM113.781 19.3582H93.9604V23.3582H113.781V19.3582ZM95.3879 22.759L106.284 11.6553L103.429 8.85367L92.5329 19.9574L95.3879 22.759ZM102.857 10.2545V49.4808H106.857V10.2545H102.857ZM175.355 75.1128H173.355V77.1128H175.355V75.1128ZM175.355 43.2544L177.223 42.5391L173.355 43.2544H175.355ZM180.959 57.8864L179.241 58.9097L182.827 57.1711L180.959 57.8864ZM147.959 2.47147V0.471473H144.44L146.241 3.49478L147.959 2.47147ZM173.799 2.47147L175.522 1.4564L174.942 0.471473H173.799V2.47147ZM196.11 40.3487V42.3487H199.609L197.833 39.3337L196.11 40.3487ZM181.063 40.3487L179.344 39.3267L177.547 42.3487H181.063V40.3487ZM203.582 2.47147V0.471473H202.444L201.862 1.44942L203.582 2.47147ZM227.242 2.47147L228.963 3.49002L230.749 0.471473H227.242V2.47147ZM194.449 57.8864L192.573 57.1944L196.171 58.905L194.449 57.8864ZM199.846 43.2544H201.846L197.969 42.5624L199.846 43.2544ZM199.846 75.1128V77.1128H201.846V75.1128H199.846ZM177.355 75.1128V43.2544H173.355V75.1128H177.355ZM173.487 43.9697L179.091 58.6017L182.827 57.1711L177.223 42.5391L173.487 43.9697ZM182.677 56.8631L149.677 1.44817L146.241 3.49478L179.241 58.9097L182.677 56.8631ZM147.959 4.47147H173.799V0.471473H147.959V4.47147ZM172.075 3.48654L194.387 41.3638L197.833 39.3337L175.522 1.4564L172.075 3.48654ZM196.11 38.3487H181.063V42.3487H196.11V38.3487ZM182.782 41.3708L205.301 3.49353L201.862 1.44942L179.344 39.3267L182.782 41.3708ZM203.582 4.47147H227.242V0.471473H203.582V4.47147ZM225.521 1.45293L192.728 56.8679L196.171 58.905L228.963 3.49002L225.521 1.45293ZM196.326 58.5785L201.722 43.9464L197.969 42.5624L192.573 57.1944L196.326 58.5785ZM197.846 43.2544V75.1128H201.846V43.2544H197.846ZM199.846 73.1128H175.355V77.1128H199.846V73.1128ZM230.351 75.1128H228.351V77.1128H230.351V75.1128ZM230.351 2.47147V0.471473H228.351V2.47147H230.351ZM282.86 5.79222L282.038 7.61561L282.048 7.61984L282.86 5.79222ZM294.379 15.3394L292.702 16.4293L292.706 16.4358L292.711 16.4422L294.379 15.3394ZM294.379 44.3959L292.711 43.293L292.711 43.293L294.379 44.3959ZM282.86 53.943L283.682 55.7664L283.694 55.7612L282.86 53.943ZM243.945 57.2638L242.559 55.8224L238.981 59.2638H243.945V57.2638ZM254.841 46.7827H256.841V42.0838L253.455 45.3413L254.841 46.7827ZM254.841 75.1128V77.1128H256.841V75.1128H254.841ZM254.841 49.4808L253.414 50.8816L256.841 54.3744V49.4808H254.841ZM243.945 38.377V36.377H239.181L242.518 39.7779L243.945 38.377ZM271.238 36.094L269.886 34.6197L269.871 34.6341L269.855 34.6487L271.238 36.094ZM271.238 23.6412L269.855 25.0865L269.871 25.1012L269.886 25.1155L271.238 23.6412ZM243.945 21.3582L242.518 19.9574L239.181 23.3582H243.945V21.3582ZM254.841 10.2545H256.841V5.36089L253.414 8.85367L254.841 10.2545ZM232.351 75.1128V2.47147H228.351V75.1128H232.351ZM230.351 4.47147H265.323V0.471473H230.351V4.47147ZM265.323 4.47147C271.89 4.47147 277.443 5.54416 282.038 7.61558L283.682 3.96886C278.454 1.61262 272.315 0.471473 265.323 0.471473V4.47147ZM282.048 7.61984C286.713 9.69306 290.236 12.6352 292.702 16.4293L296.056 14.2494C293.126 9.74171 288.97 6.31904 283.673 3.9646L282.048 7.61984ZM292.711 16.4422C295.162 20.1511 296.426 24.5974 296.426 29.8676H300.426C300.426 23.9303 298.992 18.6911 296.048 14.2365L292.711 16.4422ZM296.426 29.8676C296.426 35.1378 295.162 39.5841 292.711 43.293L296.048 45.4988C298.992 41.0442 300.426 35.805 300.426 29.8676H296.426ZM292.711 43.293C290.243 47.0267 286.71 49.9784 282.027 52.1249L283.694 55.7612C288.973 53.3416 293.119 49.9286 296.048 45.4988L292.711 43.293ZM282.038 52.1197C277.443 54.1911 271.89 55.2638 265.323 55.2638V59.2638C272.315 59.2638 278.454 58.1226 283.682 55.7664L282.038 52.1197ZM265.323 55.2638H243.945V59.2638H265.323V55.2638ZM245.332 58.7052L256.228 48.2241L253.455 45.3413L242.559 55.8224L245.332 58.7052ZM252.841 46.7827V75.1128H256.841V46.7827H252.841ZM254.841 73.1128H230.351V77.1128H254.841V73.1128ZM256.269 48.08L245.373 36.9762L242.518 39.7779L253.414 50.8816L256.269 48.08ZM243.945 40.377H263.766V36.377H243.945V40.377ZM263.766 40.377C267.401 40.377 270.499 39.5682 272.62 37.5393L269.855 34.6487C268.794 35.6639 266.911 36.377 263.766 36.377V40.377ZM272.589 37.5683C274.733 35.6033 275.728 32.9546 275.728 29.8676H271.728C271.728 32.0385 271.063 33.5407 269.886 34.6197L272.589 37.5683ZM275.728 29.8676C275.728 26.7807 274.733 24.1319 272.589 22.1669L269.886 25.1155C271.063 26.1945 271.728 27.6967 271.728 29.8676H275.728ZM272.62 22.1959C270.499 20.1671 267.401 19.3582 263.766 19.3582V23.3582C266.911 23.3582 268.794 24.0713 269.855 25.0865L272.62 22.1959ZM263.766 19.3582H243.945V23.3582H263.766V19.3582ZM245.373 22.759L256.269 11.6553L253.414 8.85367L242.518 19.9574L245.373 22.759ZM252.841 10.2545V49.4808H256.841V10.2545H252.841ZM320.61 75.1128H318.61V77.1128H320.61V75.1128ZM320.61 21.462H322.61V19.462H320.61V21.462ZM299.337 21.462H297.337V23.462H299.337V21.462ZM299.337 2.47147V0.471473H297.337V2.47147H299.337ZM366.374 2.47147H368.374V0.471473H366.374V2.47147ZM366.374 21.462V23.462H368.374V21.462H366.374ZM345.101 21.462V19.462H343.101V21.462H345.101ZM345.101 75.1128V77.1128H347.101V75.1128H345.101ZM322.61 75.1128V21.462H318.61V75.1128H322.61ZM320.61 19.462H299.337V23.462H320.61V19.462ZM301.337 21.462V2.47147H297.337V21.462H301.337ZM299.337 4.47147H366.374V0.471473H299.337V4.47147ZM364.374 2.47147V21.462H368.374V2.47147H364.374ZM366.374 19.462H345.101V23.462H366.374V19.462ZM343.101 21.462V75.1128H347.101V21.462H343.101ZM345.101 73.1128H320.61V77.1128H345.101V73.1128ZM393.41 73.9713L392.708 75.844L392.717 75.8471L393.41 73.9713ZM380.439 66.0845L379.066 67.5393L379.074 67.5462L379.081 67.5531L380.439 66.0845ZM371.826 53.943L369.99 54.7375L369.995 54.749L370 54.7604L371.826 53.943ZM371.826 23.6412L370 22.8239L369.995 22.8367L371.826 23.6412ZM380.439 11.6035L381.797 13.0721L381.804 13.0652L381.811 13.0583L380.439 11.6035ZM393.41 3.61298L392.717 1.73716L392.708 1.74032L393.41 3.61298ZM426.203 3.61298L425.501 5.48564L425.501 5.48564L426.203 3.61298ZM439.174 11.6035L437.802 13.0583L437.809 13.0652L437.817 13.0721L439.174 11.6035ZM447.684 23.6412L445.848 24.4357L445.856 24.4523L445.863 24.4688L447.684 23.6412ZM447.684 53.943L445.859 53.1257L445.853 53.1371L445.848 53.1486L447.684 53.943ZM439.174 66.0845L440.532 67.5531L440.54 67.5462L440.547 67.5393L439.174 66.0845ZM426.203 73.9713L425.501 72.0986L425.501 72.0986L426.203 73.9713ZM416.137 55.7072L415.372 53.8592L415.361 53.8639L415.349 53.8689L416.137 55.7072ZM421.325 52.1789L419.88 50.7964L419.879 50.7979L421.325 52.1789ZM424.854 46.4714L426.726 47.1736L426.73 47.1642L426.733 47.1548L424.854 46.4714ZM424.854 31.2167L422.974 31.9002L422.978 31.9096L422.981 31.9189L424.854 31.2167ZM421.325 25.5092L419.849 26.8577L419.879 26.8912L419.911 26.9234L421.325 25.5092ZM416.137 21.8771L415.349 23.7154L415.361 23.7203L415.372 23.7251L416.137 21.8771ZM403.373 21.8771L402.608 20.0291L402.596 20.0339L402.585 20.0388L403.373 21.8771ZM398.184 25.5092L396.739 24.1267L396.737 24.1282L398.184 25.5092ZM394.76 31.2167L396.632 31.9189L396.636 31.9096L396.639 31.9002L394.76 31.2167ZM394.76 46.4714L392.88 47.1548L392.883 47.1642L392.887 47.1736L394.76 46.4714ZM398.184 52.1789L396.707 53.5274L396.738 53.561L396.77 53.5931L398.184 52.1789ZM403.373 55.7072L402.585 57.5455L402.596 57.5504L402.608 57.5552L403.373 55.7072ZM409.807 74.7732C404.141 74.7732 398.913 73.874 394.104 72.0955L392.717 75.8471C398.009 77.8044 403.711 78.7732 409.807 78.7732V74.7732ZM394.113 72.0986C389.358 70.3157 385.261 67.8187 381.797 64.616L379.081 67.5531C382.95 71.1301 387.501 73.8911 392.708 75.8439L394.113 72.0986ZM381.811 64.6297C378.338 61.3526 375.62 57.5225 373.651 53.1257L370 54.7604C372.182 59.6339 375.207 63.8982 379.066 67.5393L381.811 64.6297ZM373.661 53.1486C371.772 48.7842 370.816 44.0069 370.816 38.7921H366.816C366.816 44.5081 367.867 49.8315 369.99 54.7375L373.661 53.1486ZM370.816 38.7921C370.816 33.504 371.773 28.7317 373.657 24.4458L369.995 22.8367C367.865 27.6828 366.816 33.0111 366.816 38.7921H370.816ZM373.651 24.4586C375.618 20.0655 378.332 16.2755 381.797 13.0721L379.081 10.135C375.213 13.7114 372.184 17.9466 370 22.8239L373.651 24.4586ZM381.811 13.0583C385.274 9.79164 389.367 7.26545 394.113 5.48564L392.708 1.74032C387.492 3.69635 382.937 6.49718 379.066 10.1487L381.811 13.0583ZM394.104 5.48879C398.913 3.71025 404.141 2.8111 409.807 2.8111V-1.1889C403.711 -1.1889 398.009 -0.220128 392.717 1.73718L394.104 5.48879ZM409.807 2.8111C415.545 2.8111 420.769 3.7113 425.501 5.48564L426.905 1.74032C421.674 -0.221178 415.968 -1.1889 409.807 -1.1889V2.8111ZM425.501 5.48564C430.247 7.26545 434.339 9.79164 437.802 13.0583L440.547 10.1487C436.676 6.49718 432.121 3.69635 426.905 1.74032L425.501 5.48564ZM437.817 13.0721C441.277 16.2708 443.951 20.053 445.848 24.4357L449.519 22.8468C447.404 17.9591 444.406 13.7161 440.532 10.135L437.817 13.0721ZM445.863 24.4688C447.809 28.7491 448.797 33.5133 448.797 38.7921H452.797C452.797 33.0018 451.71 27.6654 449.505 22.8136L445.863 24.4688ZM448.797 38.7921C448.797 43.9976 447.81 48.7667 445.859 53.1257L449.509 54.7604C451.708 49.8489 452.797 44.5175 452.797 38.7921H448.797ZM445.848 53.1486C443.95 57.535 441.271 61.3574 437.802 64.6297L440.547 67.5393C444.412 63.8934 447.405 59.6215 449.519 54.7375L445.848 53.1486ZM437.817 64.616C434.353 67.8187 430.255 70.3157 425.501 72.0986L426.905 75.8439C432.113 73.8911 436.663 71.1301 440.532 67.5531L437.817 64.616ZM425.501 72.0986C420.769 73.873 415.545 74.7732 409.807 74.7732V78.7732C415.968 78.7732 421.674 77.8054 426.905 75.8439L425.501 72.0986ZM409.807 58.9525C412.338 58.9525 414.718 58.491 416.925 57.5455L415.349 53.8689C413.681 54.5838 411.842 54.9525 409.807 54.9525V58.9525ZM416.902 57.5552C419.157 56.622 421.121 55.2898 422.772 53.5598L419.879 50.7979C418.624 52.112 417.129 53.132 415.372 53.8592L416.902 57.5552ZM422.771 53.5613C424.493 51.7606 425.808 49.6218 426.726 47.1736L422.981 45.7691C422.239 47.7486 421.202 49.4148 419.88 50.7964L422.771 53.5613ZM426.733 47.1548C427.655 44.6194 428.099 41.8234 428.099 38.7921H424.099C424.099 41.4338 423.713 43.7573 422.974 45.7879L426.733 47.1548ZM428.099 38.7921C428.099 35.7625 427.656 32.9927 426.726 30.5144L422.981 31.9189C423.712 33.8683 424.099 36.1489 424.099 38.7921H428.099ZM426.733 30.5332C425.816 28.011 424.493 25.8487 422.74 24.0949L419.911 26.9234C421.202 28.2136 422.231 29.8564 422.974 31.9002L426.733 30.5332ZM422.802 24.1606C421.15 22.351 419.177 20.9706 416.902 20.0291L415.372 23.7251C417.109 24.444 418.595 25.485 419.849 26.8577L422.802 24.1606ZM416.925 20.0388C414.718 19.0933 412.338 18.6318 409.807 18.6318V22.6318C411.842 22.6318 413.681 23.0005 415.349 23.7154L416.925 20.0388ZM409.807 18.6318C407.275 18.6318 404.869 19.0934 402.608 20.0291L404.137 23.7251C405.889 23.0004 407.772 22.6318 409.807 22.6318V18.6318ZM402.585 20.0388C400.389 20.9798 398.438 22.3497 396.739 24.1267L399.629 26.8916C400.974 25.4862 402.482 24.4347 404.161 23.7154L402.585 20.0388ZM396.737 24.1282C395.066 25.8788 393.79 28.0302 392.88 30.5332L396.639 31.9002C397.389 29.8372 398.396 28.1835 399.631 26.8901L396.737 24.1282ZM392.887 30.5144C391.958 32.9927 391.514 35.7625 391.514 38.7921H395.514C395.514 36.1489 395.901 33.8683 396.632 31.9189L392.887 30.5144ZM391.514 38.7921C391.514 41.8234 391.958 44.6194 392.88 47.1548L396.639 45.7879C395.901 43.7573 395.514 41.4338 395.514 38.7921H391.514ZM392.887 47.1736C393.798 49.6028 395.066 51.7305 396.707 53.5274L399.661 50.8304C398.396 49.4449 397.382 47.7676 396.632 45.7691L392.887 47.1736ZM396.77 53.5931C398.468 55.2911 400.409 56.6129 402.585 57.5455L404.161 53.8689C402.462 53.1411 400.944 52.1107 399.598 50.7647L396.77 53.5931ZM402.608 57.5552C404.869 58.4909 407.275 58.9525 409.807 58.9525V54.9525C407.772 54.9525 405.889 54.5839 404.137 53.8591L402.608 57.5552Z" fill="white" mask="url(#path-1-outside-1_2033_39)"/>
</svg>
