<svg width="358" height="77" viewBox="0 0 358 77" fill="none" xmlns="http://www.w3.org/2000/svg">
<mask id="path-1-outside-1_2033_25" maskUnits="userSpaceOnUse" x="-2" y="-2" width="362" height="81" fill="black">
<rect fill="white" x="-2" y="-2" width="362" height="81"/>
<path d="M0.614564 75V2.35868H55.9257V21.3492H19.3975L24.69 16.0568V75H0.614564ZM43.4397 75L75.1943 2.35868H99.2697L131.024 75H105.704L82.2509 13.9813H91.7981L68.3453 75H43.4397ZM62.3264 62.3397L68.5528 44.6982H101.968L108.194 62.3397H62.3264ZM150.581 75V16.0568L155.873 21.3492H129.307V2.35868H195.93V21.3492H169.364L174.656 16.0568V75H150.581ZM239.936 76.6604C234.056 76.6604 228.59 75.7264 223.54 73.8585C218.559 71.9906 214.235 69.3616 210.568 65.9717C206.902 62.5126 204.031 58.4655 201.955 53.8302C199.949 49.195 198.946 44.1447 198.946 38.6793C198.946 33.1448 199.949 28.0945 201.955 23.5284C204.031 18.8932 206.902 14.8807 210.568 11.4907C214.235 8.03162 218.559 5.36811 223.54 3.50019C228.59 1.63227 234.056 0.698309 239.936 0.698309C245.886 0.698309 251.351 1.63227 256.332 3.50019C261.313 5.36811 265.637 8.03162 269.304 11.4907C272.971 14.8807 275.807 18.8932 277.813 23.5284C279.889 28.0945 280.927 33.1448 280.927 38.6793C280.927 44.1447 279.889 49.195 277.813 53.8302C275.807 58.4655 272.971 62.5126 269.304 65.9717C265.637 69.3616 261.313 71.9906 256.332 73.8585C251.351 75.7264 245.886 76.6604 239.936 76.6604ZM239.936 56.8397C242.219 56.8397 244.329 56.4246 246.266 55.5944C248.273 54.7642 250.002 53.5881 251.455 52.0661C252.977 50.4749 254.153 48.5724 254.983 46.3586C255.813 44.0756 256.228 41.5158 256.228 38.6793C256.228 35.8429 255.813 33.3177 254.983 31.1039C254.153 28.8209 252.977 26.9184 251.455 25.3964C250.002 23.8052 248.273 22.5945 246.266 21.7643C244.329 20.9341 242.219 20.519 239.936 20.519C237.653 20.519 235.508 20.9341 233.502 21.7643C231.565 22.5945 229.835 23.8052 228.313 25.3964C226.861 26.9184 225.719 28.8209 224.889 31.1039C224.059 33.3177 223.644 35.8429 223.644 38.6793C223.644 41.5158 224.059 44.0756 224.889 46.3586C225.719 48.5724 226.861 50.4749 228.313 52.0661C229.835 53.5881 231.565 54.7642 233.502 55.5944C235.508 56.4246 237.653 56.8397 239.936 56.8397ZM289.741 75V2.35868H324.712C331.492 2.35868 337.338 3.4656 342.25 5.67943C347.231 7.89326 351.071 11.0756 353.769 15.2266C356.467 19.3083 357.816 24.1511 357.816 29.7548C357.816 35.3586 356.467 40.2013 353.769 44.2831C351.071 48.3648 347.231 51.5472 342.25 53.8302C337.338 56.0441 331.492 57.151 324.712 57.151H303.335L314.231 46.6699V75H289.741ZM314.231 49.368L303.335 38.2642H323.156C326.546 38.2642 329.036 37.5032 330.627 35.9812C332.288 34.4592 333.118 32.3838 333.118 29.7548C333.118 27.1259 332.288 25.0504 330.627 23.5284C329.036 22.0064 326.546 21.2454 323.156 21.2454H303.335L314.231 10.1417V49.368Z"/>
</mask>
<path d="M0.614564 75V2.35868H55.9257V21.3492H19.3975L24.69 16.0568V75H0.614564ZM43.4397 75L75.1943 2.35868H99.2697L131.024 75H105.704L82.2509 13.9813H91.7981L68.3453 75H43.4397ZM62.3264 62.3397L68.5528 44.6982H101.968L108.194 62.3397H62.3264ZM150.581 75V16.0568L155.873 21.3492H129.307V2.35868H195.93V21.3492H169.364L174.656 16.0568V75H150.581ZM239.936 76.6604C234.056 76.6604 228.59 75.7264 223.54 73.8585C218.559 71.9906 214.235 69.3616 210.568 65.9717C206.902 62.5126 204.031 58.4655 201.955 53.8302C199.949 49.195 198.946 44.1447 198.946 38.6793C198.946 33.1448 199.949 28.0945 201.955 23.5284C204.031 18.8932 206.902 14.8807 210.568 11.4907C214.235 8.03162 218.559 5.36811 223.54 3.50019C228.59 1.63227 234.056 0.698309 239.936 0.698309C245.886 0.698309 251.351 1.63227 256.332 3.50019C261.313 5.36811 265.637 8.03162 269.304 11.4907C272.971 14.8807 275.807 18.8932 277.813 23.5284C279.889 28.0945 280.927 33.1448 280.927 38.6793C280.927 44.1447 279.889 49.195 277.813 53.8302C275.807 58.4655 272.971 62.5126 269.304 65.9717C265.637 69.3616 261.313 71.9906 256.332 73.8585C251.351 75.7264 245.886 76.6604 239.936 76.6604ZM239.936 56.8397C242.219 56.8397 244.329 56.4246 246.266 55.5944C248.273 54.7642 250.002 53.5881 251.455 52.0661C252.977 50.4749 254.153 48.5724 254.983 46.3586C255.813 44.0756 256.228 41.5158 256.228 38.6793C256.228 35.8429 255.813 33.3177 254.983 31.1039C254.153 28.8209 252.977 26.9184 251.455 25.3964C250.002 23.8052 248.273 22.5945 246.266 21.7643C244.329 20.9341 242.219 20.519 239.936 20.519C237.653 20.519 235.508 20.9341 233.502 21.7643C231.565 22.5945 229.835 23.8052 228.313 25.3964C226.861 26.9184 225.719 28.8209 224.889 31.1039C224.059 33.3177 223.644 35.8429 223.644 38.6793C223.644 41.5158 224.059 44.0756 224.889 46.3586C225.719 48.5724 226.861 50.4749 228.313 52.0661C229.835 53.5881 231.565 54.7642 233.502 55.5944C235.508 56.4246 237.653 56.8397 239.936 56.8397ZM289.741 75V2.35868H324.712C331.492 2.35868 337.338 3.4656 342.25 5.67943C347.231 7.89326 351.071 11.0756 353.769 15.2266C356.467 19.3083 357.816 24.1511 357.816 29.7548C357.816 35.3586 356.467 40.2013 353.769 44.2831C351.071 48.3648 347.231 51.5472 342.25 53.8302C337.338 56.0441 331.492 57.151 324.712 57.151H303.335L314.231 46.6699V75H289.741ZM314.231 49.368L303.335 38.2642H323.156C326.546 38.2642 329.036 37.5032 330.627 35.9812C332.288 34.4592 333.118 32.3838 333.118 29.7548C333.118 27.1259 332.288 25.0504 330.627 23.5284C329.036 22.0064 326.546 21.2454 323.156 21.2454H303.335L314.231 10.1417V49.368Z" fill="white"/>
<path d="M0.614564 75H-1.38544V77H0.614564V75ZM0.614564 2.35868V0.35868H-1.38544V2.35868H0.614564ZM55.9257 2.35868H57.9257V0.35868H55.9257V2.35868ZM55.9257 21.3492V23.3492H57.9257V21.3492H55.9257ZM19.3975 21.3492L17.9833 19.935L14.5691 23.3492H19.3975V21.3492ZM24.69 16.0568H26.69V11.2283L23.2758 14.6425L24.69 16.0568ZM24.69 75V77H26.69V75H24.69ZM2.61456 75V2.35868H-1.38544V75H2.61456ZM0.614564 4.35868H55.9257V0.35868H0.614564V4.35868ZM53.9257 2.35868V21.3492H57.9257V2.35868H53.9257ZM55.9257 19.3492H19.3975V23.3492H55.9257V19.3492ZM20.8117 22.7634L26.1042 17.471L23.2758 14.6425L17.9833 19.935L20.8117 22.7634ZM22.69 16.0568V75H26.69V16.0568H22.69ZM24.69 73H0.614564V77H24.69V73ZM43.4397 75L41.6071 74.1989L40.3827 77H43.4397V75ZM75.1943 2.35868V0.35868H73.8859L73.3618 1.55759L75.1943 2.35868ZM99.2697 2.35868L101.102 1.55759L100.578 0.35868H99.2697V2.35868ZM131.024 75V77H134.081L132.857 74.1989L131.024 75ZM105.704 75L103.837 75.7175L104.33 77H105.704V75ZM82.2509 13.9813V11.9813H79.3396L80.3841 14.6988L82.2509 13.9813ZM91.7981 13.9813L93.6649 14.6988L94.7094 11.9813H91.7981V13.9813ZM68.3453 75V77H69.7192L70.2122 75.7175L68.3453 75ZM62.3264 62.3397L60.4405 61.674L59.4996 64.3397H62.3264V62.3397ZM68.5528 44.6982V42.6982H67.1378L66.6669 44.0326L68.5528 44.6982ZM101.968 44.6982L103.854 44.0326L103.383 42.6982H101.968V44.6982ZM108.194 62.3397V64.3397H111.021L110.08 61.674L108.194 62.3397ZM45.2723 75.8011L77.0269 3.15977L73.3618 1.55759L41.6071 74.1989L45.2723 75.8011ZM75.1943 4.35868H99.2697V0.35868H75.1943V4.35868ZM97.4372 3.15977L129.192 75.8011L132.857 74.1989L101.102 1.55759L97.4372 3.15977ZM131.024 73H105.704V77H131.024V73ZM107.571 74.2825L84.1178 13.2638L80.3841 14.6988L103.837 75.7175L107.571 74.2825ZM82.2509 15.9813H91.7981V11.9813H82.2509V15.9813ZM89.9312 13.2638L66.4784 74.2825L70.2122 75.7175L93.6649 14.6988L89.9312 13.2638ZM68.3453 73H43.4397V77H68.3453V73ZM64.2124 63.0053L70.4388 45.3638L66.6669 44.0326L60.4405 61.674L64.2124 63.0053ZM68.5528 46.6982H101.968V42.6982H68.5528V46.6982ZM100.082 45.3638L106.308 63.0053L110.08 61.674L103.854 44.0326L100.082 45.3638ZM108.194 60.3397H62.3264V64.3397H108.194V60.3397ZM150.581 75H148.581V77H150.581V75ZM150.581 16.0568L151.995 14.6425L148.581 11.2283V16.0568H150.581ZM155.873 21.3492V23.3492H160.702L157.287 19.935L155.873 21.3492ZM129.307 21.3492H127.307V23.3492H129.307V21.3492ZM129.307 2.35868V0.35868H127.307V2.35868H129.307ZM195.93 2.35868H197.93V0.35868H195.93V2.35868ZM195.93 21.3492V23.3492H197.93V21.3492H195.93ZM169.364 21.3492L167.95 19.935L164.535 23.3492H169.364V21.3492ZM174.656 16.0568H176.656V11.2283L173.242 14.6425L174.656 16.0568ZM174.656 75V77H176.656V75H174.656ZM152.581 75V16.0568H148.581V75H152.581ZM149.167 17.471L154.459 22.7634L157.287 19.935L151.995 14.6425L149.167 17.471ZM155.873 19.3492H129.307V23.3492H155.873V19.3492ZM131.307 21.3492V2.35868H127.307V21.3492H131.307ZM129.307 4.35868H195.93V0.35868H129.307V4.35868ZM193.93 2.35868V21.3492H197.93V2.35868H193.93ZM195.93 19.3492H169.364V23.3492H195.93V19.3492ZM170.778 22.7634L176.07 17.471L173.242 14.6425L167.95 19.935L170.778 22.7634ZM172.656 16.0568V75H176.656V16.0568H172.656ZM174.656 73H150.581V77H174.656V73ZM223.54 73.8585L222.838 75.7312L222.846 75.7343L223.54 73.8585ZM210.568 65.9717L209.196 67.4265L209.203 67.4334L209.211 67.4403L210.568 65.9717ZM201.955 53.8302L200.12 54.6247L200.125 54.6362L200.13 54.6476L201.955 53.8302ZM201.955 23.5284L200.13 22.7111L200.124 22.7239L201.955 23.5284ZM210.568 11.4907L211.926 12.9593L211.933 12.9524L211.941 12.9455L210.568 11.4907ZM223.54 3.50019L222.846 1.62436L222.838 1.62753L223.54 3.50019ZM256.332 3.50019L255.63 5.37285L255.63 5.37285L256.332 3.50019ZM269.304 11.4907L267.931 12.9455L267.939 12.9524L267.946 12.9593L269.304 11.4907ZM277.813 23.5284L275.978 24.3229L275.985 24.3395L275.993 24.356L277.813 23.5284ZM277.813 53.8302L275.988 53.0129L275.983 53.0243L275.978 53.0358L277.813 53.8302ZM269.304 65.9717L270.662 67.4403L270.669 67.4334L270.676 67.4265L269.304 65.9717ZM256.332 73.8585L257.035 75.7312L257.035 75.7312L256.332 73.8585ZM246.266 55.5944L245.502 53.7464L245.49 53.7512L245.478 53.7561L246.266 55.5944ZM251.455 52.0661L250.01 50.6837L250.008 50.6851L251.455 52.0661ZM254.983 46.3586L256.856 47.0608L256.859 47.0514L256.863 47.0421L254.983 46.3586ZM254.983 31.1039L253.104 31.7874L253.107 31.7968L253.111 31.8061L254.983 31.1039ZM251.455 25.3964L249.978 26.7449L250.009 26.7784L250.041 26.8106L251.455 25.3964ZM246.266 21.7643L245.478 23.6026L245.49 23.6075L245.502 23.6123L246.266 21.7643ZM233.502 21.7643L232.737 19.9163L232.726 19.9211L232.714 19.926L233.502 21.7643ZM228.313 25.3964L226.868 24.0139L226.867 24.0154L228.313 25.3964ZM224.889 31.1039L226.762 31.8061L226.765 31.7968L226.769 31.7874L224.889 31.1039ZM224.889 46.3586L223.009 47.0421L223.013 47.0514L223.016 47.0608L224.889 46.3586ZM228.313 52.0661L226.837 53.4146L226.867 53.4482L226.899 53.4803L228.313 52.0661ZM233.502 55.5944L232.714 57.4327L232.726 57.4376L232.737 57.4424L233.502 55.5944ZM239.936 74.6604C234.271 74.6604 229.042 73.7612 224.234 71.9827L222.846 75.7343C228.138 77.6916 233.841 78.6604 239.936 78.6604V74.6604ZM224.242 71.9858C219.488 70.2029 215.39 67.7059 211.926 64.5032L209.211 67.4403C213.08 71.0174 217.63 73.7783 222.838 75.7312L224.242 71.9858ZM211.941 64.5169C208.467 61.2398 205.749 57.4098 203.78 53.0129L200.13 54.6476C202.312 59.5211 205.336 63.7854 209.196 67.4265L211.941 64.5169ZM203.79 53.0358C201.901 48.6714 200.946 43.8941 200.946 38.6793H196.946C196.946 44.3953 197.996 49.7187 200.12 54.6247L203.79 53.0358ZM200.946 38.6793C200.946 33.3912 201.903 28.6189 203.786 24.333L200.124 22.7239C197.995 27.57 196.946 32.8983 196.946 38.6793H200.946ZM203.78 24.3458C205.747 19.9527 208.461 16.1627 211.926 12.9593L209.211 10.0222C205.342 13.5986 202.314 17.8338 200.13 22.7111L203.78 24.3458ZM211.941 12.9455C215.403 9.67885 219.496 7.15266 224.242 5.37285L222.838 1.62753C217.622 3.58355 213.066 6.38439 209.196 10.0359L211.941 12.9455ZM224.234 5.376C229.042 3.59746 234.271 2.69831 239.936 2.69831V-1.30169C233.841 -1.30169 228.138 -0.332921 222.846 1.62438L224.234 5.376ZM239.936 2.69831C245.674 2.69831 250.898 3.59851 255.63 5.37285L257.035 1.62753C251.804 -0.33397 246.097 -1.30169 239.936 -1.30169V2.69831ZM255.63 5.37285C260.376 7.15266 264.469 9.67885 267.931 12.9455L270.676 10.0359C266.806 6.38439 262.251 3.58355 257.035 1.62753L255.63 5.37285ZM267.946 12.9593C271.406 16.158 274.081 19.9402 275.978 24.3229L279.649 22.734C277.533 17.8463 274.535 13.6033 270.662 10.0222L267.946 12.9593ZM275.993 24.356C277.938 28.6363 278.927 33.4005 278.927 38.6793H282.927C282.927 32.889 281.839 27.5526 279.634 22.7008L275.993 24.356ZM278.927 38.6793C278.927 43.8848 277.94 48.654 275.988 53.0129L279.639 54.6476C281.838 49.7361 282.927 44.4047 282.927 38.6793H278.927ZM275.978 53.0358C274.079 57.4222 271.4 61.2446 267.931 64.5169L270.676 67.4265C274.541 63.7806 277.535 59.5087 279.649 54.6247L275.978 53.0358ZM267.946 64.5032C264.482 67.7059 260.385 70.2029 255.63 71.9858L257.035 75.7312C262.242 73.7783 266.793 71.0174 270.662 67.4403L267.946 64.5032ZM255.63 71.9858C250.898 73.7602 245.674 74.6604 239.936 74.6604V78.6604C246.097 78.6604 251.804 77.6927 257.035 75.7312L255.63 71.9858ZM239.936 58.8397C242.467 58.8397 244.848 58.3782 247.054 57.4327L245.478 53.7561C243.81 54.471 241.971 54.8397 239.936 54.8397V58.8397ZM247.031 57.4424C249.286 56.5092 251.25 55.177 252.902 53.447L250.008 50.6851C248.754 51.9992 247.259 53.0192 245.502 53.7464L247.031 57.4424ZM252.9 53.4485C254.623 51.6478 255.938 49.509 256.856 47.0608L253.111 45.6563C252.368 47.6358 251.331 49.302 250.01 50.6837L252.9 53.4485ZM256.863 47.0421C257.785 44.5066 258.228 41.7106 258.228 38.6793H254.228C254.228 41.321 253.842 43.6445 253.104 45.6751L256.863 47.0421ZM258.228 38.6793C258.228 35.6497 257.785 32.8799 256.856 30.4016L253.111 31.8061C253.842 33.7555 254.228 36.0361 254.228 38.6793H258.228ZM256.863 30.4204C255.946 27.8982 254.623 25.7359 252.869 23.9821L250.041 26.8106C251.331 28.1008 252.36 29.7436 253.104 31.7874L256.863 30.4204ZM252.932 24.0478C251.28 22.2382 249.306 20.8578 247.031 19.9163L245.502 23.6123C247.239 24.3312 248.725 25.3722 249.978 26.7449L252.932 24.0478ZM247.054 19.926C244.848 18.9805 242.467 18.519 239.936 18.519V22.519C241.971 22.519 243.81 22.8877 245.478 23.6026L247.054 19.926ZM239.936 18.519C237.404 18.519 234.999 18.9806 232.737 19.9163L234.267 23.6123C236.018 22.8876 237.902 22.519 239.936 22.519V18.519ZM232.714 19.926C230.519 20.867 228.568 22.2369 226.868 24.0139L229.759 26.7788C231.103 25.3734 232.612 24.3219 234.29 23.6026L232.714 19.926ZM226.867 24.0154C225.196 25.766 223.92 27.9174 223.009 30.4204L226.769 31.7874C227.519 29.7244 228.526 28.0707 229.76 26.7773L226.867 24.0154ZM223.016 30.4016C222.087 32.8799 221.644 35.6497 221.644 38.6793H225.644C225.644 36.0361 226.031 33.7555 226.762 31.8061L223.016 30.4016ZM221.644 38.6793C221.644 41.7106 222.087 44.5066 223.009 47.0421L226.769 45.6751C226.03 43.6445 225.644 41.321 225.644 38.6793H221.644ZM223.016 47.0608C223.927 49.49 225.196 51.6177 226.837 53.4146L229.79 50.7176C228.526 49.3322 227.511 47.6548 226.762 45.6563L223.016 47.0608ZM226.899 53.4803C228.597 55.1783 230.538 56.5001 232.714 57.4327L234.29 53.7561C232.592 53.0283 231.074 51.9979 229.728 50.6519L226.899 53.4803ZM232.737 57.4424C234.999 58.3781 237.404 58.8397 239.936 58.8397V54.8397C237.902 54.8397 236.018 54.4711 234.267 53.7464L232.737 57.4424ZM289.741 75H287.741V77H289.741V75ZM289.741 2.35868V0.35868H287.741V2.35868H289.741ZM342.25 5.67943L341.428 7.50281L341.438 7.50705L342.25 5.67943ZM353.769 15.2266L352.092 16.3165L352.096 16.323L352.1 16.3294L353.769 15.2266ZM353.769 44.2831L352.1 43.1802L352.1 43.1802L353.769 44.2831ZM342.25 53.8302L343.072 55.6536L343.083 55.6484L342.25 53.8302ZM303.335 57.151L301.949 55.7096L298.371 59.151H303.335V57.151ZM314.231 46.6699H316.231V41.971L312.845 45.2285L314.231 46.6699ZM314.231 75V77H316.231V75H314.231ZM314.231 49.368L312.804 50.7688L316.231 54.2616V49.368H314.231ZM303.335 38.2642V36.2642H298.57L301.908 39.6651L303.335 38.2642ZM330.627 35.9812L329.276 34.5069L329.26 34.5213L329.245 34.536L330.627 35.9812ZM330.627 23.5284L329.245 24.9737L329.26 24.9884L329.276 25.0027L330.627 23.5284ZM303.335 21.2454L301.908 19.8446L298.57 23.2454H303.335V21.2454ZM314.231 10.1417H316.231V5.2481L312.804 8.74087L314.231 10.1417ZM291.741 75V2.35868H287.741V75H291.741ZM289.741 4.35868H324.712V0.35868H289.741V4.35868ZM324.712 4.35868C331.28 4.35868 336.832 5.43136 341.428 7.50279L343.072 3.85606C337.844 1.49983 331.705 0.35868 324.712 0.35868V4.35868ZM341.438 7.50705C346.103 9.58026 349.626 12.5224 352.092 16.3165L355.446 14.1366C352.516 9.62892 348.36 6.20625 343.062 3.8518L341.438 7.50705ZM352.1 16.3294C354.552 20.0383 355.816 24.4847 355.816 29.7548H359.816C359.816 23.8175 358.382 18.5783 355.437 14.1237L352.1 16.3294ZM355.816 29.7548C355.816 35.025 354.552 39.4713 352.1 43.1802L355.437 45.386C358.382 40.9314 359.816 35.6922 359.816 29.7548H355.816ZM352.1 43.1802C349.632 46.9139 346.1 49.8656 341.417 52.0121L343.083 55.6484C348.362 53.2289 352.509 49.8158 355.437 45.386L352.1 43.1802ZM341.428 52.0069C336.832 54.0783 331.28 55.151 324.712 55.151V59.151C331.705 59.151 337.844 58.0098 343.072 55.6536L341.428 52.0069ZM324.712 55.151H303.335V59.151H324.712V55.151ZM304.722 58.5924L315.618 48.1113L312.845 45.2285L301.949 55.7096L304.722 58.5924ZM312.231 46.6699V75H316.231V46.6699H312.231ZM314.231 73H289.741V77H314.231V73ZM315.659 47.9672L304.763 36.8634L301.908 39.6651L312.804 50.7688L315.659 47.9672ZM303.335 40.2642H323.156V36.2642H303.335V40.2642ZM323.156 40.2642C326.791 40.2642 329.889 39.4554 332.01 37.4265L329.245 34.536C328.184 35.5511 326.301 36.2642 323.156 36.2642V40.2642ZM331.979 37.4555C334.123 35.4905 335.118 32.8418 335.118 29.7548H331.118C331.118 31.9257 330.453 33.4279 329.276 34.5069L331.979 37.4555ZM335.118 29.7548C335.118 26.6679 334.123 24.0191 331.979 22.0541L329.276 25.0027C330.453 26.0817 331.118 27.5839 331.118 29.7548H335.118ZM332.01 22.0832C329.889 20.0543 326.791 19.2454 323.156 19.2454V23.2454C326.301 23.2454 328.184 23.9585 329.245 24.9737L332.01 22.0832ZM323.156 19.2454H303.335V23.2454H323.156V19.2454ZM304.763 22.6462L315.659 11.5425L312.804 8.74087L301.908 19.8446L304.763 22.6462ZM312.231 10.1417V49.368H316.231V10.1417H312.231Z" fill="white" mask="url(#path-1-outside-1_2033_25)"/>
</svg>
