<svg width="630" height="168" viewBox="0 0 630 168" fill="none" xmlns="http://www.w3.org/2000/svg">
<g opacity="0.15">
<mask id="path-1-outside-1_12_8304" maskUnits="userSpaceOnUse" x="-3" y="-3" width="636" height="174" fill="black">
<rect fill="white" x="-3" y="-3" width="636" height="174"/>
<path d="M61.7518 2.37601C79 2.37601 94.0726 5.79456 106.97 12.6316C119.867 19.4687 129.812 29.1028 136.804 41.5339C143.952 53.8096 147.526 68.0276 147.526 84.188C147.526 100.193 143.952 114.411 136.804 126.842C129.812 139.273 119.789 148.907 106.737 155.744C93.8396 162.581 78.8446 166 61.7518 166H0.451122V2.37601H61.7518ZM59.1879 131.504C74.2606 131.504 85.9924 127.386 94.3834 119.15C102.774 110.915 106.97 99.2607 106.97 84.188C106.97 69.1153 102.774 57.3835 94.3834 48.9925C85.9924 40.6016 74.2606 36.4061 59.1879 36.4061H40.3082V131.504H59.1879ZM253.244 166L219.214 104.233H209.657V166H169.8V2.37601H236.695C249.592 2.37601 260.547 4.62914 269.56 9.1354C278.727 13.6417 285.565 19.8572 290.071 27.782C294.577 35.5514 296.83 44.2532 296.83 53.8873C296.83 64.7645 293.722 74.4762 287.507 83.0226C281.447 91.569 272.434 97.6291 260.469 101.203L298.229 166H253.244ZM209.657 76.0301H234.364C241.667 76.0301 247.106 74.2431 250.68 70.6692C254.409 67.0953 256.274 62.0452 256.274 55.5188C256.274 49.3033 254.409 44.4086 250.68 40.8346C247.106 37.2607 241.667 35.4737 234.364 35.4737H209.657V76.0301ZM399.234 167.632C383.85 167.632 369.71 164.058 356.813 156.91C344.071 149.762 333.893 139.817 326.279 127.075C318.82 114.178 315.091 99.7268 315.091 83.7218C315.091 67.7168 318.82 53.3434 326.279 40.6016C333.893 27.8597 344.071 17.9149 356.813 10.767C369.71 3.61912 383.85 0.0451889 399.234 0.0451889C414.617 0.0451889 428.68 3.61912 441.422 10.767C454.319 17.9149 464.419 27.8597 471.722 40.6016C479.181 53.3434 482.91 67.7168 482.91 83.7218C482.91 99.7268 479.181 114.178 471.722 127.075C464.264 139.817 454.163 149.762 441.422 156.91C428.68 164.058 414.617 167.632 399.234 167.632ZM399.234 131.271C412.286 131.271 422.697 126.92 430.467 118.218C438.391 109.516 442.354 98.0176 442.354 83.7218C442.354 69.2707 438.391 57.772 430.467 49.2256C422.697 40.5239 412.286 36.173 399.234 36.173C386.026 36.173 375.459 40.4462 367.534 48.9925C359.765 57.5389 355.88 69.1153 355.88 83.7218C355.88 98.173 359.765 109.749 367.534 118.451C375.459 126.998 386.026 131.271 399.234 131.271ZM629.783 55.0527C629.783 64.5314 627.608 73.2331 623.257 81.1579C618.906 88.9274 612.224 95.2206 603.212 100.038C594.199 104.855 583.011 107.263 569.648 107.263H544.941V166H505.084V2.37601H569.648C582.701 2.37601 593.733 4.62914 602.746 9.1354C611.758 13.6417 618.518 19.8572 623.024 27.782C627.53 35.7068 629.783 44.797 629.783 55.0527ZM566.618 75.564C574.232 75.564 579.904 73.777 583.633 70.2031C587.362 66.6291 589.227 61.579 589.227 55.0527C589.227 48.5264 587.362 43.4762 583.633 39.9023C579.904 36.3284 574.232 34.5414 566.618 34.5414H544.941V75.564H566.618Z"/>
</mask>
<path d="M106.97 12.6316L108.386 9.96062L106.97 12.6316ZM136.804 41.5339L134.17 43.016L134.181 43.0356L134.192 43.0551L136.804 41.5339ZM136.804 126.842L134.184 125.335L134.177 125.348L134.17 125.36L136.804 126.842ZM106.737 155.744L105.334 153.066L105.327 153.07L105.321 153.073L106.737 155.744ZM0.451121 166H-2.572V169.023H0.451121V166ZM0.451121 2.37601V-0.64711H-2.572V2.37601H0.451121ZM40.3082 36.4061V33.3829H37.2851V36.4061H40.3082ZM40.3082 131.504H37.2851V134.527H40.3082V131.504ZM61.7518 5.39913C78.5958 5.39913 93.1656 8.73537 105.554 15.3027L108.386 9.96062C94.9797 2.85374 79.4041 -0.64711 61.7518 -0.64711V5.39913ZM105.554 15.3027C117.952 21.8752 127.468 31.1022 134.17 43.016L139.439 40.0518C132.156 27.1034 121.782 17.0623 108.386 9.96062L105.554 15.3027ZM134.192 43.0551C141.036 54.8082 144.503 68.4872 144.503 84.188H150.549C150.549 67.5681 146.869 52.8109 139.417 40.0127L134.192 43.0551ZM144.503 84.188C144.503 99.727 141.038 113.414 134.184 125.335L139.425 128.349C146.866 115.408 150.549 100.659 150.549 84.188H144.503ZM134.17 125.36C127.473 137.264 117.887 146.491 105.334 153.066L108.14 158.422C121.692 151.324 132.15 141.282 139.439 128.324L134.17 125.36ZM105.321 153.073C92.9288 159.643 78.4354 162.977 61.7518 162.977V169.023C79.2537 169.023 94.7503 165.52 108.153 158.415L105.321 153.073ZM61.7518 162.977H0.451121V169.023H61.7518V162.977ZM3.47424 166V2.37601H-2.572V166H3.47424ZM0.451121 5.39913H61.7518V-0.64711H0.451121V5.39913ZM59.1879 134.527C74.8194 134.527 87.3977 130.243 96.501 121.308L92.2658 116.993C84.5872 124.529 73.7019 128.481 59.1879 128.481V134.527ZM96.501 121.308C105.623 112.355 109.993 99.8319 109.993 84.188H103.947C103.947 98.6895 99.926 109.475 92.2658 116.993L96.501 121.308ZM109.993 84.188C109.993 68.5411 105.622 55.9556 96.5211 46.8549L92.2457 51.1302C99.9269 58.8114 103.947 69.6895 103.947 84.188H109.993ZM96.5211 46.8549C87.4203 37.7541 74.8348 33.3829 59.1879 33.3829V39.4292C73.6864 39.4292 84.5646 43.449 92.2457 51.1302L96.5211 46.8549ZM59.1879 33.3829H40.3082V39.4292H59.1879V33.3829ZM37.2851 36.4061V131.504H43.3314V36.4061H37.2851ZM40.3082 134.527H59.1879V128.481H40.3082V134.527ZM253.244 166L250.596 167.459L251.458 169.023H253.244V166ZM219.214 104.233L221.862 102.774L221 101.21H219.214V104.233ZM209.657 104.233V101.21H206.634V104.233H209.657ZM209.657 166V169.023H212.68V166H209.657ZM169.8 166H166.777V169.023H169.8V166ZM169.8 2.37601V-0.64711H166.777V2.37601H169.8ZM269.56 9.13541L268.208 11.8394L268.217 11.844L268.226 11.8485L269.56 9.13541ZM290.071 27.782L287.443 29.2763L287.449 29.2876L287.456 29.2988L290.071 27.782ZM287.507 83.0226L285.062 81.2445L285.051 81.2591L285.041 81.2739L287.507 83.0226ZM260.469 101.203L259.604 98.3064L255.923 99.4059L257.857 102.725L260.469 101.203ZM298.229 166V169.023H303.489L300.841 164.478L298.229 166ZM209.657 76.0301H206.634V79.0532H209.657V76.0301ZM250.68 70.6692L248.588 68.4866L248.565 68.5088L248.542 68.5315L250.68 70.6692ZM250.68 40.8346L248.542 42.9723L248.565 42.9951L248.588 43.0173L250.68 40.8346ZM209.657 35.4737V32.4506H206.634V35.4737H209.657ZM255.892 164.541L221.862 102.774L216.566 105.692L250.596 167.459L255.892 164.541ZM219.214 101.21H209.657V107.256H219.214V101.21ZM206.634 104.233V166H212.68V104.233H206.634ZM209.657 162.977H169.8V169.023H209.657V162.977ZM172.823 166V2.37601H166.777V166H172.823ZM169.8 5.39913H236.695V-0.64711H169.8V5.39913ZM236.695 5.39913C249.25 5.39913 259.716 7.59337 268.208 11.8394L270.912 6.43144C261.378 1.66492 249.934 -0.64711 236.695 -0.64711V5.39913ZM268.226 11.8485C276.918 16.1209 283.272 21.9406 287.443 29.2763L292.699 26.2877C287.858 17.7738 280.537 11.1624 270.893 6.42231L268.226 11.8485ZM287.456 29.2988C291.675 36.5739 293.807 44.7458 293.807 53.8873H299.853C299.853 43.7605 297.479 34.5289 292.686 26.2653L287.456 29.2988ZM293.807 53.8873C293.807 64.1456 290.89 73.2308 285.062 81.2445L289.952 84.8007C296.555 75.7216 299.853 65.3833 299.853 53.8873H293.807ZM285.041 81.2739C279.442 89.1693 271.051 94.8872 259.604 98.3064L261.335 104.1C273.818 100.371 283.451 93.9686 289.973 84.7713L285.041 81.2739ZM257.857 102.725L295.617 167.522L300.841 164.478L263.081 99.6809L257.857 102.725ZM298.229 162.977H253.244V169.023H298.229V162.977ZM209.657 79.0532H234.364V73.007H209.657V79.0532ZM234.364 79.0532C242.111 79.0532 248.466 77.1586 252.818 72.8069L248.542 68.5315C245.746 71.3277 241.223 73.007 234.364 73.007V79.0532ZM252.772 72.8519C257.244 68.5661 259.297 62.6392 259.297 55.5188H253.251C253.251 61.4511 251.575 65.6245 248.588 68.4866L252.772 72.8519ZM259.297 55.5188C259.297 48.6596 257.215 42.9099 252.772 38.652L248.588 43.0173C251.604 45.9072 253.251 49.947 253.251 55.5188H259.297ZM252.818 38.697C248.466 34.3453 242.111 32.4506 234.364 32.4506V38.4969C241.223 38.4969 245.746 40.1762 248.542 42.9723L252.818 38.697ZM234.364 32.4506H209.657V38.4969H234.364V32.4506ZM206.634 35.4737V76.0301H212.68V35.4737H206.634ZM356.813 156.91L355.333 159.546L355.34 159.55L355.347 159.554L356.813 156.91ZM326.279 127.075L323.662 128.589L323.673 128.607L323.684 128.626L326.279 127.075ZM326.279 40.6015L323.684 39.0508L323.677 39.0625L323.67 39.0743L326.279 40.6015ZM356.813 10.767L355.347 8.1228L355.34 8.12658L355.333 8.13039L356.813 10.767ZM441.422 10.767L439.942 13.4036L439.949 13.4074L439.956 13.4112L441.422 10.767ZM471.722 40.6015L469.099 42.1049L469.106 42.1169L469.113 42.1288L471.722 40.6015ZM471.722 127.075L474.331 128.602L474.335 128.596L474.339 128.589L471.722 127.075ZM441.422 156.91L442.901 159.546L441.422 156.91ZM430.467 118.218L428.232 116.183L428.222 116.194L428.212 116.205L430.467 118.218ZM430.467 49.2256L428.212 51.2391L428.231 51.2603L428.25 51.2811L430.467 49.2256ZM367.534 48.9925L365.318 46.937L365.307 46.9479L365.297 46.959L367.534 48.9925ZM367.534 118.451L365.279 120.465L365.298 120.486L365.318 120.507L367.534 118.451ZM399.234 164.608C384.34 164.608 370.707 161.154 358.278 154.266L355.347 159.554C368.713 166.961 383.36 170.655 399.234 170.655V164.608ZM358.292 154.273C346.018 147.388 336.222 137.821 328.874 125.524L323.684 128.626C331.564 141.813 342.124 152.136 355.333 159.546L358.292 154.273ZM328.896 125.562C321.723 113.159 318.114 99.2363 318.114 83.7218H312.068C312.068 100.217 315.917 115.197 323.662 128.589L328.896 125.562ZM318.114 83.7218C318.114 68.2071 321.723 54.3687 328.888 42.1288L323.67 39.0743C315.917 52.3181 312.068 67.2266 312.068 83.7218H318.114ZM328.874 42.1523C336.222 29.856 346.018 20.2889 358.292 13.4036L355.333 8.13039C342.124 15.5409 331.564 25.8634 323.684 39.0508L328.874 42.1523ZM358.278 13.4112C370.707 6.52277 384.34 3.06831 399.234 3.06831V-2.97793C383.36 -2.97793 368.713 0.715469 355.347 8.1228L358.278 13.4112ZM399.234 3.06831C414.128 3.06831 427.677 6.52271 439.942 13.4036L442.901 8.13039C429.683 0.715538 415.107 -2.97793 399.234 -2.97793V3.06831ZM439.956 13.4112C452.373 20.2927 462.072 29.8439 469.099 42.1049L474.345 39.0982C466.766 25.8755 456.265 15.537 442.887 8.1228L439.956 13.4112ZM469.113 42.1288C476.278 54.3687 479.887 68.2071 479.887 83.7218H485.933C485.933 67.2266 482.084 52.3181 474.331 39.0743L469.113 42.1288ZM479.887 83.7218C479.887 99.2363 476.278 113.159 469.105 125.562L474.339 128.589C482.084 115.197 485.933 100.217 485.933 83.7218H479.887ZM469.113 125.548C461.923 137.831 452.211 147.391 439.942 154.273L442.901 159.546C456.116 152.133 466.604 141.803 474.331 128.602L469.113 125.548ZM439.942 154.273C427.677 161.154 414.128 164.608 399.234 164.608V170.655C415.107 170.655 429.683 166.961 442.901 159.546L439.942 154.273ZM399.234 134.294C413.033 134.294 424.307 129.656 432.722 120.232L428.212 116.205C421.088 124.184 411.539 128.248 399.234 128.248V134.294ZM432.702 120.254C441.237 110.881 445.377 98.6006 445.377 83.7218H439.331C439.331 97.4345 435.546 108.151 428.232 116.183L432.702 120.254ZM445.377 83.7218C445.377 68.6999 441.244 56.4016 432.683 47.1701L428.25 51.2811C435.539 59.1424 439.331 69.8416 439.331 83.7218H445.377ZM432.722 47.2122C424.307 37.7876 413.033 33.1499 399.234 33.1499V39.1961C411.539 39.1961 421.088 43.2601 428.212 51.2391L432.722 47.2122ZM399.234 33.1499C385.308 33.1499 373.893 37.6885 365.318 46.937L369.751 51.0481C377.025 43.2038 386.743 39.1961 399.234 39.1961V33.1499ZM365.297 46.959C356.899 56.1977 352.857 68.5697 352.857 83.7218H358.903C358.903 69.661 362.631 58.8801 369.771 51.0261L365.297 46.959ZM352.857 83.7218C352.857 98.7309 356.905 111.085 365.279 120.465L369.789 116.438C362.625 108.414 358.903 97.615 358.903 83.7218H352.857ZM365.318 120.507C373.893 129.755 385.308 134.294 399.234 134.294V128.248C386.743 128.248 377.025 124.24 369.751 116.396L365.318 120.507ZM623.257 81.1579L625.895 82.635L625.901 82.624L625.907 82.6128L623.257 81.1579ZM603.212 100.038L601.787 97.3714L603.212 100.038ZM544.941 107.263V104.24H541.918V107.263H544.941ZM544.941 166V169.023H547.964V166H544.941ZM505.084 166H502.061V169.023H505.084V166ZM505.084 2.37601V-0.64711H502.061V2.37601H505.084ZM602.746 9.13541L604.098 6.43144L602.746 9.13541ZM623.024 27.782L625.652 26.2877L623.024 27.782ZM583.633 39.9023L581.541 42.085L583.633 39.9023ZM544.941 34.5414V31.5183H541.918V34.5414H544.941ZM544.941 75.5639H541.918V78.5871H544.941V75.5639ZM626.76 55.0527C626.76 64.0483 624.701 72.2459 620.607 79.703L625.907 82.6128C630.515 74.2203 632.806 65.0145 632.806 55.0527H626.76ZM620.619 79.6808C616.591 86.875 610.367 92.7856 601.787 97.3714L604.637 102.704C614.082 97.6556 621.222 90.9797 625.895 82.635L620.619 79.6808ZM601.787 97.3714C593.327 101.893 582.662 104.24 569.648 104.24V110.286C583.361 110.286 595.072 107.816 604.637 102.704L601.787 97.3714ZM569.648 104.24H544.941V110.286H569.648V104.24ZM541.918 107.263V166H547.964V107.263H541.918ZM544.941 162.977H505.084V169.023H544.941V162.977ZM508.107 166V2.37601H502.061V166H508.107ZM505.084 5.39913H569.648V-0.64711H505.084V5.39913ZM569.648 5.39913C582.365 5.39913 592.906 7.59561 601.394 11.8394L604.098 6.43144C594.56 1.66267 583.036 -0.64711 569.648 -0.64711V5.39913ZM601.394 11.8394C609.929 16.1071 616.217 21.9265 620.396 29.2763L625.652 26.2877C620.819 17.7879 613.587 11.1762 604.098 6.43144L601.394 11.8394ZM620.396 29.2763C624.612 36.691 626.76 45.2542 626.76 55.0527H632.806C632.806 44.3398 630.448 34.7226 625.652 26.2877L620.396 29.2763ZM566.618 78.5871C574.646 78.5871 581.215 76.7076 585.725 72.3857L581.541 68.0204C578.592 70.8463 573.818 72.5408 566.618 72.5408V78.5871ZM585.725 72.3857C590.197 68.0999 592.25 62.173 592.25 55.0527H586.204C586.204 60.985 584.528 65.1583 581.541 68.0204L585.725 72.3857ZM592.25 55.0527C592.25 47.9324 590.197 42.0055 585.725 37.7197L581.541 42.085C584.528 44.947 586.204 49.1204 586.204 55.0527H592.25ZM585.725 37.7197C581.215 33.3977 574.646 31.5183 566.618 31.5183V37.5645C573.818 37.5645 578.592 39.259 581.541 42.085L585.725 37.7197ZM566.618 31.5183H544.941V37.5645H566.618V31.5183ZM541.918 34.5414V75.5639H547.964V34.5414H541.918ZM544.941 78.5871H566.618V72.5408H544.941V78.5871Z" fill="white" mask="url(#path-1-outside-1_12_8304)"/>
</g>
</svg>
