<svg width="681" height="166" viewBox="0 0 681 166" fill="none" xmlns="http://www.w3.org/2000/svg">
<g opacity="0.15">
<mask id="path-1-outside-1_12_8280" maskUnits="userSpaceOnUse" x="-3" y="-3.71191" width="690" height="173" fill="black">
<rect fill="white" x="-3" y="-3.71191" width="690" height="173"/>
<path d="M0.6329 82.8705C0.6329 66.8337 4.1024 52.5702 11.0414 40.08C17.9804 27.4356 27.6179 17.6439 39.9539 10.7049C52.4441 3.61168 66.5534 0.0650749 82.2818 0.0650749C101.557 0.0650749 118.056 5.15367 131.78 15.3309C145.504 25.5081 154.679 39.3861 159.305 56.9649H115.82C112.582 50.1801 107.956 45.0144 101.942 41.4678C96.0827 37.9212 89.375 36.1479 81.8192 36.1479C69.6374 36.1479 59.7686 40.3884 52.2128 48.8694C44.657 57.3504 40.8791 68.6841 40.8791 82.8705C40.8791 97.0569 44.657 108.391 52.2128 116.872C59.7686 125.353 69.6374 129.593 81.8192 129.593C89.375 129.593 96.0827 127.82 101.942 124.273C107.956 120.727 112.582 115.561 115.82 108.776H159.305C154.679 126.355 145.504 140.233 131.78 150.41C118.056 160.433 101.557 165.445 82.2818 165.445C66.5534 165.445 52.4441 161.975 39.9539 155.036C27.6179 147.943 17.9804 138.151 11.0414 125.661C4.1024 113.171 0.6329 98.9073 0.6329 82.8705ZM223.078 133.756H274.89V164.288H183.526V1.91548H223.078V133.756ZM333.307 1.91548V164.288H293.755V1.91548H333.307ZM355.263 82.8705C355.263 66.8337 358.732 52.5702 365.671 40.08C372.61 27.4356 382.248 17.6439 394.584 10.7049C407.074 3.61168 421.183 0.0650749 436.912 0.0650749C456.187 0.0650749 472.686 5.15367 486.41 15.3309C500.134 25.5081 509.309 39.3861 513.935 56.9649H470.45C467.212 50.1801 462.586 45.0144 456.572 41.4678C450.713 37.9212 444.005 36.1479 436.449 36.1479C424.267 36.1479 414.398 40.3884 406.843 48.8694C399.287 57.3504 395.509 68.6841 395.509 82.8705C395.509 97.0569 399.287 108.391 406.843 116.872C414.398 125.353 424.267 129.593 436.449 129.593C444.005 129.593 450.713 127.82 456.572 124.273C462.586 120.727 467.212 115.561 470.45 108.776H513.935C509.309 126.355 500.134 140.233 486.41 150.41C472.686 160.433 456.187 165.445 436.912 165.445C421.183 165.445 407.074 161.975 394.584 155.036C382.248 147.943 372.61 138.151 365.671 125.661C358.732 113.171 355.263 98.9073 355.263 82.8705ZM632.295 164.288L577.708 92.5851V164.288H538.156V1.91548H577.708V73.1559L631.833 1.91548H678.324L615.41 81.4827L680.637 164.288H632.295Z"/>
</mask>
<path d="M11.0414 40.08L13.6639 41.5369L13.6677 41.5301L13.6714 41.5233L11.0414 40.08ZM39.9539 10.7049L41.4247 13.3196L41.4354 13.3136L39.9539 10.7049ZM131.78 15.3309L133.567 12.9212L131.78 15.3309ZM159.305 56.9649V59.9649H163.196L162.206 56.2014L159.305 56.9649ZM115.82 56.9649L113.113 58.2571L113.928 59.9649H115.82V56.9649ZM101.942 41.4678L100.389 44.0343L100.404 44.0432L100.418 44.0519L101.942 41.4678ZM52.2128 48.8694L54.4528 50.865L52.2128 48.8694ZM52.2128 116.872L49.9728 118.867L52.2128 116.872ZM101.942 124.273L100.418 121.689L100.404 121.698L100.389 121.707L101.942 124.273ZM115.82 108.776V105.776H113.928L113.113 107.484L115.82 108.776ZM159.305 108.776L162.206 109.54L163.196 105.776H159.305V108.776ZM131.78 150.41L133.549 152.833L133.558 152.826L133.567 152.82L131.78 150.41ZM39.9539 155.036L38.4585 157.637L38.4776 157.648L38.497 157.659L39.9539 155.036ZM11.0414 125.661L13.6639 124.204L11.0414 125.661ZM3.6329 82.8705C3.6329 67.28 7.00158 53.529 13.6639 41.5369L8.41893 38.6231C1.20322 51.6113 -2.3671 66.3874 -2.3671 82.8705H3.6329ZM13.6714 41.5233C20.3463 29.36 29.5866 19.9785 41.4247 13.3196L38.4831 8.09015C25.6492 15.3092 15.6145 25.5111 8.4114 38.6367L13.6714 41.5233ZM41.4354 13.3136C53.4318 6.50076 67.0221 3.06508 82.2818 3.06508V-2.93492C66.0847 -2.93492 51.4564 0.722595 38.4724 8.09619L41.4354 13.3136ZM82.2818 3.06508C101 3.06508 116.851 7.99512 129.993 17.7406L133.567 12.9212C119.261 2.31223 102.114 -2.93492 82.2818 -2.93492V3.06508ZM129.993 17.7406C143.133 27.4846 151.939 40.7637 156.403 57.7284L162.206 56.2014C157.418 38.0084 147.875 23.5316 133.567 12.9212L129.993 17.7406ZM159.305 53.9649H115.82V59.9649H159.305V53.9649ZM118.528 55.6727C115.053 48.3925 110.034 42.7571 103.466 38.8837L100.418 44.0519C105.878 47.2717 110.111 51.9677 113.113 58.2571L118.528 55.6727ZM103.496 38.9013C97.1202 35.0424 89.8644 33.1479 81.8192 33.1479V39.1479C88.8856 39.1479 95.0452 40.8 100.389 44.0343L103.496 38.9013ZM81.8192 33.1479C68.8516 33.1479 58.1428 37.7034 49.9728 46.8738L54.4528 50.865C61.3944 43.0734 70.4232 39.1479 81.8192 39.1479V33.1479ZM49.9728 46.8738C41.8142 56.0314 37.8791 68.1384 37.8791 82.8705H43.8791C43.8791 69.2297 47.4998 58.6694 54.4528 50.865L49.9728 46.8738ZM37.8791 82.8705C37.8791 97.6025 41.8142 109.71 49.9728 118.867L54.4528 114.876C47.4998 107.072 43.8791 96.5112 43.8791 82.8705H37.8791ZM49.9728 118.867C58.1428 128.038 68.8516 132.593 81.8192 132.593V126.593C70.4232 126.593 61.3944 122.668 54.4528 114.876L49.9728 118.867ZM81.8192 132.593C89.8644 132.593 97.1202 130.699 103.496 126.84L100.389 121.707C95.0452 124.941 88.8856 126.593 81.8192 126.593V132.593ZM103.466 126.857C110.034 122.984 115.053 117.348 118.528 110.068L113.113 107.484C110.111 113.773 105.878 118.469 100.418 121.689L103.466 126.857ZM115.82 111.776H159.305V105.776H115.82V111.776ZM156.403 108.013C151.939 124.977 143.133 138.256 129.993 148L133.567 152.82C147.875 142.209 157.418 127.733 162.206 109.54L156.403 108.013ZM130.011 147.987C116.868 157.586 101.01 162.445 82.2818 162.445V168.445C102.104 168.445 119.244 163.28 133.549 152.833L130.011 147.987ZM82.2818 162.445C67.0106 162.445 53.4115 159.081 41.4108 152.414L38.497 157.659C51.4767 164.87 66.0962 168.445 82.2818 168.445V162.445ZM41.4493 152.435C29.588 145.615 20.3392 136.22 13.6639 124.204L8.41893 127.118C15.6216 140.083 25.6478 150.271 38.4585 157.637L41.4493 152.435ZM13.6639 124.204C7.00158 112.212 3.6329 98.461 3.6329 82.8705H-2.3671C-2.3671 99.3536 1.20322 114.13 8.41893 127.118L13.6639 124.204ZM223.078 133.756H220.078V136.756H223.078V133.756ZM274.89 133.756H277.89V130.756H274.89V133.756ZM274.89 164.288V167.288H277.89V164.288H274.89ZM183.526 164.288H180.526V167.288H183.526V164.288ZM183.526 1.91548V-1.08452H180.526V1.91548H183.526ZM223.078 1.91548H226.078V-1.08452H223.078V1.91548ZM223.078 136.756H274.89V130.756H223.078V136.756ZM271.89 133.756V164.288H277.89V133.756H271.89ZM274.89 161.288H183.526V167.288H274.89V161.288ZM186.526 164.288V1.91548H180.526V164.288H186.526ZM183.526 4.91548H223.078V-1.08452H183.526V4.91548ZM220.078 1.91548V133.756H226.078V1.91548H220.078ZM333.307 1.91548H336.307V-1.08452H333.307V1.91548ZM333.307 164.288V167.288H336.307V164.288H333.307ZM293.755 164.288H290.755V167.288H293.755V164.288ZM293.755 1.91548V-1.08452H290.755V1.91548H293.755ZM330.307 1.91548V164.288H336.307V1.91548H330.307ZM333.307 161.288H293.755V167.288H333.307V161.288ZM296.755 164.288V1.91548H290.755V164.288H296.755ZM293.755 4.91548H333.307V-1.08452H293.755V4.91548ZM365.671 40.08L368.294 41.5369L368.298 41.5301L368.301 41.5233L365.671 40.08ZM394.584 10.7049L396.055 13.3196L396.065 13.3136L394.584 10.7049ZM486.41 15.3309L488.197 12.9212L486.41 15.3309ZM513.935 56.9649V59.9649H517.826L516.836 56.2014L513.935 56.9649ZM470.45 56.9649L467.743 58.2571L468.558 59.9649H470.45V56.9649ZM456.572 41.4678L455.019 44.0343L455.033 44.0432L455.048 44.0519L456.572 41.4678ZM406.843 48.8694L409.083 50.865L406.843 48.8694ZM406.843 116.872L404.603 118.867L406.843 116.872ZM456.572 124.273L455.048 121.689L455.033 121.698L455.019 121.707L456.572 124.273ZM470.45 108.776V105.776H468.558L467.743 107.484L470.45 108.776ZM513.935 108.776L516.836 109.54L517.826 105.776H513.935V108.776ZM486.41 150.41L488.179 152.833L488.188 152.826L488.197 152.82L486.41 150.41ZM394.584 155.036L393.088 157.637L393.108 157.648L393.127 157.659L394.584 155.036ZM365.671 125.661L368.294 124.204L365.671 125.661ZM358.263 82.8705C358.263 67.28 361.631 53.529 368.294 41.5369L363.049 38.6231C355.833 51.6113 352.263 66.3874 352.263 82.8705H358.263ZM368.301 41.5233C374.976 29.36 384.216 19.9785 396.055 13.3196L393.113 8.09015C380.279 15.3092 370.244 25.5111 363.041 38.6367L368.301 41.5233ZM396.065 13.3136C408.062 6.50076 421.652 3.06508 436.912 3.06508V-2.93492C420.715 -2.93492 406.086 0.722595 393.102 8.09619L396.065 13.3136ZM436.912 3.06508C455.629 3.06508 471.481 7.99512 484.623 17.7406L488.197 12.9212C473.891 2.31223 456.744 -2.93492 436.912 -2.93492V3.06508ZM484.623 17.7406C497.763 27.4846 506.569 40.7637 511.033 57.7284L516.836 56.2014C512.048 38.0084 502.505 23.5316 488.197 12.9212L484.623 17.7406ZM513.935 53.9649H470.45V59.9649H513.935V53.9649ZM473.158 55.6727C469.683 48.3925 464.664 42.7571 458.096 38.8837L455.048 44.0519C460.508 47.2717 464.741 51.9677 467.743 58.2571L473.158 55.6727ZM458.126 38.9013C451.75 35.0424 444.494 33.1479 436.449 33.1479V39.1479C443.515 39.1479 449.675 40.8 455.019 44.0343L458.126 38.9013ZM436.449 33.1479C423.481 33.1479 412.773 37.7034 404.603 46.8738L409.083 50.865C416.024 43.0734 425.053 39.1479 436.449 39.1479V33.1479ZM404.603 46.8738C396.444 56.0314 392.509 68.1384 392.509 82.8705H398.509C398.509 69.2297 402.13 58.6694 409.083 50.865L404.603 46.8738ZM392.509 82.8705C392.509 97.6025 396.444 109.71 404.603 118.867L409.083 114.876C402.13 107.072 398.509 96.5112 398.509 82.8705H392.509ZM404.603 118.867C412.773 128.038 423.481 132.593 436.449 132.593V126.593C425.053 126.593 416.024 122.668 409.083 114.876L404.603 118.867ZM436.449 132.593C444.494 132.593 451.75 130.699 458.126 126.84L455.019 121.707C449.675 124.941 443.515 126.593 436.449 126.593V132.593ZM458.096 126.857C464.664 122.984 469.683 117.348 473.158 110.068L467.743 107.484C464.741 113.773 460.508 118.469 455.048 121.689L458.096 126.857ZM470.45 111.776H513.935V105.776H470.45V111.776ZM511.033 108.013C506.569 124.977 497.763 138.256 484.623 148L488.197 152.82C502.505 142.209 512.048 127.733 516.836 109.54L511.033 108.013ZM484.641 147.987C471.498 157.586 455.64 162.445 436.912 162.445V168.445C456.734 168.445 473.874 163.28 488.179 152.833L484.641 147.987ZM436.912 162.445C421.641 162.445 408.041 159.081 396.041 152.414L393.127 157.659C406.107 164.87 420.726 168.445 436.912 168.445V162.445ZM396.079 152.435C384.218 145.615 374.969 136.22 368.294 124.204L363.049 127.118C370.251 140.083 380.278 150.271 393.088 157.637L396.079 152.435ZM368.294 124.204C361.631 112.212 358.263 98.461 358.263 82.8705H352.263C352.263 99.3536 355.833 114.13 363.049 127.118L368.294 124.204ZM632.295 164.288L629.908 166.105L630.809 167.288H632.295V164.288ZM577.708 92.5851L580.095 90.7679L574.708 83.6917V92.5851H577.708ZM577.708 164.288V167.288H580.708V164.288H577.708ZM538.156 164.288H535.156V167.288H538.156V164.288ZM538.156 1.91548V-1.08452H535.156V1.91548H538.156ZM577.708 1.91548H580.708V-1.08452H577.708V1.91548ZM577.708 73.1559H574.708V82.0637L580.097 74.9707L577.708 73.1559ZM631.833 1.91548V-1.08452H630.344L629.444 0.100624L631.833 1.91548ZM678.324 1.91548L680.677 3.77618L684.52 -1.08452H678.324V1.91548ZM615.41 81.4827L613.057 79.622L611.589 81.4792L613.054 83.3391L615.41 81.4827ZM680.637 164.288V167.288H686.819L682.994 162.432L680.637 164.288ZM634.682 162.471L580.095 90.7679L575.321 94.4023L629.908 166.105L634.682 162.471ZM574.708 92.5851V164.288H580.708V92.5851H574.708ZM577.708 161.288H538.156V167.288H577.708V161.288ZM541.156 164.288V1.91548H535.156V164.288H541.156ZM538.156 4.91548H577.708V-1.08452H538.156V4.91548ZM574.708 1.91548V73.1559H580.708V1.91548H574.708ZM580.097 74.9707L634.221 3.73033L629.444 0.100624L575.32 71.341L580.097 74.9707ZM631.833 4.91548H678.324V-1.08452H631.833V4.91548ZM675.971 0.0547714L613.057 79.622L617.763 83.3434L680.677 3.77618L675.971 0.0547714ZM613.054 83.3391L678.28 166.144L682.994 162.432L617.767 79.6263L613.054 83.3391ZM680.637 161.288H632.295V167.288H680.637V161.288Z" fill="white" mask="url(#path-1-outside-1_12_8280)"/>
</g>
</svg>
