<svg width="295" height="73" viewBox="0 0 295 73" fill="none" xmlns="http://www.w3.org/2000/svg">
<mask id="path-1-outside-1_2033_24" maskUnits="userSpaceOnUse" x="-3" y="-2" width="300" height="77" fill="black">
<rect fill="white" x="-3" y="-2" width="300" height="77"/>
<path d="M0.593226 73L32.3479 0.35868H56.4233L88.1779 73H62.8572L39.4044 11.9813H48.9516L25.4988 73H0.593226ZM19.48 60.3397L25.7064 42.6982H59.1214L65.3478 60.3397H19.48ZM94.8826 73V0.35868H150.194V19.3492H113.666L118.958 14.0568V73H94.8826ZM158.322 73V0.35868H193.294C200.074 0.35868 205.92 1.4656 210.831 3.67943C215.813 5.89326 219.652 9.07564 222.35 13.2266C225.048 17.3083 226.397 22.1511 226.397 27.7548C226.397 33.3586 225.048 38.2013 222.35 42.2831C219.652 46.3648 215.813 49.5472 210.831 51.8302C205.92 54.0441 200.074 55.151 193.294 55.151H171.916L182.813 44.6699V73H158.322ZM182.813 47.368L171.916 36.2642H191.737C195.127 36.2642 197.618 35.5032 199.209 33.9812C200.869 32.4592 201.699 30.3838 201.699 27.7548C201.699 25.1259 200.869 23.0504 199.209 21.5284C197.618 20.0064 195.127 19.2454 191.737 19.2454H171.916L182.813 8.14168V47.368ZM256.236 27.3397H288.614V44.9812H256.236V27.3397ZM257.897 54.5284H294.217V73H233.821V0.35868H292.868V18.8303H257.897V54.5284Z"/>
</mask>
<path d="M0.593226 73L-1.23933 72.1989L-2.4638 75H0.593226V73ZM32.3479 0.35868V-1.64132H31.0394L30.5153 -0.442409L32.3479 0.35868ZM56.4233 0.35868L58.2558 -0.442409L57.7317 -1.64132H56.4233V0.35868ZM88.1779 73V75H91.2349L90.0105 72.1989L88.1779 73ZM62.8572 73L60.9904 73.7175L61.4833 75H62.8572V73ZM39.4044 11.9813V9.9813H36.4931L37.5376 12.6988L39.4044 11.9813ZM48.9516 11.9813L50.8184 12.6988L51.8629 9.9813H48.9516V11.9813ZM25.4988 73V75H26.8728L27.3657 73.7175L25.4988 73ZM19.48 60.3397L17.594 59.674L16.6532 62.3397H19.48V60.3397ZM25.7064 42.6982V40.6982H24.2913L23.8204 42.0326L25.7064 42.6982ZM59.1214 42.6982L61.0074 42.0326L60.5364 40.6982H59.1214V42.6982ZM65.3478 60.3397V62.3397H68.1746L67.2338 59.674L65.3478 60.3397ZM2.42578 73.8011L34.1804 1.15977L30.5153 -0.442409L-1.23933 72.1989L2.42578 73.8011ZM32.3479 2.35868H56.4233V-1.64132H32.3479V2.35868ZM54.5907 1.15977L86.3453 73.8011L90.0105 72.1989L58.2558 -0.442409L54.5907 1.15977ZM88.1779 71H62.8572V75H88.1779V71ZM64.7241 72.2825L41.2713 11.2638L37.5376 12.6988L60.9904 73.7175L64.7241 72.2825ZM39.4044 13.9813H48.9516V9.9813H39.4044V13.9813ZM47.0847 11.2638L23.632 72.2825L27.3657 73.7175L50.8184 12.6988L47.0847 11.2638ZM25.4988 71H0.593226V75H25.4988V71ZM21.3659 61.0053L27.5923 43.3638L23.8204 42.0326L17.594 59.674L21.3659 61.0053ZM25.7064 44.6982H59.1214V40.6982H25.7064V44.6982ZM57.2354 43.3638L63.4618 61.0053L67.2338 59.674L61.0074 42.0326L57.2354 43.3638ZM65.3478 58.3397H19.48V62.3397H65.3478V58.3397ZM94.8826 73H92.8826V75H94.8826V73ZM94.8826 0.35868V-1.64132H92.8826V0.35868H94.8826ZM150.194 0.35868H152.194V-1.64132H150.194V0.35868ZM150.194 19.3492V21.3492H152.194V19.3492H150.194ZM113.666 19.3492L112.251 17.935L108.837 21.3492H113.666V19.3492ZM118.958 14.0568H120.958V9.22833L117.544 12.6425L118.958 14.0568ZM118.958 73V75H120.958V73H118.958ZM96.8826 73V0.35868H92.8826V73H96.8826ZM94.8826 2.35868H150.194V-1.64132H94.8826V2.35868ZM148.194 0.35868V19.3492H152.194V0.35868H148.194ZM150.194 17.3492H113.666V21.3492H150.194V17.3492ZM115.08 20.7634L120.372 15.471L117.544 12.6425L112.251 17.935L115.08 20.7634ZM116.958 14.0568V73H120.958V14.0568H116.958ZM118.958 71H94.8826V75H118.958V71ZM158.322 73H156.322V75H158.322V73ZM158.322 0.35868V-1.64132H156.322V0.35868H158.322ZM210.831 3.67943L210.01 5.50281L210.019 5.50705L210.831 3.67943ZM222.35 13.2266L220.673 14.3165L220.678 14.323L220.682 14.3294L222.35 13.2266ZM222.35 42.2831L220.682 41.1802L220.682 41.1802L222.35 42.2831ZM210.831 51.8302L211.653 53.6536L211.665 53.6484L210.831 51.8302ZM171.916 55.151L170.53 53.7096L166.952 57.151H171.916V55.151ZM182.813 44.6699H184.813V39.971L181.426 43.2285L182.813 44.6699ZM182.813 73V75H184.813V73H182.813ZM182.813 47.368L181.385 48.7688L184.813 52.2616V47.368H182.813ZM171.916 36.2642V34.2642H167.152L170.489 37.6651L171.916 36.2642ZM199.209 33.9812L197.857 32.5069L197.842 32.5213L197.826 32.536L199.209 33.9812ZM199.209 21.5284L197.826 22.9737L197.842 22.9884L197.857 23.0027L199.209 21.5284ZM171.916 19.2454L170.489 17.8446L167.152 21.2454H171.916V19.2454ZM182.813 8.14168H184.813V3.2481L181.385 6.74087L182.813 8.14168ZM160.322 73V0.35868H156.322V73H160.322ZM158.322 2.35868H193.294V-1.64132H158.322V2.35868ZM193.294 2.35868C199.861 2.35868 205.414 3.43136 210.01 5.50279L211.653 1.85606C206.425 -0.500172 200.286 -1.64132 193.294 -1.64132V2.35868ZM210.019 5.50705C214.684 7.58026 218.207 10.5224 220.673 14.3165L224.027 12.1366C221.097 7.62892 216.941 4.20625 211.644 1.8518L210.019 5.50705ZM220.682 14.3294C223.134 18.0383 224.397 22.4847 224.397 27.7548H228.397C228.397 21.8175 226.963 16.5783 224.019 12.1237L220.682 14.3294ZM224.397 27.7548C224.397 33.025 223.134 37.4713 220.682 41.1802L224.019 43.386C226.963 38.9314 228.397 33.6922 228.397 27.7548H224.397ZM220.682 41.1802C218.214 44.9139 214.681 47.8656 209.998 50.0121L211.665 53.6484C216.944 51.2289 221.091 47.8158 224.019 43.386L220.682 41.1802ZM210.01 50.0069C205.414 52.0783 199.861 53.151 193.294 53.151V57.151C200.286 57.151 206.425 56.0098 211.653 53.6536L210.01 50.0069ZM193.294 53.151H171.916V57.151H193.294V53.151ZM173.303 56.5924L184.199 46.1113L181.426 43.2285L170.53 53.7096L173.303 56.5924ZM180.813 44.6699V73H184.813V44.6699H180.813ZM182.813 71H158.322V75H182.813V71ZM184.24 45.9672L173.344 34.8634L170.489 37.6651L181.385 48.7688L184.24 45.9672ZM171.916 38.2642H191.737V34.2642H171.916V38.2642ZM191.737 38.2642C195.372 38.2642 198.47 37.4554 200.591 35.4265L197.826 32.536C196.765 33.5511 194.882 34.2642 191.737 34.2642V38.2642ZM200.56 35.4555C202.704 33.4905 203.699 30.8418 203.699 27.7548H199.699C199.699 29.9257 199.035 31.4279 197.857 32.5069L200.56 35.4555ZM203.699 27.7548C203.699 24.6679 202.704 22.0191 200.56 20.0541L197.857 23.0027C199.035 24.0817 199.699 25.5839 199.699 27.7548H203.699ZM200.591 20.0832C198.47 18.0543 195.372 17.2454 191.737 17.2454V21.2454C194.882 21.2454 196.765 21.9585 197.826 22.9737L200.591 20.0832ZM191.737 17.2454H171.916V21.2454H191.737V17.2454ZM173.344 20.6462L184.24 9.54249L181.385 6.74087L170.489 17.8446L173.344 20.6462ZM180.813 8.14168V47.368H184.813V8.14168H180.813ZM256.236 27.3397V25.3397H254.236V27.3397H256.236ZM288.614 27.3397H290.614V25.3397H288.614V27.3397ZM288.614 44.9812V46.9812H290.614V44.9812H288.614ZM256.236 44.9812H254.236V46.9812H256.236V44.9812ZM257.897 54.5284H255.897V56.5284H257.897V54.5284ZM294.217 54.5284H296.217V52.5284H294.217V54.5284ZM294.217 73V75H296.217V73H294.217ZM233.821 73H231.821V75H233.821V73ZM233.821 0.35868V-1.64132H231.821V0.35868H233.821ZM292.868 0.35868H294.868V-1.64132H292.868V0.35868ZM292.868 18.8303V20.8303H294.868V18.8303H292.868ZM257.897 18.8303V16.8303H255.897V18.8303H257.897ZM256.236 29.3397H288.614V25.3397H256.236V29.3397ZM286.614 27.3397V44.9812H290.614V27.3397H286.614ZM288.614 42.9812H256.236V46.9812H288.614V42.9812ZM258.236 44.9812V27.3397H254.236V44.9812H258.236ZM257.897 56.5284H294.217V52.5284H257.897V56.5284ZM292.217 54.5284V73H296.217V54.5284H292.217ZM294.217 71H233.821V75H294.217V71ZM235.821 73V0.35868H231.821V73H235.821ZM233.821 2.35868H292.868V-1.64132H233.821V2.35868ZM290.868 0.35868V18.8303H294.868V0.35868H290.868ZM292.868 16.8303H257.897V20.8303H292.868V16.8303ZM255.897 18.8303V54.5284H259.897V18.8303H255.897Z" fill="white" mask="url(#path-1-outside-1_2033_24)"/>
</svg>
