<svg width="28" height="28" viewBox="0 0 28 28" fill="none" xmlns="http://www.w3.org/2000/svg">
<path d="M26.7654 3.70313C26.7654 3.70313 24.4372 5.07838 23.1427 5.46834C22.4478 4.66939 21.5244 4.10312 20.4972 3.84611C19.47 3.5891 18.3887 3.65375 17.3995 4.03131C16.4103 4.40888 15.5609 5.08115 14.9662 5.95719C14.3715 6.83324 14.0601 7.87079 14.0743 8.92953V10.0833C12.0468 10.1358 10.0378 9.68616 8.22609 8.77429C6.41443 7.86242 4.8564 6.51666 3.69076 4.85686C3.69076 4.85686 -0.924161 15.2404 9.45942 19.8554C7.08334 21.4682 4.25281 22.277 1.3833 22.1628C11.7669 27.9315 24.4579 22.1628 24.4579 8.89492C24.4579 8.57418 24.4256 8.25345 24.3656 7.93732C25.5424 6.77667 26.7654 3.70313 26.7654 3.70313Z" stroke="black" stroke-width="1.7306" stroke-linecap="round" stroke-linejoin="round"/>
</svg>
