<svg width="28" height="28" viewBox="0 0 28 28" fill="none" xmlns="http://www.w3.org/2000/svg">
<path d="M16.2085 14.0747L12.1704 16.3821V11.7672L16.2085 14.0747Z" stroke="black" stroke-width="1.7306" stroke-linecap="round" stroke-linejoin="round"/>
<path d="M2.36304 14.8904V13.2578C2.36304 9.91778 2.36304 8.24717 3.40716 7.17305C4.45244 6.09777 6.09766 6.05162 9.38695 5.95817C10.9445 5.91433 12.5366 5.88318 13.9003 5.88318C15.2629 5.88318 16.8551 5.91433 18.4137 5.95817C21.703 6.05162 23.3482 6.09777 24.3924 7.17305C25.4377 8.24717 25.4377 9.91893 25.4377 13.2578V14.8904C25.4377 18.2316 25.4377 19.901 24.3935 20.9763C23.3482 22.0504 21.7042 22.0977 18.4137 22.19C16.8562 22.235 15.2641 22.2662 13.9003 22.2662C12.3956 22.2616 10.891 22.2363 9.38695 22.19C6.09766 22.0977 4.45244 22.0516 3.40716 20.9763C2.36304 19.901 2.36304 18.2304 2.36304 14.8915V14.8904Z" stroke="black" stroke-width="1.7306"/>
</svg>
